SplineFontDB: 3.0
FontName: TEL-ElurBoldItalic
FullName: TEL Elur Bold Italic
FamilyName: TEL Elur
Weight: Bold
Copyright: Copyright (c) 2009-2015, NLCI (http://www.nlci.in/fonts/)
Version: 1.0 Tue May 16 16:28:50 1995
ItalicAngle: 12
UnderlinePosition: -594
UnderlineWidth: 41
Ascent: 1638
Descent: 410
LayerCount: 2
Layer: 0 1 "Back"  1
Layer: 1 1 "Fore"  0
XUID: [1021 832 748627050 15670230]
FSType: 0
OS2Version: 0
OS2_WeightWidthSlopeOnly: 0
OS2_UseTypoMetrics: 1
CreationTime: 1257736744
ModificationTime: 1257736744
PfmFamily: 81
TTFWeight: 700
TTFWidth: 5
LineGap: 0
VLineGap: 0
Panose: 5 0 0 0 0 0 0 0 0 0
OS2TypoAscent: -159
OS2TypoAOffset: 1
OS2TypoDescent: -493
OS2TypoDOffset: 1
OS2TypoLinegap: 0
OS2WinAscent: -340
OS2WinAOffset: 1
OS2WinDescent: -361
OS2WinDOffset: 1
HheadAscent: -340
HheadAOffset: 1
HheadDescent: 361
HheadDOffset: 1
OS2SubXSize: 1434
OS2SubYSize: 1331
OS2SubXOff: 0
OS2SubYOff: 293
OS2SupXSize: 1434
OS2SupYSize: 1331
OS2SupXOff: 0
OS2SupYOff: 928
OS2StrikeYSize: 102
OS2StrikeYPos: 530
OS2Vendor: 'Alts'
OS2UnicodeRanges: 00000000.00000000.00000000.00000000
DEI: 91125
TtTable: prep
NPUSHB
 1
 1
SCANTYPE
PUSHW_1
 511
SCANCTRL
EndTTInstrs
ShortTable: maxp 16
  1
  0
  315
  223
  12
  189
  6
  2
  8
  64
  10
  0
  3
  417
  5
  2
EndShort
LangName: 1033 "" "" "Bold Italic" "NLCI:TEL Elur Bold Italic" "" "1.0 Tue May 16 16:28:50 1995" 
Encoding: UnicodeBmp
UnicodeInterp: none
NameList: Adobe Glyph List
DisplaySize: -24
AntiAlias: 1
FitToEm: 1
Lookup: 4 0 0 "'akhn' Akhand in Telugu lookup 0"  {"'akhn' Akhand (ligatures)"  } ['akhn' ('telu' <'dflt' > ) ]
Lookup: 4 0 0 "'blwf' Below Base Forms in Telugu lookup 1"  {"'blwf' Below Base Form (sub)"  } ['blwf' ('telu' <'dflt' > ) ]

StartChar: .notdef
Encoding: 65536 -1 0
Width: 1024
Flags: W
LayerCount: 2
Fore
SplineSet
64 0 m 1,0,-1
 64 1145 l 1,1,-1
 960 1145 l 1,2,-1
 960 0 l 1,3,-1
 64 0 l 1,0,-1
896 64 m 1,4,-1
 896 1081 l 1,5,-1
 128 1081 l 1,6,-1
 128 64 l 1,7,-1
 896 64 l 1,4,-1
EndSplineSet
EndChar

StartChar: exclam
Encoding: 33 33 4
Width: 778
Flags: W
LayerCount: 2
Fore
SplineSet
492 133 m 256,0,1
 492 99 492 99 478.5 70 c 128,-1,2
 465 41 465 41 442 20 c 128,-1,3
 419 -1 419 -1 388.5 -13 c 128,-1,4
 358 -25 358 -25 324 -25 c 0,5,6
 291 -25 291 -25 263 -11.5 c 128,-1,7
 235 2 235 2 214 25 c 128,-1,8
 193 48 193 48 181.5 78 c 128,-1,9
 170 108 170 108 170 141 c 0,10,11
 170 175 170 175 182 204.5 c 128,-1,12
 194 234 194 234 215 256.5 c 128,-1,13
 236 279 236 279 264.5 292 c 128,-1,14
 293 305 293 305 326 305 c 0,15,16
 363 305 363 305 393.5 291 c 128,-1,17
 424 277 424 277 446 253.5 c 128,-1,18
 468 230 468 230 480 198.5 c 128,-1,19
 492 167 492 167 492 133 c 256,0,1
694 1262 m 1,20,21
 642 1103 642 1103 592 951 c 0,22,23
 571 886 571 886 547.5 816 c 128,-1,24
 524 746 524 746 501.5 677 c 128,-1,25
 479 608 479 608 457.5 543.5 c 128,-1,26
 436 479 436 479 418 426 c 1,27,-1
 307 426 l 1,28,-1
 354 1214 l 1,29,30
 354 1257 354 1257 371 1292.5 c 128,-1,31
 388 1328 388 1328 416 1353.5 c 128,-1,32
 444 1379 444 1379 480.5 1393 c 128,-1,33
 517 1407 517 1407 555 1407 c 0,34,35
 630 1407 630 1407 662 1372 c 128,-1,36
 694 1337 694 1337 694 1262 c 1,20,21
EndSplineSet
EndChar

StartChar: quotedbl
Encoding: 34 34 5
Width: 770
Flags: W
LayerCount: 2
Fore
SplineSet
461 1370 m 0,0,1
 461 1360 461 1360 450 1324 c 128,-1,2
 439 1288 439 1288 421.5 1238 c 128,-1,3
 404 1188 404 1188 382.5 1129.5 c 128,-1,4
 361 1071 361 1071 341 1017 c 128,-1,5
 321 963 321 963 304.5 919 c 128,-1,6
 288 875 288 875 281 854 c 1,7,-1
 205 854 l 1,8,-1
 219 1333 l 2,9,10
 220 1361 220 1361 233 1384.5 c 128,-1,11
 246 1408 246 1408 266 1425 c 128,-1,12
 286 1442 286 1442 311 1452 c 128,-1,13
 336 1462 336 1462 362 1462 c 0,14,15
 407 1462 407 1462 434 1440 c 128,-1,16
 461 1418 461 1418 461 1370 c 0,0,1
862 1370 m 0,17,18
 862 1360 862 1360 851 1324 c 128,-1,19
 840 1288 840 1288 822.5 1238 c 128,-1,20
 805 1188 805 1188 783.5 1129.5 c 128,-1,21
 762 1071 762 1071 742 1017 c 128,-1,22
 722 963 722 963 706 919 c 128,-1,23
 690 875 690 875 682 854 c 1,24,-1
 606 854 l 1,25,-1
 623 1333 l 2,26,27
 624 1361 624 1361 636 1384.5 c 128,-1,28
 648 1408 648 1408 668 1425 c 128,-1,29
 688 1442 688 1442 713 1452 c 128,-1,30
 738 1462 738 1462 764 1462 c 0,31,32
 809 1462 809 1462 835.5 1440 c 128,-1,33
 862 1418 862 1418 862 1370 c 0,17,18
EndSplineSet
EndChar

StartChar: numbersign
Encoding: 35 35 6
Width: 1518
Flags: W
LayerCount: 2
Fore
SplineSet
678 848 m 1,0,-1
 588 578 l 1,1,-1
 842 578 l 1,2,-1
 936 848 l 1,3,-1
 678 848 l 1,0,-1
1079 848 m 1,4,-1
 991 578 l 1,5,-1
 1309 578 l 1,6,-1
 1309 449 l 1,7,-1
 946 449 l 1,8,-1
 791 -49 l 1,9,-1
 649 -14 l 1,10,-1
 801 449 l 1,11,-1
 545 449 l 1,12,-1
 385 -49 l 1,13,-1
 248 -12 l 1,14,-1
 401 449 l 1,15,-1
 127 449 l 1,16,-1
 127 578 l 1,17,-1
 442 578 l 1,18,-1
 530 848 l 1,19,-1
 227 848 l 1,20,-1
 227 983 l 1,21,-1
 573 983 l 1,22,-1
 731 1454 l 1,23,-1
 868 1417 l 1,24,-1
 717 983 l 1,25,-1
 983 983 l 1,26,-1
 1135 1454 l 1,27,-1
 1276 1415 l 1,28,-1
 1122 983 l 1,29,-1
 1391 983 l 1,30,-1
 1391 848 l 1,31,-1
 1079 848 l 1,4,-1
EndSplineSet
EndChar

StartChar: dollar
Encoding: 36 36 7
Width: 1225
Flags: W
LayerCount: 2
Fore
SplineSet
1133 967 m 1,0,-1
 991 967 l 1,1,-1
 995 1182 l 1,2,3
 997 1194 997 1194 992 1198.5 c 128,-1,4
 987 1203 987 1203 979 1206 c 0,5,6
 964 1213 964 1213 940 1219.5 c 128,-1,7
 916 1226 916 1226 892 1231.5 c 128,-1,8
 868 1237 868 1237 847 1240 c 128,-1,9
 826 1243 826 1243 817 1243 c 1,10,-1
 733 821 l 1,11,12
 765 812 765 812 808 798.5 c 128,-1,13
 851 785 851 785 896 764.5 c 128,-1,14
 941 744 941 744 983.5 714.5 c 128,-1,15
 1026 685 1026 685 1055.5 643.5 c 128,-1,16
 1085 602 1085 602 1097.5 547 c 128,-1,17
 1110 492 1110 492 1096 420 c 0,18,19
 1079 332 1079 332 1032.5 261 c 128,-1,20
 986 190 986 190 917 137 c 128,-1,21
 848 84 848 84 759.5 50 c 128,-1,22
 671 16 671 16 571 2 c 1,23,-1
 530 -209 l 1,24,-1
 410 -209 l 1,25,-1
 451 0 l 1,26,27
 379 3 379 3 308 12 c 0,28,29
 246 20 246 20 175.5 33 c 128,-1,30
 105 46 105 46 43 68 c 1,31,-1
 113 422 l 1,32,-1
 260 422 l 1,33,-1
 254 201 l 1,34,-1
 254 187 l 2,35,36
 254 183 254 183 255.5 181 c 128,-1,37
 257 179 257 179 260 177.5 c 128,-1,38
 263 176 263 176 270 172 c 0,39,40
 299 155 299 155 334.5 146.5 c 128,-1,41
 370 138 370 138 402 133 c 0,42,43
 438 128 438 128 475 127 c 1,44,-1
 563 578 l 1,45,46
 527 589 527 589 485 604 c 128,-1,47
 443 619 443 619 402 640 c 128,-1,48
 361 661 361 661 325 690.5 c 128,-1,49
 289 720 289 720 264.5 760.5 c 128,-1,50
 240 801 240 801 231 854.5 c 128,-1,51
 222 908 222 908 236 977 c 1,52,53
 249 1047 249 1047 277.5 1101 c 128,-1,54
 306 1155 306 1155 342.5 1196 c 128,-1,55
 379 1237 379 1237 421.5 1265.5 c 128,-1,56
 464 1294 464 1294 506 1313 c 0,57,58
 605 1358 605 1358 721 1368 c 1,59,-1
 752 1520 l 1,60,-1
 872 1520 l 1,61,-1
 842 1368 l 1,62,63
 905 1368 905 1368 968.5 1358.5 c 128,-1,64
 1032 1349 1032 1349 1084 1338 c 0,65,66
 1144 1325 1144 1325 1200 1309 c 1,67,-1
 1133 967 l 1,0,-1
821 346 m 0,68,69
 831 397 831 397 819.5 432 c 128,-1,70
 808 467 808 467 785 490 c 128,-1,71
 762 513 762 513 733 526.5 c 128,-1,72
 704 540 704 540 680 547 c 1,73,-1
 598 133 l 1,74,75
 650 140 650 140 695 165 c 0,76,77
 714 175 714 175 733.5 191 c 128,-1,78
 753 207 753 207 770 228.5 c 128,-1,79
 787 250 787 250 800 279 c 128,-1,80
 813 308 813 308 821 346 c 0,68,69
694 1237 m 1,81,82
 652 1231 652 1231 615 1210 c 0,83,84
 583 1191 583 1191 553 1154 c 128,-1,85
 523 1117 523 1117 510 1051 c 0,86,87
 504 1020 504 1020 505 994.5 c 128,-1,88
 506 969 506 969 513 949 c 128,-1,89
 520 929 520 929 530 914 c 128,-1,90
 540 899 540 899 552 888 c 0,91,92
 579 862 579 862 618 850 c 1,93,-1
 694 1237 l 1,81,82
EndSplineSet
EndChar

StartChar: percent
Encoding: 37 37 8
Width: 1843
Flags: W
LayerCount: 2
Fore
SplineSet
655 1165 m 0,0,1
 655 1187 655 1187 652 1213 c 128,-1,2
 649 1239 649 1239 640 1260.5 c 128,-1,3
 631 1282 631 1282 614 1296.5 c 128,-1,4
 597 1311 597 1311 569 1311 c 0,5,6
 527 1311 527 1311 494 1282.5 c 128,-1,7
 461 1254 461 1254 435.5 1208.5 c 128,-1,8
 410 1163 410 1163 392.5 1106.5 c 128,-1,9
 375 1050 375 1050 363.5 994.5 c 128,-1,10
 352 939 352 939 347 890 c 128,-1,11
 342 841 342 841 342 811 c 0,12,13
 342 786 342 786 345 757 c 128,-1,14
 348 728 348 728 358.5 703 c 128,-1,15
 369 678 369 678 387.5 661.5 c 128,-1,16
 406 645 406 645 438 645 c 0,17,18
 477 645 477 645 508.5 675.5 c 128,-1,19
 540 706 540 706 564.5 754.5 c 128,-1,20
 589 803 589 803 606 862.5 c 128,-1,21
 623 922 623 922 634 979.5 c 128,-1,22
 645 1037 645 1037 650 1087 c 128,-1,23
 655 1137 655 1137 655 1165 c 0,0,1
1548 584 m 0,24,25
 1548 605 1548 605 1545 630 c 128,-1,26
 1542 655 1542 655 1533 676.5 c 128,-1,27
 1524 698 1524 698 1507 712.5 c 128,-1,28
 1490 727 1490 727 1462 727 c 0,29,30
 1420 727 1420 727 1387.5 698 c 128,-1,31
 1355 669 1355 669 1330 623.5 c 128,-1,32
 1305 578 1305 578 1287.5 521 c 128,-1,33
 1270 464 1270 464 1258.5 408 c 128,-1,34
 1247 352 1247 352 1242 303 c 128,-1,35
 1237 254 1237 254 1237 223 c 0,36,37
 1237 199 1237 199 1240 171 c 128,-1,38
 1243 143 1243 143 1253 119 c 128,-1,39
 1263 95 1263 95 1281.5 79 c 128,-1,40
 1300 63 1300 63 1331 63 c 0,41,42
 1371 63 1371 63 1402.5 93.5 c 128,-1,43
 1434 124 1434 124 1458 172 c 128,-1,44
 1482 220 1482 220 1499.5 279.5 c 128,-1,45
 1517 339 1517 339 1527.5 397 c 128,-1,46
 1538 455 1538 455 1543 505 c 128,-1,47
 1548 555 1548 555 1548 584 c 0,24,25
868 1118 m 0,48,49
 868 1050 868 1050 856 982 c 128,-1,50
 844 914 844 914 819.5 850.5 c 128,-1,51
 795 787 795 787 758 732 c 128,-1,52
 721 677 721 677 671.5 636.5 c 128,-1,53
 622 596 622 596 559 572.5 c 128,-1,54
 496 549 496 549 420 549 c 0,55,56
 278 549 278 549 207.5 625 c 128,-1,57
 137 701 137 701 137 840 c 0,58,59
 137 941 137 941 164.5 1042.5 c 128,-1,60
 192 1144 192 1144 248 1225 c 128,-1,61
 304 1306 304 1306 389 1356.5 c 128,-1,62
 474 1407 474 1407 588 1407 c 0,63,64
 728 1407 728 1407 798 1332.5 c 128,-1,65
 868 1258 868 1258 868 1118 c 0,48,49
463 0 m 1,66,-1
 315 0 l 1,67,-1
 1438 1374 l 1,68,-1
 1587 1374 l 1,69,-1
 463 0 l 1,66,-1
1763 535 m 0,70,71
 1763 467 1763 467 1751 398.5 c 128,-1,72
 1739 330 1739 330 1714.5 266.5 c 128,-1,73
 1690 203 1690 203 1652.5 148.5 c 128,-1,74
 1615 94 1615 94 1565 53.5 c 128,-1,75
 1515 13 1515 13 1452 -10 c 128,-1,76
 1389 -33 1389 -33 1313 -33 c 0,77,78
 1172 -33 1172 -33 1103 41 c 128,-1,79
 1034 115 1034 115 1034 254 c 0,80,81
 1034 321 1034 321 1046 389.5 c 128,-1,82
 1058 458 1058 458 1082 521.5 c 128,-1,83
 1106 585 1106 585 1143 640 c 128,-1,84
 1180 695 1180 695 1230 735.5 c 128,-1,85
 1280 776 1280 776 1343 799.5 c 128,-1,86
 1406 823 1406 823 1483 823 c 0,87,88
 1623 823 1623 823 1693 748.5 c 128,-1,89
 1763 674 1763 674 1763 535 c 0,70,71
EndSplineSet
EndChar

StartChar: glyph9
Encoding: 38 38 9
Width: 1526
Flags: W
LayerCount: 2
Fore
SplineSet
463 633 m 1,0,1
 398 582 398 582 362 520 c 128,-1,2
 326 458 326 458 326 381 c 0,3,4
 326 318 326 318 347.5 270.5 c 128,-1,5
 369 223 369 223 401 191 c 128,-1,6
 433 159 433 159 469.5 143 c 128,-1,7
 506 127 506 127 537 127 c 0,8,9
 569 127 569 127 596 133 c 128,-1,10
 623 139 623 139 649.5 151 c 128,-1,11
 676 163 676 163 705 182 c 128,-1,12
 734 201 734 201 770 227 c 1,13,-1
 463 633 l 1,0,1
836 1108 m 0,14,15
 836 1141 836 1141 831.5 1172 c 128,-1,16
 827 1203 827 1203 814.5 1227 c 128,-1,17
 802 1251 802 1251 780 1265.5 c 128,-1,18
 758 1280 758 1280 723 1280 c 0,19,20
 705 1280 705 1280 673.5 1269 c 128,-1,21
 642 1258 642 1258 611.5 1233 c 128,-1,22
 581 1208 581 1208 558 1167 c 128,-1,23
 535 1126 535 1126 535 1067 c 0,24,25
 535 1035 535 1035 542.5 1003.5 c 128,-1,26
 550 972 550 972 562.5 942 c 128,-1,27
 575 912 575 912 592 884 c 128,-1,28
 609 856 609 856 627 831 c 1,29,30
 674 853 674 853 712.5 880.5 c 128,-1,31
 751 908 751 908 778.5 941.5 c 128,-1,32
 806 975 806 975 821 1016 c 128,-1,33
 836 1057 836 1057 836 1108 c 0,14,15
1309 625 m 1,34,35
 1265 537 1265 537 1200.5 444 c 128,-1,36
 1136 351 1136 351 1059 270 c 1,37,38
 1096 222 1096 222 1130 191 c 128,-1,39
 1164 160 1164 160 1202.5 142 c 128,-1,40
 1241 124 1241 124 1286.5 117.5 c 128,-1,41
 1332 111 1332 111 1391 111 c 1,42,-1
 1391 4 l 1,43,44
 1317 1 1317 1 1276 -2 c 128,-1,45
 1235 -5 1235 -5 1206 -6 c 1,46,47
 1128 -12 1128 -12 1051 0 c 1,48,49
 1000 11 1000 11 957.5 36 c 128,-1,50
 915 61 915 61 870 109 c 1,51,52
 830 82 830 82 784.5 58 c 128,-1,53
 739 34 739 34 685 16 c 128,-1,54
 631 -2 631 -2 568.5 -12.5 c 128,-1,55
 506 -23 506 -23 432 -23 c 0,56,57
 336 -23 336 -23 260.5 2.5 c 128,-1,58
 185 28 185 28 132.5 73.5 c 128,-1,59
 80 119 80 119 52.5 182.5 c 128,-1,60
 25 246 25 246 25 322 c 0,61,62
 25 397 25 397 52.5 459.5 c 128,-1,63
 80 522 80 522 127 575 c 128,-1,64
 174 628 174 628 238 672 c 128,-1,65
 302 716 302 716 375 754 c 1,66,67
 328 817 328 817 297 879.5 c 128,-1,68
 266 942 266 942 266 1014 c 0,69,70
 266 1093 266 1093 300 1163.5 c 128,-1,71
 334 1234 334 1234 398.5 1286.5 c 128,-1,72
 463 1339 463 1339 555 1370 c 128,-1,73
 647 1401 647 1401 764 1401 c 0,74,75
 851 1401 851 1401 917.5 1377.5 c 128,-1,76
 984 1354 984 1354 1028.5 1315 c 128,-1,77
 1073 1276 1073 1276 1095.5 1226 c 128,-1,78
 1118 1176 1118 1176 1118 1124 c 0,79,80
 1118 1052 1118 1052 1088 993.5 c 128,-1,81
 1058 935 1058 935 1003.5 887 c 128,-1,82
 949 839 949 839 873.5 800.5 c 128,-1,83
 798 762 798 762 707 731 c 1,84,-1
 952 414 l 1,85,86
 989 462 989 462 1018 512 c 128,-1,87
 1047 562 1047 562 1067 602 c 0,88,89
 1069 605 1069 605 1067 613 c 128,-1,90
 1065 621 1065 621 1063 621 c 2,91,-1
 942 641 l 1,92,-1
 942 752 l 1,93,-1
 1460 752 l 1,94,-1
 1460 641 l 1,95,-1
 1309 625 l 1,34,35
EndSplineSet
EndChar

StartChar: quotesingle
Encoding: 39 39 10
Width: 358
Flags: W
LayerCount: 2
Fore
SplineSet
461 1370 m 0,0,1
 461 1354 461 1354 450 1315.5 c 128,-1,2
 439 1277 439 1277 421.5 1226.5 c 128,-1,3
 404 1176 404 1176 382.5 1119.5 c 128,-1,4
 361 1063 361 1063 341 1011.5 c 128,-1,5
 321 960 321 960 304.5 918 c 128,-1,6
 288 876 288 876 281 854 c 1,7,-1
 205 854 l 1,8,-1
 219 1333 l 2,9,10
 220 1361 220 1361 233 1384.5 c 128,-1,11
 246 1408 246 1408 266 1425 c 128,-1,12
 286 1442 286 1442 311 1452 c 128,-1,13
 336 1462 336 1462 362 1462 c 0,14,15
 407 1462 407 1462 434 1440 c 128,-1,16
 461 1418 461 1418 461 1370 c 0,0,1
EndSplineSet
EndChar

StartChar: parenleft
Encoding: 40 40 11
Width: 868
Flags: W
LayerCount: 2
Fore
SplineSet
944 1358 m 1,0,1
 866 1348 866 1348 801.5 1307.5 c 128,-1,2
 737 1267 737 1267 683.5 1205 c 128,-1,3
 630 1143 630 1143 587.5 1063 c 128,-1,4
 545 983 545 983 513 893.5 c 128,-1,5
 481 804 481 804 458 710 c 128,-1,6
 435 616 435 616 420.5 524.5 c 128,-1,7
 406 433 406 433 399.5 349.5 c 128,-1,8
 393 266 393 266 393 199 c 256,9,10
 393 132 393 132 403 68 c 128,-1,11
 413 4 413 4 440.5 -48 c 128,-1,12
 468 -100 468 -100 516.5 -135 c 128,-1,13
 565 -170 565 -170 641 -180 c 1,14,-1
 618 -291 l 1,15,16
 489 -288 489 -288 399 -242.5 c 128,-1,17
 309 -197 309 -197 252.5 -120.5 c 128,-1,18
 196 -44 196 -44 170.5 58.5 c 128,-1,19
 145 161 145 161 145 279 c 0,20,21
 145 401 145 401 166 535 c 128,-1,22
 187 669 187 669 230 800 c 128,-1,23
 273 931 273 931 339.5 1050 c 128,-1,24
 406 1169 406 1169 497 1260.5 c 128,-1,25
 588 1352 588 1352 705.5 1408 c 128,-1,26
 823 1464 823 1464 967 1468 c 1,27,-1
 944 1358 l 1,0,1
EndSplineSet
EndChar

StartChar: parenright
Encoding: 41 41 12
Width: 868
Flags: W
LayerCount: 2
Fore
SplineSet
723 899 m 0,0,1
 723 778 723 778 702.5 644 c 128,-1,2
 682 510 682 510 638.5 379 c 128,-1,3
 595 248 595 248 529 128.5 c 128,-1,4
 463 9 463 9 371.5 -83 c 128,-1,5
 280 -175 280 -175 163 -231 c 128,-1,6
 46 -287 46 -287 -98 -291 c 1,7,-1
 -78 -180 l 1,8,9
 0 -170 0 -170 65 -129.5 c 128,-1,10
 130 -89 130 -89 183 -26.5 c 128,-1,11
 236 36 236 36 278.5 116.5 c 128,-1,12
 321 197 321 197 353.5 286.5 c 128,-1,13
 386 376 386 376 409 470.5 c 128,-1,14
 432 565 432 565 446.5 656 c 128,-1,15
 461 747 461 747 468 830.5 c 128,-1,16
 475 914 475 914 475 981 c 256,17,18
 475 1048 475 1048 465 1111.5 c 128,-1,19
 455 1175 455 1175 427.5 1226.5 c 128,-1,20
 400 1278 400 1278 351.5 1313 c 128,-1,21
 303 1348 303 1348 227 1358 c 1,22,-1
 250 1468 l 1,23,24
 378 1464 378 1464 468 1419 c 128,-1,25
 558 1374 558 1374 614.5 1298 c 128,-1,26
 671 1222 671 1222 697 1119.5 c 128,-1,27
 723 1017 723 1017 723 899 c 0,0,1
EndSplineSet
EndChar

StartChar: asterisk
Encoding: 42 42 13
Width: 1024
Flags: W
LayerCount: 2
Fore
SplineSet
549 733 m 1,0,-1
 391 692 l 1,1,-1
 385 852 l 1,2,-1
 604 1012 l 1,3,-1
 631 987 l 1,4,-1
 549 733 l 1,0,-1
594 1038 m 1,5,-1
 328 1036 l 1,6,-1
 240 1169 l 1,7,-1
 385 1229 l 1,8,-1
 604 1067 l 1,9,-1
 594 1038 l 1,5,-1
893 692 m 1,10,-1
 735 733 l 1,11,-1
 653 987 l 1,12,-1
 680 1012 l 1,13,-1
 897 852 l 1,14,-1
 893 692 l 1,10,-1
657 1092 m 1,15,-1
 625 1092 l 1,16,-1
 541 1348 l 1,17,-1
 641 1470 l 1,18,-1
 743 1348 l 1,19,-1
 657 1092 l 1,15,-1
954 1036 m 1,20,-1
 690 1038 l 1,21,-1
 678 1069 l 1,22,-1
 895 1229 l 1,23,-1
 1044 1169 l 1,24,-1
 954 1036 l 1,20,-1
EndSplineSet
EndChar

StartChar: plus
Encoding: 43 43 14
Width: 2048
Flags: W
LayerCount: 2
Fore
SplineSet
1087 551 m 1,0,-1
 1087 0 l 1,1,-1
 961 0 l 1,2,-1
 961 551 l 1,3,-1
 410 551 l 1,4,-1
 410 678 l 1,5,-1
 961 678 l 1,6,-1
 961 1229 l 1,7,-1
 1087 1229 l 1,8,-1
 1087 678 l 1,9,-1
 1638 678 l 1,10,-1
 1638 551 l 1,11,-1
 1087 551 l 1,0,-1
EndSplineSet
EndChar

StartChar: comma
Encoding: 44 44 15
Width: 657
Flags: W
LayerCount: 2
Fore
SplineSet
410 172 m 0,0,1
 410 112 410 112 387.5 51 c 128,-1,2
 365 -10 365 -10 326 -68 c 128,-1,3
 287 -126 287 -126 235.5 -177.5 c 128,-1,4
 184 -229 184 -229 126 -268 c 128,-1,5
 68 -307 68 -307 6.5 -331.5 c 128,-1,6
 -55 -356 -55 -356 -113 -360 c 1,7,-1
 -94 -260 l 1,8,9
 -37 -252 -37 -252 13.5 -230 c 128,-1,10
 64 -208 64 -208 104 -173.5 c 128,-1,11
 144 -139 144 -139 171 -92 c 128,-1,12
 198 -45 198 -45 207 14 c 1,13,-1
 82 14 l 1,14,15
 62 33 62 33 51.5 58 c 128,-1,16
 41 83 41 83 41 111 c 0,17,18
 41 152 41 152 58.5 189.5 c 128,-1,19
 76 227 76 227 105 255.5 c 128,-1,20
 134 284 134 284 172 300.5 c 128,-1,21
 210 317 210 317 252 317 c 0,22,23
 321 317 321 317 365.5 281.5 c 128,-1,24
 410 246 410 246 410 172 c 0,0,1
EndSplineSet
EndChar

StartChar: hyphen
Encoding: 45 45 16
Width: 713
Flags: W
LayerCount: 2
Fore
SplineSet
598 385 m 1,0,-1
 61 385 l 1,1,-1
 104 602 l 1,2,-1
 641 602 l 1,3,-1
 598 385 l 1,0,-1
EndSplineSet
EndChar

StartChar: period
Encoding: 46 46 17
Width: 651
Flags: W
LayerCount: 2
Fore
SplineSet
391 145 m 0,0,1
 391 110 391 110 377.5 79 c 128,-1,2
 364 48 364 48 341 25 c 128,-1,3
 318 2 318 2 287 -11.5 c 128,-1,4
 256 -25 256 -25 221 -25 c 256,5,6
 186 -25 186 -25 154.5 -11.5 c 128,-1,7
 123 2 123 2 99.5 25 c 128,-1,8
 76 48 76 48 62.5 79 c 128,-1,9
 49 110 49 110 49 145 c 0,10,11
 49 181 49 181 62.5 212 c 128,-1,12
 76 243 76 243 99.5 266.5 c 128,-1,13
 123 290 123 290 154.5 303.5 c 128,-1,14
 186 317 186 317 221 317 c 256,15,16
 256 317 256 317 287 303.5 c 128,-1,17
 318 290 318 290 341 266.5 c 128,-1,18
 364 243 364 243 377.5 212 c 128,-1,19
 391 181 391 181 391 145 c 0,0,1
EndSplineSet
EndChar

StartChar: slash
Encoding: 47 47 18
Width: 1026
Flags: W
LayerCount: 2
Fore
SplineSet
160 -190 m 1,0,-1
 0 -190 l 1,1,-1
 864 1374 l 1,2,-1
 1026 1374 l 1,3,-1
 160 -190 l 1,0,-1
EndSplineSet
EndChar

StartChar: zero
Encoding: 48 48 19
Width: 1225
Flags: W
LayerCount: 2
Fore
SplineSet
907 979 m 0,0,1
 907 1065 907 1065 891 1123 c 128,-1,2
 875 1181 875 1181 851.5 1216.5 c 128,-1,3
 828 1252 828 1252 802.5 1267 c 128,-1,4
 777 1282 777 1282 758 1282 c 0,5,6
 709 1282 709 1282 661.5 1243.5 c 128,-1,7
 614 1205 614 1205 572 1139 c 128,-1,8
 530 1073 530 1073 494.5 985.5 c 128,-1,9
 459 898 459 898 433.5 799.5 c 128,-1,10
 408 701 408 701 393.5 597.5 c 128,-1,11
 379 494 379 494 379 397 c 0,12,13
 379 326 379 326 389 276 c 128,-1,14
 399 226 399 226 414 192.5 c 128,-1,15
 429 159 429 159 447 139 c 128,-1,16
 465 119 465 119 482 109 c 128,-1,17
 499 99 499 99 512 96.5 c 128,-1,18
 525 94 525 94 530 94 c 0,19,20
 576 94 576 94 622 132.5 c 128,-1,21
 668 171 668 171 710 236.5 c 128,-1,22
 752 302 752 302 788 389.5 c 128,-1,23
 824 477 824 477 850.5 575 c 128,-1,24
 877 673 877 673 892 777 c 128,-1,25
 907 881 907 881 907 979 c 0,0,1
1214 942 m 0,26,27
 1214 826 1214 826 1194 709 c 128,-1,28
 1174 592 1174 592 1134 483.5 c 128,-1,29
 1094 375 1094 375 1035 281 c 128,-1,30
 976 187 976 187 897.5 117 c 128,-1,31
 819 47 819 47 722 7 c 128,-1,32
 625 -33 625 -33 510 -33 c 0,33,34
 394 -33 394 -33 311 0 c 128,-1,35
 228 33 228 33 174.5 94 c 128,-1,36
 121 155 121 155 95.5 240.5 c 128,-1,37
 70 326 70 326 70 430 c 256,38,39
 70 534 70 534 88 647 c 128,-1,40
 106 760 106 760 143 868.5 c 128,-1,41
 180 977 180 977 237 1074.5 c 128,-1,42
 294 1172 294 1172 372.5 1246 c 128,-1,43
 451 1320 451 1320 552 1363.5 c 128,-1,44
 653 1407 653 1407 778 1407 c 0,45,46
 900 1407 900 1407 983.5 1369 c 128,-1,47
 1067 1331 1067 1331 1118 1267.5 c 128,-1,48
 1169 1204 1169 1204 1191.5 1119.5 c 128,-1,49
 1214 1035 1214 1035 1214 942 c 0,26,27
EndSplineSet
EndChar

StartChar: one
Encoding: 49 49 20
Width: 1225
Flags: W
LayerCount: 2
Fore
SplineSet
709 156 m 2,0,1
 706 143 706 143 717.5 136 c 128,-1,2
 729 129 729 129 748 127 c 2,3,-1
 901 113 l 1,4,-1
 901 0 l 1,5,-1
 172 0 l 1,6,-1
 172 115 l 1,7,-1
 383 127 l 2,8,9
 395 127 395 127 405.5 136 c 128,-1,10
 416 145 416 145 418 156 c 2,11,-1
 623 1194 l 1,12,-1
 305 1151 l 1,13,-1
 305 1266 l 1,14,-1
 815 1407 l 1,15,-1
 954 1407 l 1,16,-1
 709 156 l 2,0,1
EndSplineSet
EndChar

StartChar: two
Encoding: 50 50 21
Width: 1225
Flags: W
LayerCount: 2
Fore
SplineSet
1182 1096 m 0,0,1
 1182 1026 1182 1026 1157.5 957.5 c 128,-1,2
 1133 889 1133 889 1090 823 c 128,-1,3
 1047 757 1047 757 989.5 694 c 128,-1,4
 932 631 932 631 866 573 c 0,5,6
 755 476 755 476 618 381 c 128,-1,7
 481 286 481 286 342 190 c 1,8,-1
 864 190 l 1,9,-1
 934 360 l 1,10,-1
 1092 360 l 1,11,-1
 1024 0 l 1,12,-1
 -43 0 l 1,13,-1
 -16 145 l 1,14,15
 207 301 207 301 371.5 424 c 128,-1,16
 536 547 536 547 644.5 654 c 128,-1,17
 753 761 753 761 806.5 861 c 128,-1,18
 860 961 860 961 860 1071 c 0,19,20
 860 1131 860 1131 843 1170.5 c 128,-1,21
 826 1210 826 1210 801 1233.5 c 128,-1,22
 776 1257 776 1257 747 1266.5 c 128,-1,23
 718 1276 718 1276 694 1276 c 0,24,25
 672 1276 672 1276 650 1271.5 c 128,-1,26
 628 1267 628 1267 608.5 1261 c 128,-1,27
 589 1255 589 1255 573 1248 c 128,-1,28
 557 1241 557 1241 547 1237 c 1,29,-1
 506 1024 l 1,30,31
 496 1018 496 1018 486 1008.5 c 128,-1,32
 476 999 476 999 461 990.5 c 128,-1,33
 446 982 446 982 423.5 975.5 c 128,-1,34
 401 969 401 969 367 969 c 0,35,36
 331 969 331 969 302.5 979.5 c 128,-1,37
 274 990 274 990 253.5 1007.5 c 128,-1,38
 233 1025 233 1025 222 1048.5 c 128,-1,39
 211 1072 211 1072 211 1098 c 0,40,41
 211 1168 211 1168 251 1225.5 c 128,-1,42
 291 1283 291 1283 364 1323 c 128,-1,43
 437 1363 437 1363 537.5 1385 c 128,-1,44
 638 1407 638 1407 760 1407 c 0,45,46
 859 1407 859 1407 937.5 1388 c 128,-1,47
 1016 1369 1016 1369 1070 1330.5 c 128,-1,48
 1124 1292 1124 1292 1153 1233.5 c 128,-1,49
 1182 1175 1182 1175 1182 1096 c 0,0,1
EndSplineSet
EndChar

StartChar: three
Encoding: 51 51 22
Width: 1225
Flags: W
LayerCount: 2
Fore
SplineSet
1178 1110 m 0,0,1
 1178 1059 1178 1059 1157 1005.5 c 128,-1,2
 1136 952 1136 952 1092 902.5 c 128,-1,3
 1048 853 1048 853 979.5 809.5 c 128,-1,4
 911 766 911 766 817 735 c 1,5,6
 951 709 951 709 1022.5 645.5 c 128,-1,7
 1094 582 1094 582 1094 471 c 0,8,9
 1094 408 1094 408 1073 346.5 c 128,-1,10
 1052 285 1052 285 1012.5 229 c 128,-1,11
 973 173 973 173 915.5 125 c 128,-1,12
 858 77 858 77 784.5 42 c 128,-1,13
 711 7 711 7 622 -13 c 128,-1,14
 533 -33 533 -33 432 -33 c 0,15,16
 321 -33 321 -33 243.5 -10 c 128,-1,17
 166 13 166 13 117 48 c 128,-1,18
 68 83 68 83 45.5 124 c 128,-1,19
 23 165 23 165 23 201 c 0,20,21
 23 216 23 216 33 241 c 128,-1,22
 43 266 43 266 63 290 c 128,-1,23
 83 314 83 314 112.5 331 c 128,-1,24
 142 348 142 348 182 348 c 0,25,26
 206 348 206 348 224 342.5 c 128,-1,27
 242 337 242 337 256.5 329 c 128,-1,28
 271 321 271 321 282 313 c 128,-1,29
 293 305 293 305 303 301 c 1,30,-1
 336 129 l 1,31,32
 342 125 342 125 355.5 119 c 128,-1,33
 369 113 369 113 386.5 107 c 128,-1,34
 404 101 404 101 422.5 96.5 c 128,-1,35
 441 92 441 92 457 92 c 0,36,37
 511 92 511 92 567.5 117.5 c 128,-1,38
 624 143 624 143 671 189 c 128,-1,39
 718 235 718 235 748 299.5 c 128,-1,40
 778 364 778 364 778 442 c 0,41,42
 778 490 778 490 766 524 c 128,-1,43
 754 558 754 558 735.5 581 c 128,-1,44
 717 604 717 604 694.5 617.5 c 128,-1,45
 672 631 672 631 651.5 638 c 128,-1,46
 631 645 631 645 615 647 c 128,-1,47
 599 649 599 649 594 649 c 0,48,49
 579 649 579 649 564 648 c 128,-1,50
 549 647 549 647 528 644 c 128,-1,51
 507 641 507 641 477 636.5 c 128,-1,52
 447 632 447 632 403 625 c 1,53,-1
 426 784 l 1,54,55
 520 779 520 779 599 798 c 128,-1,56
 678 817 678 817 735.5 856 c 128,-1,57
 793 895 793 895 825.5 952.5 c 128,-1,58
 858 1010 858 1010 858 1083 c 0,59,60
 858 1144 858 1144 836.5 1183 c 128,-1,61
 815 1222 815 1222 787 1244 c 128,-1,62
 759 1266 759 1266 732.5 1274 c 128,-1,63
 706 1282 706 1282 696 1282 c 0,64,65
 669 1282 669 1282 645 1276.5 c 128,-1,66
 621 1271 621 1271 602 1262.5 c 128,-1,67
 583 1254 583 1254 569 1245.5 c 128,-1,68
 555 1237 555 1237 547 1231 c 1,69,-1
 514 1036 l 1,70,71
 503 1031 503 1031 486 1024 c 128,-1,72
 469 1017 469 1017 449.5 1010 c 128,-1,73
 430 1003 430 1003 409.5 998 c 128,-1,74
 389 993 389 993 371 993 c 0,75,76
 348 993 348 993 323.5 1004 c 128,-1,77
 299 1015 299 1015 278.5 1034.5 c 128,-1,78
 258 1054 258 1054 244.5 1079 c 128,-1,79
 231 1104 231 1104 231 1133 c 0,80,81
 231 1193 231 1193 273 1243 c 128,-1,82
 315 1293 315 1293 387 1329.5 c 128,-1,83
 459 1366 459 1366 556 1386.5 c 128,-1,84
 653 1407 653 1407 764 1407 c 0,85,86
 872 1407 872 1407 950 1386 c 128,-1,87
 1028 1365 1028 1365 1078.5 1326 c 128,-1,88
 1129 1287 1129 1287 1153.5 1232 c 128,-1,89
 1178 1177 1178 1177 1178 1110 c 0,0,1
EndSplineSet
EndChar

StartChar: four
Encoding: 52 52 23
Width: 1225
Flags: W
LayerCount: 2
Fore
SplineSet
371 567 m 1,0,-1
 692 567 l 1,1,-1
 774 981 l 1,2,-1
 371 567 l 1,0,-1
1126 408 m 1,3,-1
 936 408 l 1,4,-1
 846 -55 l 1,5,-1
 567 -55 l 1,6,-1
 659 408 l 1,7,-1
 43 408 l 1,8,-1
 70 555 l 1,9,-1
 903 1407 l 1,10,-1
 1135 1407 l 1,11,-1
 971 567 l 1,12,-1
 1157 567 l 1,13,-1
 1126 408 l 1,3,-1
EndSplineSet
EndChar

StartChar: five
Encoding: 53 53 24
Width: 1225
Flags: W
LayerCount: 2
Fore
SplineSet
1163 1190 m 1,0,-1
 567 1190 l 1,1,-1
 496 836 l 1,2,3
 528 842 528 842 568.5 846 c 128,-1,4
 609 850 609 850 657 850 c 0,5,6
 746 850 746 850 824.5 831 c 128,-1,7
 903 812 903 812 961.5 771.5 c 128,-1,8
 1020 731 1020 731 1053.5 667 c 128,-1,9
 1087 603 1087 603 1087 512 c 0,10,11
 1087 406 1087 406 1037.5 307.5 c 128,-1,12
 988 209 988 209 898 133.5 c 128,-1,13
 808 58 808 58 682.5 12.5 c 128,-1,14
 557 -33 557 -33 406 -33 c 0,15,16
 307 -33 307 -33 234 -18 c 128,-1,17
 161 -3 161 -3 113.5 24 c 128,-1,18
 66 51 66 51 43 87.5 c 128,-1,19
 20 124 20 124 20 166 c 0,20,21
 20 193 20 193 33 220.5 c 128,-1,22
 46 248 46 248 68.5 269.5 c 128,-1,23
 91 291 91 291 122 305 c 128,-1,24
 153 319 153 319 190 319 c 0,25,26
 205 319 205 319 217.5 315 c 128,-1,27
 230 311 230 311 241.5 305.5 c 128,-1,28
 253 300 253 300 264 294.5 c 128,-1,29
 275 289 275 289 287 287 c 1,30,-1
 342 113 l 1,31,32
 348 111 348 111 362.5 108 c 128,-1,33
 377 105 377 105 393.5 101 c 128,-1,34
 410 97 410 97 426.5 94.5 c 128,-1,35
 443 92 443 92 453 92 c 0,36,37
 510 92 510 92 568.5 120.5 c 128,-1,38
 627 149 627 149 675 199 c 128,-1,39
 723 249 723 249 753.5 316 c 128,-1,40
 784 383 784 383 784 461 c 256,41,42
 784 539 784 539 754.5 587 c 128,-1,43
 725 635 725 635 681 661.5 c 128,-1,44
 637 688 637 688 584.5 697.5 c 128,-1,45
 532 707 532 707 487 707 c 0,46,47
 466 707 466 707 428.5 704 c 128,-1,48
 391 701 391 701 351 697.5 c 128,-1,49
 311 694 311 694 274.5 690 c 128,-1,50
 238 686 238 686 219 684 c 1,51,-1
 362 1374 l 1,52,-1
 1198 1374 l 1,53,-1
 1163 1190 l 1,0,-1
EndSplineSet
EndChar

StartChar: six
Encoding: 54 54 25
Width: 1225
Flags: W
LayerCount: 2
Fore
SplineSet
846 506 m 0,0,1
 846 575 846 575 830.5 626.5 c 128,-1,2
 815 678 815 678 787.5 712.5 c 128,-1,3
 760 747 760 747 723 764.5 c 128,-1,4
 686 782 686 782 643 782 c 0,5,6
 627 782 627 782 604.5 778.5 c 128,-1,7
 582 775 582 775 553.5 764.5 c 128,-1,8
 525 754 525 754 490 735.5 c 128,-1,9
 455 717 455 717 414 686 c 1,10,11
 411 675 411 675 404 645.5 c 128,-1,12
 397 616 397 616 390.5 578 c 128,-1,13
 384 540 384 540 378.5 498.5 c 128,-1,14
 373 457 373 457 373 422 c 0,15,16
 373 372 373 372 376 314 c 128,-1,17
 379 256 379 256 396.5 206 c 128,-1,18
 414 156 414 156 451.5 123 c 128,-1,19
 489 90 489 90 557 90 c 0,20,21
 601 90 601 90 651.5 121.5 c 128,-1,22
 702 153 702 153 745.5 208.5 c 128,-1,23
 789 264 789 264 817.5 340.5 c 128,-1,24
 846 417 846 417 846 506 c 0,0,1
1149 557 m 0,25,26
 1149 481 1149 481 1130 407.5 c 128,-1,27
 1111 334 1111 334 1074.5 268.5 c 128,-1,28
 1038 203 1038 203 985.5 147.5 c 128,-1,29
 933 92 933 92 866 52 c 128,-1,30
 799 12 799 12 718.5 -10.5 c 128,-1,31
 638 -33 638 -33 547 -33 c 0,32,33
 455 -33 455 -33 369.5 -10 c 128,-1,34
 284 13 284 13 217 68 c 128,-1,35
 150 123 150 123 110 215 c 128,-1,36
 70 307 70 307 70 444 c 0,37,38
 70 566 70 566 100.5 685 c 128,-1,39
 131 804 131 804 191 912.5 c 128,-1,40
 251 1021 251 1021 339.5 1115.5 c 128,-1,41
 428 1210 428 1210 545 1283.5 c 128,-1,42
 662 1357 662 1357 806.5 1406 c 128,-1,43
 951 1455 951 1455 1122 1473 c 1,44,-1
 1124 1339 l 1,45,46
 1003 1326 1003 1326 898 1287 c 128,-1,47
 793 1248 793 1248 708.5 1188 c 128,-1,48
 624 1128 624 1128 562 1049.5 c 128,-1,49
 500 971 500 971 465 881 c 1,50,51
 521 905 521 905 587 919.5 c 128,-1,52
 653 934 653 934 731 934 c 0,53,54
 833 934 833 934 911.5 906 c 128,-1,55
 990 878 990 878 1042.5 828 c 128,-1,56
 1095 778 1095 778 1122 709 c 128,-1,57
 1149 640 1149 640 1149 557 c 0,25,26
EndSplineSet
EndChar

StartChar: seven
Encoding: 55 55 26
Width: 1225
Flags: W
LayerCount: 2
Fore
SplineSet
1307 1276 m 1,0,-1
 375 -18 l 1,1,-1
 360 -76 l 1,2,-1
 66 -76 l 1,3,-1
 979 1190 l 1,4,-1
 422 1190 l 1,5,-1
 356 1008 l 1,6,-1
 190 1008 l 1,7,-1
 264 1374 l 1,8,-1
 1325 1374 l 1,9,-1
 1307 1276 l 1,0,-1
EndSplineSet
EndChar

StartChar: eight
Encoding: 56 56 27
Width: 1225
Flags: W
LayerCount: 2
Fore
SplineSet
815 377 m 0,0,1
 815 419 815 419 790.5 456 c 128,-1,2
 766 493 766 493 724.5 526 c 128,-1,3
 683 559 683 559 629 588.5 c 128,-1,4
 575 618 575 618 516 645 c 1,5,6
 474 620 474 620 438 588.5 c 128,-1,7
 402 557 402 557 376.5 519.5 c 128,-1,8
 351 482 351 482 336.5 438.5 c 128,-1,9
 322 395 322 395 322 344 c 256,10,11
 322 293 322 293 334.5 248.5 c 128,-1,12
 347 204 347 204 374 170.5 c 128,-1,13
 401 137 401 137 443.5 117.5 c 128,-1,14
 486 98 486 98 547 98 c 0,15,16
 592 98 592 98 639.5 120 c 128,-1,17
 687 142 687 142 726 180.5 c 128,-1,18
 765 219 765 219 790 269.5 c 128,-1,19
 815 320 815 320 815 377 c 0,0,1
891 1094 m 0,20,21
 891 1137 891 1137 883 1172.5 c 128,-1,22
 875 1208 875 1208 856.5 1233.5 c 128,-1,23
 838 1259 838 1259 808 1273.5 c 128,-1,24
 778 1288 778 1288 735 1288 c 0,25,26
 698 1288 698 1288 657 1268.5 c 128,-1,27
 616 1249 616 1249 581.5 1214 c 128,-1,28
 547 1179 547 1179 524.5 1129.5 c 128,-1,29
 502 1080 502 1080 502 1020 c 0,30,31
 502 983 502 983 517 952.5 c 128,-1,32
 532 922 532 922 559.5 895 c 128,-1,33
 587 868 587 868 626.5 844 c 128,-1,34
 666 820 666 820 715 797 c 1,35,36
 795 846 795 846 843 920.5 c 128,-1,37
 891 995 891 995 891 1094 c 0,20,21
1171 1112 m 0,38,39
 1171 1034 1171 1034 1147 975 c 128,-1,40
 1123 916 1123 916 1082 871 c 128,-1,41
 1041 826 1041 826 986 791.5 c 128,-1,42
 931 757 931 757 870 729 c 1,43,44
 911 711 911 711 955 685 c 128,-1,45
 999 659 999 659 1036 623 c 128,-1,46
 1073 587 1073 587 1096.5 540 c 128,-1,47
 1120 493 1120 493 1120 432 c 0,48,49
 1120 340 1120 340 1077 256 c 128,-1,50
 1034 172 1034 172 954.5 108 c 128,-1,51
 875 44 875 44 762.5 5.5 c 128,-1,52
 650 -33 650 -33 510 -33 c 0,53,54
 385 -33 385 -33 295 -6.5 c 128,-1,55
 205 20 205 20 146 66 c 128,-1,56
 87 112 87 112 59 174.5 c 128,-1,57
 31 237 31 237 31 309 c 0,58,59
 31 357 31 357 48 412 c 128,-1,60
 65 467 65 467 104.5 521.5 c 128,-1,61
 144 576 144 576 209.5 628.5 c 128,-1,62
 275 681 275 681 373 725 c 1,63,64
 322 753 322 753 290.5 785 c 128,-1,65
 259 817 259 817 241.5 849.5 c 128,-1,66
 224 882 224 882 217.5 914 c 128,-1,67
 211 946 211 946 211 975 c 0,68,69
 211 1056 211 1056 245 1133.5 c 128,-1,70
 279 1211 279 1211 346.5 1271.5 c 128,-1,71
 414 1332 414 1332 516 1369.5 c 128,-1,72
 618 1407 618 1407 754 1407 c 0,73,74
 867 1407 867 1407 946 1382.5 c 128,-1,75
 1025 1358 1025 1358 1075 1317 c 128,-1,76
 1125 1276 1125 1276 1148 1223 c 128,-1,77
 1171 1170 1171 1170 1171 1112 c 0,38,39
EndSplineSet
EndChar

StartChar: nine
Encoding: 57 57 28
Width: 1225
Flags: W
LayerCount: 2
Fore
SplineSet
924 971 m 0,0,1
 924 1073 924 1073 900 1135.5 c 128,-1,2
 876 1198 876 1198 844 1231.5 c 128,-1,3
 812 1265 812 1265 780 1276.5 c 128,-1,4
 748 1288 748 1288 731 1288 c 0,5,6
 684 1288 684 1288 633 1255.5 c 128,-1,7
 582 1223 582 1223 539.5 1166.5 c 128,-1,8
 497 1110 497 1110 469.5 1033 c 128,-1,9
 442 956 442 956 442 868 c 0,10,11
 442 791 442 791 465.5 739.5 c 128,-1,12
 489 688 489 688 521.5 657 c 128,-1,13
 554 626 554 626 587.5 613 c 128,-1,14
 621 600 621 600 641 600 c 0,15,16
 691 600 691 600 732.5 615 c 128,-1,17
 774 630 774 630 805 649.5 c 128,-1,18
 836 669 836 669 856.5 688 c 128,-1,19
 877 707 877 707 885 715 c 1,20,21
 897 780 897 780 910.5 843 c 128,-1,22
 924 906 924 906 924 971 c 0,0,1
1227 973 m 0,23,24
 1227 824 1227 824 1184 696 c 128,-1,25
 1141 568 1141 568 1065.5 459 c 128,-1,26
 990 350 990 350 887 260 c 128,-1,27
 784 170 784 170 664.5 97 c 128,-1,28
 545 24 545 24 413.5 -32 c 128,-1,29
 282 -88 282 -88 150 -129 c 1,30,-1
 94 -4 l 1,31,32
 198 36 198 36 292 80.5 c 128,-1,33
 386 125 386 125 472 183.5 c 128,-1,34
 558 242 558 242 636 319.5 c 128,-1,35
 714 397 714 397 786 502 c 1,36,37
 729 482 729 482 668.5 470.5 c 128,-1,38
 608 459 608 459 549 459 c 0,39,40
 465 459 465 459 389.5 480.5 c 128,-1,41
 314 502 314 502 257 547 c 128,-1,42
 200 592 200 592 166.5 661.5 c 128,-1,43
 133 731 133 731 133 827 c 0,44,45
 133 942 133 942 177.5 1047 c 128,-1,46
 222 1152 222 1152 304.5 1232 c 128,-1,47
 387 1312 387 1312 504 1359.5 c 128,-1,48
 621 1407 621 1407 766 1407 c 0,49,50
 814 1407 814 1407 867 1401 c 128,-1,51
 920 1395 920 1395 971 1377.5 c 128,-1,52
 1022 1360 1022 1360 1068.5 1330 c 128,-1,53
 1115 1300 1115 1300 1150 1251.5 c 128,-1,54
 1185 1203 1185 1203 1206 1134.5 c 128,-1,55
 1227 1066 1227 1066 1227 973 c 0,23,24
EndSplineSet
EndChar

StartChar: colon
Encoding: 58 58 29
Width: 651
Flags: W
LayerCount: 2
Fore
SplineSet
391 145 m 0,0,1
 391 110 391 110 377.5 79 c 128,-1,2
 364 48 364 48 341 25 c 128,-1,3
 318 2 318 2 287 -11.5 c 128,-1,4
 256 -25 256 -25 221 -25 c 256,5,6
 186 -25 186 -25 154.5 -11.5 c 128,-1,7
 123 2 123 2 99.5 25 c 128,-1,8
 76 48 76 48 62.5 79 c 128,-1,9
 49 110 49 110 49 145 c 0,10,11
 49 181 49 181 62.5 212 c 128,-1,12
 76 243 76 243 99.5 266.5 c 128,-1,13
 123 290 123 290 154.5 303.5 c 128,-1,14
 186 317 186 317 221 317 c 256,15,16
 256 317 256 317 287 303.5 c 128,-1,17
 318 290 318 290 341 266.5 c 128,-1,18
 364 243 364 243 377.5 212 c 128,-1,19
 391 181 391 181 391 145 c 0,0,1
530 848 m 256,20,21
 530 813 530 813 517 782 c 128,-1,22
 504 751 504 751 481 728 c 128,-1,23
 458 705 458 705 427 691.5 c 128,-1,24
 396 678 396 678 360 678 c 0,25,26
 325 678 325 678 293.5 691.5 c 128,-1,27
 262 705 262 705 238.5 728 c 128,-1,28
 215 751 215 751 201.5 782 c 128,-1,29
 188 813 188 813 188 848 c 256,30,31
 188 883 188 883 201.5 914.5 c 128,-1,32
 215 946 215 946 238.5 969.5 c 128,-1,33
 262 993 262 993 293.5 1006.5 c 128,-1,34
 325 1020 325 1020 360 1020 c 0,35,36
 396 1020 396 1020 427 1006.5 c 128,-1,37
 458 993 458 993 481 969.5 c 128,-1,38
 504 946 504 946 517 914.5 c 128,-1,39
 530 883 530 883 530 848 c 256,20,21
EndSplineSet
EndChar

StartChar: semicolon
Encoding: 59 59 30
Width: 651
Flags: W
LayerCount: 2
Fore
SplineSet
410 172 m 0,0,1
 410 112 410 112 387.5 51 c 128,-1,2
 365 -10 365 -10 326 -68 c 128,-1,3
 287 -126 287 -126 235.5 -177.5 c 128,-1,4
 184 -229 184 -229 126 -268 c 128,-1,5
 68 -307 68 -307 6.5 -331.5 c 128,-1,6
 -55 -356 -55 -356 -113 -360 c 1,7,-1
 -94 -260 l 1,8,9
 -37 -252 -37 -252 13.5 -230 c 128,-1,10
 64 -208 64 -208 104 -173.5 c 128,-1,11
 144 -139 144 -139 171 -92 c 128,-1,12
 198 -45 198 -45 207 14 c 1,13,-1
 82 14 l 1,14,15
 62 33 62 33 51.5 58 c 128,-1,16
 41 83 41 83 41 111 c 0,17,18
 41 152 41 152 58.5 189.5 c 128,-1,19
 76 227 76 227 105 255.5 c 128,-1,20
 134 284 134 284 172 300.5 c 128,-1,21
 210 317 210 317 252 317 c 0,22,23
 321 317 321 317 365.5 281.5 c 128,-1,24
 410 246 410 246 410 172 c 0,0,1
530 848 m 256,25,26
 530 813 530 813 517 782 c 128,-1,27
 504 751 504 751 481 728 c 128,-1,28
 458 705 458 705 427 691.5 c 128,-1,29
 396 678 396 678 360 678 c 0,30,31
 325 678 325 678 293.5 691.5 c 128,-1,32
 262 705 262 705 238.5 728 c 128,-1,33
 215 751 215 751 201.5 782 c 128,-1,34
 188 813 188 813 188 848 c 256,35,36
 188 883 188 883 201.5 914.5 c 128,-1,37
 215 946 215 946 238.5 969.5 c 128,-1,38
 262 993 262 993 293.5 1006.5 c 128,-1,39
 325 1020 325 1020 360 1020 c 0,40,41
 396 1020 396 1020 427 1006.5 c 128,-1,42
 458 993 458 993 481 969.5 c 128,-1,43
 504 946 504 946 517 914.5 c 128,-1,44
 530 883 530 883 530 848 c 256,25,26
EndSplineSet
EndChar

StartChar: less
Encoding: 60 60 31
Width: 2048
Flags: W
LayerCount: 2
Fore
SplineSet
410 551 m 1,0,-1
 410 678 l 1,1,-1
 1638 1149 l 1,2,-1
 1638 1022 l 1,3,-1
 541 614 l 1,4,-1
 1638 207 l 1,5,-1
 1638 80 l 1,6,-1
 410 551 l 1,0,-1
EndSplineSet
EndChar

StartChar: equal
Encoding: 61 61 32
Width: 2048
Flags: W
LayerCount: 2
Fore
SplineSet
410 365 m 1,0,-1
 410 492 l 1,1,-1
 1638 492 l 1,2,-1
 1638 365 l 1,3,-1
 410 365 l 1,0,-1
410 737 m 1,4,-1
 410 864 l 1,5,-1
 1638 864 l 1,6,-1
 1638 737 l 1,7,-1
 410 737 l 1,4,-1
EndSplineSet
EndChar

StartChar: greater
Encoding: 62 62 33
Width: 2048
Flags: W
LayerCount: 2
Fore
SplineSet
410 80 m 1,0,-1
 410 207 l 1,1,-1
 1507 614 l 1,2,-1
 410 1022 l 1,3,-1
 410 1149 l 1,4,-1
 1638 678 l 1,5,-1
 1638 551 l 1,6,-1
 410 80 l 1,0,-1
EndSplineSet
EndChar

StartChar: question
Encoding: 63 63 34
Width: 1096
Flags: W
LayerCount: 2
Fore
SplineSet
532 133 m 256,0,1
 532 99 532 99 518.5 70 c 128,-1,2
 505 41 505 41 482 20 c 128,-1,3
 459 -1 459 -1 429 -13 c 128,-1,4
 399 -25 399 -25 365 -25 c 256,5,6
 331 -25 331 -25 302.5 -11.5 c 128,-1,7
 274 2 274 2 253 25 c 128,-1,8
 232 48 232 48 220.5 78 c 128,-1,9
 209 108 209 108 209 141 c 0,10,11
 209 175 209 175 221 204.5 c 128,-1,12
 233 234 233 234 254 256.5 c 128,-1,13
 275 279 275 279 304 292 c 128,-1,14
 333 305 333 305 367 305 c 0,15,16
 403 305 403 305 433.5 291 c 128,-1,17
 464 277 464 277 485.5 253.5 c 128,-1,18
 507 230 507 230 519.5 198.5 c 128,-1,19
 532 167 532 167 532 133 c 256,0,1
1051 1094 m 0,20,21
 1051 1024 1051 1024 1028.5 962.5 c 128,-1,22
 1006 901 1006 901 966.5 848 c 128,-1,23
 927 795 927 795 874.5 751 c 128,-1,24
 822 707 822 707 762 673 c 128,-1,25
 702 639 702 639 638 615.5 c 128,-1,26
 574 592 574 592 512 580 c 1,27,-1
 477 406 l 1,28,-1
 338 406 l 1,29,-1
 391 678 l 1,30,31
 463 693 463 693 530.5 730 c 128,-1,32
 598 767 598 767 650 821 c 128,-1,33
 702 875 702 875 733 942.5 c 128,-1,34
 764 1010 764 1010 764 1087 c 0,35,36
 764 1139 764 1139 746.5 1176 c 128,-1,37
 729 1213 729 1213 699 1236.5 c 128,-1,38
 669 1260 669 1260 628.5 1271 c 128,-1,39
 588 1282 588 1282 541 1282 c 1,40,-1
 420 1047 l 2,41,42
 418 1045 418 1045 411 1042.5 c 128,-1,43
 404 1040 404 1040 396.5 1037.5 c 128,-1,44
 389 1035 389 1035 382.5 1033.5 c 128,-1,45
 376 1032 376 1032 375 1032 c 0,46,47
 349 1032 349 1032 321.5 1035.5 c 128,-1,48
 294 1039 294 1039 271.5 1050 c 128,-1,49
 249 1061 249 1061 234 1081 c 128,-1,50
 219 1101 219 1101 219 1133 c 0,51,52
 219 1183 219 1183 240 1222.5 c 128,-1,53
 261 1262 261 1262 296 1292.5 c 128,-1,54
 331 1323 331 1323 376.5 1345 c 128,-1,55
 422 1367 422 1367 470 1380.5 c 128,-1,56
 518 1394 518 1394 565.5 1400.5 c 128,-1,57
 613 1407 613 1407 653 1407 c 0,58,59
 727 1407 727 1407 798.5 1389.5 c 128,-1,60
 870 1372 870 1372 926 1334 c 128,-1,61
 982 1296 982 1296 1016.5 1237 c 128,-1,62
 1051 1178 1051 1178 1051 1094 c 0,20,21
EndSplineSet
EndChar

StartChar: at
Encoding: 64 64 35
Width: 1917
Flags: W
LayerCount: 2
Fore
SplineSet
1798 754 m 0,0,1
 1798 652 1798 652 1775.5 564.5 c 128,-1,2
 1753 477 1753 477 1714.5 404.5 c 128,-1,3
 1676 332 1676 332 1624.5 275.5 c 128,-1,4
 1573 219 1573 219 1514 180.5 c 128,-1,5
 1455 142 1455 142 1392.5 122 c 128,-1,6
 1330 102 1330 102 1270 102 c 0,7,8
 1223 102 1223 102 1191.5 114 c 128,-1,9
 1160 126 1160 126 1139.5 145.5 c 128,-1,10
 1119 165 1119 165 1108.5 191 c 128,-1,11
 1098 217 1098 217 1094 246 c 1,12,13
 1062 219 1062 219 1029 193.5 c 128,-1,14
 996 168 996 168 961 148 c 128,-1,15
 926 128 926 128 889 116 c 128,-1,16
 852 104 852 104 813 104 c 0,17,18
 743 104 743 104 690 129.5 c 128,-1,19
 637 155 637 155 601 200.5 c 128,-1,20
 565 246 565 246 546.5 308 c 128,-1,21
 528 370 528 370 528 444 c 0,22,23
 528 559 528 559 570.5 660.5 c 128,-1,24
 613 762 613 762 686 838.5 c 128,-1,25
 759 915 759 915 857.5 959.5 c 128,-1,26
 956 1004 956 1004 1067 1004 c 0,27,28
 1091 1004 1091 1004 1115.5 998 c 128,-1,29
 1140 992 1140 992 1164 982.5 c 128,-1,30
 1188 973 1188 973 1210.5 962 c 128,-1,31
 1233 951 1233 951 1253 942 c 1,32,-1
 1280 993 l 1,33,-1
 1452 993 l 1,34,-1
 1442 955 l 2,35,36
 1435 925 1435 925 1424.5 881 c 128,-1,37
 1414 837 1414 837 1401.5 783 c 128,-1,38
 1389 729 1389 729 1376 674 c 0,39,40
 1346 545 1346 545 1309 385 c 0,41,42
 1301 351 1301 351 1297 323 c 128,-1,43
 1293 295 1293 295 1297 275 c 128,-1,44
 1301 255 1301 255 1314.5 244 c 128,-1,45
 1328 233 1328 233 1356 233 c 0,46,47
 1376 233 1376 233 1405.5 248.5 c 128,-1,48
 1435 264 1435 264 1466.5 294 c 128,-1,49
 1498 324 1498 324 1529 368.5 c 128,-1,50
 1560 413 1560 413 1584.5 470.5 c 128,-1,51
 1609 528 1609 528 1624.5 598.5 c 128,-1,52
 1640 669 1640 669 1640 752 c 0,53,54
 1640 849 1640 849 1617 927.5 c 128,-1,55
 1594 1006 1594 1006 1555 1067 c 128,-1,56
 1516 1128 1516 1128 1462.5 1172.5 c 128,-1,57
 1409 1217 1409 1217 1349 1246 c 128,-1,58
 1289 1275 1289 1275 1224 1289 c 128,-1,59
 1159 1303 1159 1303 1096 1303 c 0,60,61
 988 1303 988 1303 889.5 1276.5 c 128,-1,62
 791 1250 791 1250 705.5 1201.5 c 128,-1,63
 620 1153 620 1153 550 1083 c 128,-1,64
 480 1013 480 1013 430 925.5 c 128,-1,65
 380 838 380 838 353 735.5 c 128,-1,66
 326 633 326 633 326 518 c 0,67,68
 326 360 326 360 375 227.5 c 128,-1,69
 424 95 424 95 514 -2 c 128,-1,70
 604 -99 604 -99 731 -153 c 128,-1,71
 858 -207 858 -207 1014 -207 c 0,72,73
 1095 -207 1095 -207 1168 -193.5 c 128,-1,74
 1241 -180 1241 -180 1309 -157 c 128,-1,75
 1377 -134 1377 -134 1442.5 -102.5 c 128,-1,76
 1508 -71 1508 -71 1573 -35 c 1,77,-1
 1616 -137 l 1,78,79
 1547 -173 1547 -173 1473 -206.5 c 128,-1,80
 1399 -240 1399 -240 1319 -265.5 c 128,-1,81
 1239 -291 1239 -291 1150.5 -306.5 c 128,-1,82
 1062 -322 1062 -322 965 -322 c 0,83,84
 845 -322 845 -322 736 -296.5 c 128,-1,85
 627 -271 627 -271 533 -222 c 128,-1,86
 439 -173 439 -173 362.5 -103 c 128,-1,87
 286 -33 286 -33 232 56.5 c 128,-1,88
 178 146 178 146 148.5 252.5 c 128,-1,89
 119 359 119 359 119 481 c 0,90,91
 119 630 119 630 155 757 c 128,-1,92
 191 884 191 884 255.5 987 c 128,-1,93
 320 1090 320 1090 409 1168.5 c 128,-1,94
 498 1247 498 1247 603.5 1300 c 128,-1,95
 709 1353 709 1353 827.5 1380 c 128,-1,96
 946 1407 946 1407 1069 1407 c 0,97,98
 1235 1407 1235 1407 1370 1363 c 128,-1,99
 1505 1319 1505 1319 1600 1235.5 c 128,-1,100
 1695 1152 1695 1152 1746.5 1030.5 c 128,-1,101
 1798 909 1798 909 1798 754 c 0,0,1
1167 795 m 2,102,103
 1170 807 1170 807 1165.5 825.5 c 128,-1,104
 1161 844 1161 844 1150 861 c 128,-1,105
 1139 878 1139 878 1120 890.5 c 128,-1,106
 1101 903 1101 903 1075 903 c 0,107,108
 1013 903 1013 903 958.5 870 c 128,-1,109
 904 837 904 837 863 778.5 c 128,-1,110
 822 720 822 720 798 639 c 128,-1,111
 774 558 774 558 774 463 c 0,112,113
 774 405 774 405 785.5 364.5 c 128,-1,114
 797 324 797 324 816 298.5 c 128,-1,115
 835 273 835 273 858 261.5 c 128,-1,116
 881 250 881 250 905 250 c 0,117,118
 938 250 938 250 964.5 262.5 c 128,-1,119
 991 275 991 275 1012.5 294 c 128,-1,120
 1034 313 1034 313 1052 335 c 128,-1,121
 1070 357 1070 357 1085 375 c 1,122,-1
 1167 795 l 2,102,103
EndSplineSet
EndChar

StartChar: A
Encoding: 65 65 36
Width: 1464
Flags: W
LayerCount: 2
Fore
SplineSet
784 1032 m 1,0,-1
 555 635 l 1,1,-1
 852 635 l 1,2,-1
 784 1032 l 1,0,-1
801 0 m 1,3,-1
 801 102 l 1,4,5
 817 104 817 104 833.5 105.5 c 128,-1,6
 850 107 850 107 864 109 c 0,7,8
 880 111 880 111 895 113 c 0,9,10
 915 115 915 115 926 120 c 128,-1,11
 937 125 937 125 934 143 c 2,12,-1
 874 518 l 1,13,-1
 487 518 l 1,14,-1
 285 143 l 1,15,16
 275 128 275 128 283 121.5 c 128,-1,17
 291 115 291 115 311 113 c 0,18,19
 327 111 327 111 345 109 c 0,20,21
 360 107 360 107 379 105.5 c 128,-1,22
 398 104 398 104 418 102 c 1,23,-1
 418 0 l 1,24,-1
 -109 0 l 1,25,-1
 -109 102 l 1,26,-1
 10 115 l 1,27,-1
 768 1407 l 1,28,-1
 1010 1407 l 1,29,-1
 1233 145 l 2,30,31
 1236 125 1236 125 1243.5 119.5 c 128,-1,32
 1251 114 1251 114 1274 111 c 0,33,34
 1288 110 1288 110 1304 108 c 0,35,36
 1318 106 1318 106 1334.5 105 c 128,-1,37
 1351 104 1351 104 1368 102 c 1,38,-1
 1368 0 l 1,39,-1
 801 0 l 1,3,-1
EndSplineSet
EndChar

StartChar: B
Encoding: 66 66 37
Width: 1329
Flags: W
LayerCount: 2
Fore
SplineSet
1262 1106 m 0,0,1
 1262 1031 1262 1031 1237 973 c 128,-1,2
 1212 915 1212 915 1168.5 870 c 128,-1,3
 1125 825 1125 825 1066 791.5 c 128,-1,4
 1007 758 1007 758 938 733 c 1,5,6
 1005 721 1005 721 1057.5 700 c 128,-1,7
 1110 679 1110 679 1146.5 646.5 c 128,-1,8
 1183 614 1183 614 1202 569 c 128,-1,9
 1221 524 1221 524 1221 463 c 0,10,11
 1221 341 1221 341 1175 253 c 128,-1,12
 1129 165 1129 165 1044.5 109 c 128,-1,13
 960 53 960 53 840.5 26.5 c 128,-1,14
 721 0 721 0 573 0 c 2,15,-1
 -31 0 l 1,16,-1
 -31 102 l 1,17,18
 -6 104 -6 104 17 106 c 128,-1,19
 40 108 40 108 58 110 c 0,20,21
 79 112 79 112 98 113 c 0,22,23
 115 113 115 113 124.5 118.5 c 128,-1,24
 134 124 134 124 137 145 c 1,25,-1
 350 1231 l 2,26,27
 353 1248 353 1248 344.5 1254 c 128,-1,28
 336 1260 336 1260 317 1262 c 0,29,30
 299 1263 299 1263 279 1265 c 0,31,32
 262 1267 262 1267 240 1268.5 c 128,-1,33
 218 1270 218 1270 195 1272 c 1,34,-1
 195 1374 l 1,35,-1
 813 1374 l 2,36,37
 943 1374 943 1374 1029.5 1353 c 128,-1,38
 1116 1332 1116 1332 1168 1296 c 128,-1,39
 1220 1260 1220 1260 1241 1211 c 128,-1,40
 1262 1162 1262 1162 1262 1106 c 0,0,1
911 442 m 0,41,42
 911 505 911 505 889 546 c 128,-1,43
 867 587 867 587 829.5 611.5 c 128,-1,44
 792 636 792 636 743.5 645.5 c 128,-1,45
 695 655 695 655 641 655 c 0,46,47
 586 655 586 655 528 649 c 1,48,-1
 424 115 l 1,49,50
 446 113 446 113 468 113 c 2,51,-1
 506 113 l 2,52,53
 597 113 597 113 671.5 133.5 c 128,-1,54
 746 154 746 154 799 195.5 c 128,-1,55
 852 237 852 237 881.5 298.5 c 128,-1,56
 911 360 911 360 911 442 c 0,41,42
948 1092 m 0,57,58
 948 1141 948 1141 928.5 1174.5 c 128,-1,59
 909 1208 909 1208 876.5 1228 c 128,-1,60
 844 1248 844 1248 801.5 1257 c 128,-1,61
 759 1266 759 1266 713 1266 c 0,62,63
 696 1266 696 1266 679.5 1265 c 128,-1,64
 663 1264 663 1264 649 1264 c 1,65,-1
 553 768 l 1,66,67
 570 766 570 766 584 766 c 2,68,-1
 604 766 l 2,69,70
 680 766 680 766 743.5 790.5 c 128,-1,71
 807 815 807 815 852.5 858.5 c 128,-1,72
 898 902 898 902 923 961.5 c 128,-1,73
 948 1021 948 1021 948 1092 c 0,57,58
EndSplineSet
EndChar

StartChar: C
Encoding: 67 67 38
Width: 1376
Flags: W
LayerCount: 2
Fore
SplineSet
1343 961 m 1,0,-1
 1192 961 l 1,1,-1
 1194 1190 l 1,2,3
 1196 1202 1196 1202 1187.5 1217 c 128,-1,4
 1179 1232 1179 1232 1163 1237 c 1,5,6
 1155 1241 1155 1241 1133 1249 c 128,-1,7
 1111 1257 1111 1257 1083.5 1264 c 128,-1,8
 1056 1271 1056 1271 1027 1276.5 c 128,-1,9
 998 1282 998 1282 975 1282 c 0,10,11
 910 1282 910 1282 842 1259 c 128,-1,12
 774 1236 774 1236 710.5 1191.5 c 128,-1,13
 647 1147 647 1147 590.5 1082 c 128,-1,14
 534 1017 534 1017 492 933 c 128,-1,15
 450 849 450 849 425.5 747 c 128,-1,16
 401 645 401 645 401 526 c 0,17,18
 401 409 401 409 435 327 c 128,-1,19
 469 245 469 245 523.5 192.5 c 128,-1,20
 578 140 578 140 645 116 c 128,-1,21
 712 92 712 92 778 92 c 0,22,23
 800 92 800 92 826 95 c 128,-1,24
 852 98 852 98 876 103 c 128,-1,25
 900 108 900 108 919.5 113 c 128,-1,26
 939 118 939 118 948 123 c 1,27,28
 964 125 964 125 972 135 c 128,-1,29
 980 145 980 145 985 156 c 2,30,-1
 1083 426 l 1,31,-1
 1237 426 l 1,32,-1
 1174 55 l 1,33,34
 1135 41 1135 41 1084.5 25.5 c 128,-1,35
 1034 10 1034 10 975 -3 c 128,-1,36
 916 -16 916 -16 849.5 -24.5 c 128,-1,37
 783 -33 783 -33 711 -33 c 0,38,39
 596 -33 596 -33 505.5 -9.5 c 128,-1,40
 415 14 415 14 347 55.5 c 128,-1,41
 279 97 279 97 231.5 153 c 128,-1,42
 184 209 184 209 154.5 274 c 128,-1,43
 125 339 125 339 111.5 409 c 128,-1,44
 98 479 98 479 98 549 c 0,45,46
 98 654 98 654 124.5 759 c 128,-1,47
 151 864 151 864 202 959 c 128,-1,48
 253 1054 253 1054 328 1136 c 128,-1,49
 403 1218 403 1218 499 1278.5 c 128,-1,50
 595 1339 595 1339 712 1373 c 128,-1,51
 829 1407 829 1407 965 1407 c 0,52,53
 1024 1407 1024 1407 1077.5 1400.5 c 128,-1,54
 1131 1394 1131 1394 1184 1383 c 128,-1,55
 1237 1372 1237 1372 1291.5 1356 c 128,-1,56
 1346 1340 1346 1340 1407 1321 c 1,57,-1
 1343 961 l 1,0,-1
EndSplineSet
EndChar

StartChar: D
Encoding: 68 68 39
Width: 1460
Flags: W
LayerCount: 2
Fore
SplineSet
1116 866 m 0,0,1
 1116 950 1116 950 1098 1011 c 128,-1,2
 1080 1072 1080 1072 1049 1114.5 c 128,-1,3
 1018 1157 1018 1157 975.5 1183 c 128,-1,4
 933 1209 933 1209 884 1223.5 c 128,-1,5
 835 1238 835 1238 782 1243.5 c 128,-1,6
 729 1249 729 1249 676 1251 c 1,7,-1
 647 1251 l 1,8,-1
 426 127 l 1,9,-1
 530 127 l 1,10,11
 620 128 620 128 698.5 156 c 128,-1,12
 777 184 777 184 842 233.5 c 128,-1,13
 907 283 907 283 958 351.5 c 128,-1,14
 1009 420 1009 420 1044 501.5 c 128,-1,15
 1079 583 1079 583 1097.5 675.5 c 128,-1,16
 1116 768 1116 768 1116 866 c 0,0,1
1423 848 m 0,17,18
 1423 665 1423 665 1359 509.5 c 128,-1,19
 1295 354 1295 354 1175 241 c 128,-1,20
 1055 128 1055 128 882.5 64 c 128,-1,21
 710 0 710 0 494 0 c 2,22,-1
 -31 0 l 1,23,-1
 -31 102 l 1,24,25
 -8 104 -8 104 14 106 c 128,-1,26
 36 108 36 108 53 109 c 0,27,28
 73 110 73 110 92 111 c 0,29,30
 117 113 117 113 124.5 118.5 c 128,-1,31
 132 124 132 124 137 145 c 2,32,-1
 350 1231 l 2,33,34
 353 1249 353 1249 342.5 1254.5 c 128,-1,35
 332 1260 332 1260 313 1262 c 0,36,37
 294 1263 294 1263 275 1265 c 0,38,39
 258 1267 258 1267 237 1268.5 c 128,-1,40
 216 1270 216 1270 195 1272 c 1,41,-1
 195 1374 l 1,42,-1
 727 1374 l 2,43,44
 886 1374 886 1374 1014.5 1345 c 128,-1,45
 1143 1316 1143 1316 1234 1252.5 c 128,-1,46
 1325 1189 1325 1189 1374 1089 c 128,-1,47
 1423 989 1423 989 1423 848 c 0,17,18
EndSplineSet
EndChar

StartChar: E
Encoding: 69 69 40
Width: 1229
Flags: W
LayerCount: 2
Fore
SplineSet
1210 1051 m 1,0,-1
 1047 1051 l 1,1,-1
 1047 1225 l 2,2,3
 1047 1240 1047 1240 1031.5 1245.5 c 128,-1,4
 1016 1251 1016 1251 999 1251 c 2,5,-1
 647 1251 l 1,6,-1
 555 776 l 1,7,-1
 786 776 l 2,8,9
 802 776 802 776 820.5 783.5 c 128,-1,10
 839 791 839 791 844 807 c 2,11,-1
 887 950 l 1,12,-1
 1036 950 l 1,13,-1
 942 469 l 1,14,-1
 791 469 l 1,15,-1
 811 623 l 2,16,17
 812 629 812 629 808 634 c 128,-1,18
 804 639 804 639 797 643 c 128,-1,19
 790 647 790 647 781.5 649 c 128,-1,20
 773 651 773 651 766 651 c 2,21,-1
 530 651 l 1,22,-1
 428 123 l 1,23,-1
 864 123 l 2,24,25
 880 123 880 123 898.5 131 c 128,-1,26
 917 139 917 139 922 152 c 2,27,-1
 987 356 l 1,28,-1
 1149 356 l 1,29,-1
 1077 0 l 1,30,-1
 -31 0 l 1,31,-1
 -31 102 l 1,32,33
 -8 104 -8 104 14.5 106 c 128,-1,34
 37 108 37 108 54 110 c 0,35,36
 74 112 74 112 92 113 c 0,37,38
 115 115 115 115 124.5 120 c 128,-1,39
 134 125 134 125 137 145 c 2,40,-1
 350 1231 l 1,41,42
 355 1249 355 1249 344 1254.5 c 128,-1,43
 333 1260 333 1260 313 1262 c 0,44,45
 295 1263 295 1263 276 1265 c 0,46,47
 259 1267 259 1267 238 1268.5 c 128,-1,48
 217 1270 217 1270 197 1272 c 1,49,-1
 197 1374 l 1,50,-1
 1276 1374 l 1,51,-1
 1210 1051 l 1,0,-1
EndSplineSet
EndChar

StartChar: F
Encoding: 70 70 41
Width: 1139
Flags: W
LayerCount: 2
Fore
SplineSet
1186 1028 m 1,0,-1
 1020 1028 l 1,1,-1
 1020 1225 l 2,2,3
 1020 1240 1020 1240 1005 1245.5 c 128,-1,4
 990 1251 990 1251 973 1251 c 2,5,-1
 647 1251 l 1,6,-1
 551 756 l 1,7,-1
 768 756 l 2,8,9
 783 756 783 756 801.5 762.5 c 128,-1,10
 820 769 820 769 825 784 c 2,11,-1
 866 932 l 1,12,-1
 1018 932 l 1,13,-1
 924 449 l 1,14,-1
 770 449 l 1,15,-1
 793 602 l 1,16,17
 794 616 794 616 777.5 623.5 c 128,-1,18
 761 631 761 631 745 631 c 2,19,-1
 526 631 l 1,20,-1
 430 143 l 2,21,22
 427 125 427 125 438 120 c 128,-1,23
 449 115 449 115 469 113 c 0,24,25
 488 112 488 112 510 110 c 0,26,27
 529 108 529 108 552.5 106 c 128,-1,28
 576 104 576 104 602 102 c 1,29,-1
 602 0 l 1,30,-1
 -31 0 l 1,31,-1
 -31 102 l 1,32,33
 -10 104 -10 104 10.5 106 c 128,-1,34
 31 108 31 108 48 110 c 0,35,36
 67 112 67 112 86 113 c 0,37,38
 109 115 109 115 120.5 120 c 128,-1,39
 132 125 132 125 137 145 c 1,40,-1
 350 1231 l 2,41,42
 353 1249 353 1249 342 1254.5 c 128,-1,43
 331 1260 331 1260 311 1262 c 0,44,45
 293 1263 293 1263 274 1265 c 0,46,47
 257 1267 257 1267 236 1268.5 c 128,-1,48
 215 1270 215 1270 195 1272 c 1,49,-1
 195 1374 l 1,50,-1
 1253 1374 l 1,51,-1
 1186 1028 l 1,0,-1
EndSplineSet
EndChar

StartChar: G
Encoding: 71 71 42
Width: 1495
Flags: W
LayerCount: 2
Fore
SplineSet
1329 561 m 2,0,1
 1315 559 1315 559 1309.5 551.5 c 128,-1,2
 1304 544 1304 544 1300 530 c 1,3,-1
 1206 53 l 1,4,5
 1163 41 1163 41 1107 26 c 128,-1,6
 1051 11 1051 11 987 -2 c 128,-1,7
 923 -15 923 -15 855.5 -24 c 128,-1,8
 788 -33 788 -33 723 -33 c 0,9,10
 592 -33 592 -33 495 -5 c 128,-1,11
 398 23 398 23 329 70 c 128,-1,12
 260 117 260 117 215 177.5 c 128,-1,13
 170 238 170 238 144 303 c 128,-1,14
 118 368 118 368 108 432.5 c 128,-1,15
 98 497 98 497 98 551 c 0,16,17
 98 678 98 678 132.5 791 c 128,-1,18
 167 904 167 904 228.5 999.5 c 128,-1,19
 290 1095 290 1095 375.5 1170.5 c 128,-1,20
 461 1246 461 1246 564 1298.5 c 128,-1,21
 667 1351 667 1351 784 1379 c 128,-1,22
 901 1407 901 1407 1024 1407 c 0,23,24
 1082 1407 1082 1407 1132.5 1402.5 c 128,-1,25
 1183 1398 1183 1398 1232.5 1388.5 c 128,-1,26
 1282 1379 1282 1379 1334 1364.5 c 128,-1,27
 1386 1350 1386 1350 1448 1331 c 1,28,-1
 1372 958 l 1,29,-1
 1198 958 l 1,30,-1
 1217 1190 l 2,31,32
 1219 1208 1219 1208 1201.5 1218.5 c 128,-1,33
 1184 1229 1184 1229 1163 1237 c 0,34,35
 1153 1240 1153 1240 1135.5 1246.5 c 128,-1,36
 1118 1253 1118 1253 1095.5 1259.5 c 128,-1,37
 1073 1266 1073 1266 1048 1271 c 128,-1,38
 1023 1276 1023 1276 999 1276 c 0,39,40
 936 1276 936 1276 868 1253 c 128,-1,41
 800 1230 800 1230 734.5 1185.5 c 128,-1,42
 669 1141 669 1141 610 1075.5 c 128,-1,43
 551 1010 551 1010 506.5 926 c 128,-1,44
 462 842 462 842 436 740 c 128,-1,45
 410 638 410 638 410 520 c 0,46,47
 410 437 410 437 429.5 373.5 c 128,-1,48
 449 310 449 310 480.5 262.5 c 128,-1,49
 512 215 512 215 551.5 183.5 c 128,-1,50
 591 152 591 152 630.5 132.5 c 128,-1,51
 670 113 670 113 705 104.5 c 128,-1,52
 740 96 740 96 764 96 c 0,53,54
 784 96 784 96 807 99 c 128,-1,55
 830 102 830 102 852 106.5 c 128,-1,56
 874 111 874 111 894 116 c 128,-1,57
 914 121 914 121 928 125 c 1,58,-1
 1008 530 l 2,59,60
 1011 549 1011 549 1002 555 c 128,-1,61
 993 561 993 561 969 563 c 1,62,63
 951 563 951 563 932 565 c 0,64,65
 915 566 915 566 894.5 567.5 c 128,-1,66
 874 569 874 569 854 571 c 1,67,-1
 854 676 l 1,68,-1
 1468 676 l 1,69,-1
 1468 571 l 1,70,-1
 1329 561 l 2,0,1
EndSplineSet
EndChar

StartChar: H
Encoding: 72 72 43
Width: 1571
Flags: W
LayerCount: 2
Fore
SplineSet
1526 1260 m 2,0,1
 1507 1258 1507 1258 1499.5 1250.5 c 128,-1,2
 1492 1243 1492 1243 1489 1229 c 2,3,-1
 1276 143 l 2,4,5
 1273 126 1273 126 1282 120.5 c 128,-1,6
 1291 115 1291 115 1311 113 c 0,7,8
 1329 112 1329 112 1349 110 c 0,9,10
 1366 108 1366 108 1387.5 106 c 128,-1,11
 1409 104 1409 104 1432 102 c 1,12,-1
 1432 0 l 1,13,-1
 811 0 l 1,14,-1
 811 102 l 1,15,-1
 857 106 l 2,16,17
 880 108 880 108 898 110 c 0,18,19
 919 112 919 112 938 113 c 0,20,21
 957 115 957 115 968.5 121 c 128,-1,22
 980 127 980 127 983 145 c 2,23,-1
 1083 657 l 1,24,-1
 530 657 l 1,25,-1
 430 143 l 2,26,27
 427 125 427 125 434 120 c 128,-1,28
 441 115 441 115 467 113 c 0,29,30
 485 112 485 112 505 110 c 0,31,32
 522 108 522 108 543.5 106 c 128,-1,33
 565 104 565 104 588 102 c 1,34,-1
 588 0 l 1,35,-1
 -31 0 l 1,36,-1
 -31 102 l 1,37,38
 -8 104 -8 104 14.5 106 c 128,-1,39
 37 108 37 108 54 110 c 0,40,41
 74 112 74 112 92 113 c 0,42,43
 114 115 114 115 124 121 c 128,-1,44
 134 127 134 127 137 145 c 2,45,-1
 350 1231 l 2,46,47
 353 1249 353 1249 343 1254.5 c 128,-1,48
 333 1260 333 1260 311 1262 c 0,49,50
 293 1263 293 1263 274 1265 c 0,51,52
 257 1267 257 1267 236.5 1268.5 c 128,-1,53
 216 1270 216 1270 195 1272 c 1,54,-1
 195 1374 l 1,55,-1
 813 1374 l 1,56,-1
 813 1272 l 1,57,58
 789 1270 789 1270 766.5 1268.5 c 128,-1,59
 744 1267 744 1267 726 1265 c 0,60,61
 705 1263 705 1263 686 1262 c 0,62,63
 666 1260 666 1260 656 1253.5 c 128,-1,64
 646 1247 646 1247 643 1229 c 2,65,-1
 555 780 l 1,66,-1
 1108 780 l 1,67,-1
 1196 1231 l 2,68,69
 1199 1249 1199 1249 1188.5 1255.5 c 128,-1,70
 1178 1262 1178 1262 1153 1264 c 0,71,72
 1135 1265 1135 1265 1116 1266 c 0,73,74
 1099 1267 1099 1267 1078.5 1268.5 c 128,-1,75
 1058 1270 1058 1270 1038 1272 c 1,76,-1
 1038 1374 l 1,77,-1
 1657 1374 l 1,78,-1
 1657 1272 l 1,79,-1
 1526 1260 l 2,0,1
EndSplineSet
EndChar

StartChar: I
Encoding: 73 73 44
Width: 729
Flags: W
LayerCount: 2
Fore
SplineSet
674 1262 m 2,0,1
 658 1260 658 1260 652 1251.5 c 128,-1,2
 646 1243 646 1243 643 1229 c 2,3,-1
 430 143 l 2,4,5
 427 126 427 126 434 120.5 c 128,-1,6
 441 115 441 115 461 113 c 0,7,8
 480 112 480 112 501 110 c 0,9,10
 519 108 519 108 542 106 c 128,-1,11
 565 104 565 104 590 102 c 1,12,-1
 590 0 l 1,13,-1
 -31 0 l 1,14,-1
 -31 102 l 1,15,16
 -8 104 -8 104 13.5 105 c 128,-1,17
 35 106 35 106 52 108 c 0,18,19
 72 110 72 110 90 111 c 0,20,21
 113 113 113 113 123.5 118.5 c 128,-1,22
 134 124 134 124 137 145 c 1,23,-1
 350 1231 l 1,24,25
 355 1249 355 1249 344 1254.5 c 128,-1,26
 333 1260 333 1260 313 1262 c 0,27,28
 295 1263 295 1263 276 1265 c 0,29,30
 259 1267 259 1267 238 1268.5 c 128,-1,31
 217 1270 217 1270 197 1272 c 1,32,-1
 197 1374 l 1,33,-1
 815 1374 l 1,34,-1
 815 1272 l 1,35,-1
 674 1262 l 2,0,1
EndSplineSet
EndChar

StartChar: J
Encoding: 74 74 45
Width: 1044
Flags: W
LayerCount: 2
Fore
SplineSet
985 1260 m 1,0,1
 971 1260 971 1260 965.5 1251.5 c 128,-1,2
 960 1243 960 1243 956 1229 c 1,3,-1
 825 526 l 2,4,5
 803 405 803 405 770.5 302.5 c 128,-1,6
 738 200 738 200 678 125.5 c 128,-1,7
 618 51 618 51 520.5 9 c 128,-1,8
 423 -33 423 -33 272 -33 c 0,9,10
 204 -33 204 -33 150.5 -24 c 128,-1,11
 97 -15 97 -15 58 -3 c 128,-1,12
 19 9 19 9 -5.5 20.5 c 128,-1,13
 -30 32 -30 32 -41 37 c 1,14,-1
 29 393 l 1,15,-1
 197 393 l 1,16,-1
 197 135 l 2,17,18
 197 127 197 127 206.5 119.5 c 128,-1,19
 216 112 216 112 230 106.5 c 128,-1,20
 244 101 244 101 259.5 97.5 c 128,-1,21
 275 94 275 94 287 94 c 0,22,23
 376 94 376 94 433 196.5 c 128,-1,24
 490 299 490 299 528 510 c 1,25,-1
 664 1231 l 2,26,27
 667 1249 667 1249 657 1254.5 c 128,-1,28
 647 1260 647 1260 627 1262 c 0,29,30
 608 1263 608 1263 588 1265 c 0,31,32
 571 1267 571 1267 549 1268.5 c 128,-1,33
 527 1270 527 1270 506 1272 c 1,34,-1
 506 1374 l 1,35,-1
 1124 1374 l 1,36,-1
 1124 1272 l 1,37,-1
 985 1260 l 1,0,1
EndSplineSet
EndChar

StartChar: K
Encoding: 75 75 46
Width: 1430
Flags: W
LayerCount: 2
Fore
SplineSet
1323 1255 m 1,0,-1
 795 752 l 1,1,-1
 1079 211 l 2,2,3
 1097 177 1097 177 1108.5 156 c 128,-1,4
 1120 135 1120 135 1132 122.5 c 128,-1,5
 1144 110 1144 110 1159 105.5 c 128,-1,6
 1174 101 1174 101 1198 100 c 0,7,8
 1206 100 1206 100 1226 101.5 c 128,-1,9
 1246 103 1246 103 1268 104.5 c 128,-1,10
 1290 106 1290 106 1307.5 107.5 c 128,-1,11
 1325 109 1325 109 1327 109 c 1,12,-1
 1327 6 l 1,13,14
 1271 -11 1271 -11 1210 -22 c 128,-1,15
 1149 -33 1149 -33 1092 -33 c 0,16,17
 1030 -33 1030 -33 986.5 -24 c 128,-1,18
 943 -15 943 -15 911.5 4.5 c 128,-1,19
 880 24 880 24 856.5 54.5 c 128,-1,20
 833 85 833 85 811 127 c 2,21,-1
 565 596 l 1,22,-1
 518 596 l 1,23,-1
 428 143 l 2,24,25
 425 123 425 123 434.5 118 c 128,-1,26
 444 113 444 113 461 111 c 0,27,28
 478 110 478 110 496 108 c 0,29,30
 511 106 511 106 529.5 105 c 128,-1,31
 548 104 548 104 567 102 c 1,32,-1
 567 0 l 1,33,-1
 -33 0 l 1,34,-1
 -33 102 l 1,35,36
 -13 104 -13 104 9 105 c 128,-1,37
 31 106 31 106 51 108 c 0,38,39
 74 110 74 110 96 111 c 0,40,41
 112 111 112 111 122 118 c 128,-1,42
 132 125 132 125 135 145 c 2,43,-1
 350 1231 l 1,44,45
 355 1249 355 1249 347 1255.5 c 128,-1,46
 339 1262 339 1262 324 1264 c 1,47,48
 307 1265 307 1265 289 1266 c 0,49,50
 273 1267 273 1267 254 1268.5 c 128,-1,51
 235 1270 235 1270 215 1272 c 1,52,-1
 215 1374 l 1,53,-1
 795 1374 l 1,54,-1
 795 1272 l 1,55,56
 774 1270 774 1270 753.5 1268.5 c 128,-1,57
 733 1267 733 1267 717 1266 c 0,58,59
 699 1265 699 1265 682 1264 c 1,60,61
 667 1262 667 1262 657.5 1255.5 c 128,-1,62
 648 1249 648 1249 643 1229 c 1,63,-1
 555 784 l 1,64,-1
 571 784 l 1,65,-1
 1032 1233 l 1,66,67
 1048 1247 1048 1247 1041.5 1254.5 c 128,-1,68
 1035 1262 1035 1262 1014 1264 c 1,69,70
 996 1264 996 1264 978 1266 c 0,71,72
 962 1267 962 1267 943 1268.5 c 128,-1,73
 924 1270 924 1270 907 1272 c 1,74,-1
 907 1374 l 1,75,-1
 1503 1374 l 1,76,-1
 1503 1272 l 1,77,-1
 1323 1255 l 1,0,-1
EndSplineSet
EndChar

StartChar: L
Encoding: 76 76 47
Width: 1147
Flags: W
LayerCount: 2
Fore
SplineSet
999 0 m 1,0,-1
 -31 0 l 1,1,-1
 -31 102 l 1,2,3
 -10 104 -10 104 10.5 106 c 128,-1,4
 31 108 31 108 48 109 c 2,5,-1
 86 111 l 1,6,7
 115 114 115 114 124.5 119.5 c 128,-1,8
 134 125 134 125 137 145 c 2,9,-1
 350 1231 l 1,10,11
 355 1248 355 1248 344.5 1254 c 128,-1,12
 334 1260 334 1260 317 1262 c 1,13,14
 299 1263 299 1263 279 1265 c 0,15,16
 262 1267 262 1267 240.5 1268.5 c 128,-1,17
 219 1270 219 1270 197 1272 c 1,18,-1
 197 1374 l 1,19,-1
 815 1374 l 1,20,-1
 815 1272 l 1,21,22
 789 1270 789 1270 765.5 1268.5 c 128,-1,23
 742 1267 742 1267 723 1265 c 0,24,25
 701 1263 701 1263 682 1262 c 1,26,27
 668 1260 668 1260 658 1253.5 c 128,-1,28
 648 1247 648 1247 643 1229 c 1,29,-1
 426 123 l 1,30,-1
 786 123 l 2,31,32
 802 123 802 123 820.5 131 c 128,-1,33
 839 139 839 139 844 152 c 2,34,-1
 928 414 l 1,35,-1
 1081 414 l 1,36,-1
 999 0 l 1,0,-1
EndSplineSet
EndChar

StartChar: M
Encoding: 77 77 48
Width: 1851
Flags: W
LayerCount: 2
Fore
SplineSet
1796 1257 m 2,0,1
 1782 1255 1782 1255 1776.5 1249 c 128,-1,2
 1771 1243 1771 1243 1767 1229 c 1,3,-1
 1556 143 l 2,4,5
 1553 125 1553 125 1563 120 c 128,-1,6
 1573 115 1573 115 1593 113 c 0,7,8
 1611 112 1611 112 1631 110 c 0,9,10
 1648 108 1648 108 1669 106 c 128,-1,11
 1690 104 1690 104 1712 102 c 1,12,-1
 1712 0 l 1,13,-1
 1094 0 l 1,14,-1
 1094 102 l 1,15,16
 1117 104 1117 104 1139 106 c 128,-1,17
 1161 108 1161 108 1179 110 c 0,18,19
 1200 112 1200 112 1219 113 c 0,20,21
 1236 113 1236 113 1248.5 120 c 128,-1,22
 1261 127 1261 127 1264 145 c 2,23,-1
 1417 936 l 1,24,-1
 885 0 l 1,25,-1
 684 0 l 1,26,-1
 518 922 l 1,27,-1
 373 143 l 1,28,29
 368 126 368 126 377.5 120.5 c 128,-1,30
 387 115 387 115 401 113 c 1,31,32
 420 112 420 112 440 110 c 0,33,34
 457 108 457 108 479.5 106 c 128,-1,35
 502 104 502 104 526 102 c 1,36,-1
 526 0 l 1,37,-1
 -29 0 l 1,38,-1
 -29 102 l 1,39,40
 -8 104 -8 104 12 106 c 128,-1,41
 32 108 32 108 49 110 c 0,42,43
 68 112 68 112 86 113 c 0,44,45
 108 115 108 115 121 120 c 128,-1,46
 134 125 134 125 139 145 c 1,47,-1
 350 1231 l 2,48,49
 353 1249 353 1249 343 1254.5 c 128,-1,50
 333 1260 333 1260 313 1262 c 0,51,52
 294 1263 294 1263 275 1265 c 0,53,54
 258 1267 258 1267 237 1268.5 c 128,-1,55
 216 1270 216 1270 195 1272 c 1,56,-1
 195 1374 l 1,57,-1
 739 1374 l 1,58,-1
 739 1307 l 1,59,-1
 895 446 l 1,60,-1
 1376 1298 l 1,61,-1
 1376 1374 l 1,62,-1
 1935 1374 l 1,63,-1
 1935 1272 l 1,64,-1
 1796 1257 l 2,0,1
EndSplineSet
EndChar

StartChar: N
Encoding: 78 78 49
Width: 1542
Flags: W
LayerCount: 2
Fore
SplineSet
1499 1260 m 1,0,1
 1470 1255 1470 1255 1464 1229 c 2,2,-1
 1221 0 l 1,3,-1
 993 0 l 1,4,-1
 535 952 l 1,5,-1
 377 143 l 2,6,7
 374 125 374 125 383 120 c 128,-1,8
 392 115 392 115 414 113 c 0,9,10
 432 112 432 112 451 110 c 0,11,12
 468 108 468 108 488.5 106 c 128,-1,13
 509 104 509 104 532 102 c 1,14,-1
 532 0 l 1,15,-1
 -29 0 l 1,16,-1
 -29 102 l 1,17,18
 -7 104 -7 104 13.5 106 c 128,-1,19
 34 108 34 108 51 110 c 0,20,21
 70 112 70 112 88 113 c 0,22,23
 110 115 110 115 122 120 c 128,-1,24
 134 125 134 125 139 145 c 1,25,-1
 350 1231 l 1,26,27
 355 1249 355 1249 344 1254.5 c 128,-1,28
 333 1260 333 1260 313 1262 c 0,29,30
 295 1263 295 1263 276 1265 c 0,31,32
 259 1267 259 1267 238.5 1268.5 c 128,-1,33
 218 1270 218 1270 197 1272 c 1,34,-1
 197 1374 l 1,35,-1
 678 1374 l 1,36,-1
 678 1311 l 1,37,-1
 1077 477 l 1,38,-1
 1227 1231 l 1,39,40
 1232 1249 1232 1249 1219 1254.5 c 128,-1,41
 1206 1260 1206 1260 1188 1262 c 1,42,43
 1169 1263 1169 1263 1150 1265 c 0,44,45
 1133 1267 1133 1267 1112 1268.5 c 128,-1,46
 1091 1270 1091 1270 1071 1272 c 1,47,-1
 1071 1374 l 1,48,-1
 1632 1374 l 1,49,-1
 1632 1272 l 1,50,-1
 1499 1260 l 1,0,1
EndSplineSet
EndChar

StartChar: O
Encoding: 79 79 50
Width: 1540
Flags: W
LayerCount: 2
Fore
SplineSet
1182 854 m 0,0,1
 1182 957 1182 957 1155.5 1037 c 128,-1,2
 1129 1117 1129 1117 1086.5 1172 c 128,-1,3
 1044 1227 1044 1227 991 1255.5 c 128,-1,4
 938 1284 938 1284 885 1284 c 0,5,6
 824 1284 824 1284 765.5 1253 c 128,-1,7
 707 1222 707 1222 655 1168.5 c 128,-1,8
 603 1115 603 1115 559 1041.5 c 128,-1,9
 515 968 515 968 483.5 883.5 c 128,-1,10
 452 799 452 799 434 706.5 c 128,-1,11
 416 614 416 614 416 522 c 0,12,13
 416 416 416 416 443.5 336 c 128,-1,14
 471 256 471 256 514 202 c 128,-1,15
 557 148 557 148 609.5 121 c 128,-1,16
 662 94 662 94 713 94 c 0,17,18
 773 94 773 94 831.5 125.5 c 128,-1,19
 890 157 890 157 942 212 c 128,-1,20
 994 267 994 267 1038 340.5 c 128,-1,21
 1082 414 1082 414 1114 498.5 c 128,-1,22
 1146 583 1146 583 1164 674 c 128,-1,23
 1182 765 1182 765 1182 854 c 0,0,1
1501 854 m 0,24,25
 1501 749 1501 749 1479 642.5 c 128,-1,26
 1457 536 1457 536 1412.5 437.5 c 128,-1,27
 1368 339 1368 339 1301 253 c 128,-1,28
 1234 167 1234 167 1145 103.5 c 128,-1,29
 1056 40 1056 40 944 3.5 c 128,-1,30
 832 -33 832 -33 698 -33 c 0,31,32
 555 -33 555 -33 443.5 9.5 c 128,-1,33
 332 52 332 52 255 128.5 c 128,-1,34
 178 205 178 205 138 309.5 c 128,-1,35
 98 414 98 414 98 539 c 0,36,37
 98 645 98 645 122.5 751 c 128,-1,38
 147 857 147 857 194.5 953.5 c 128,-1,39
 242 1050 242 1050 311 1133 c 128,-1,40
 380 1216 380 1216 469.5 1277 c 128,-1,41
 559 1338 559 1338 668 1372.5 c 128,-1,42
 777 1407 777 1407 903 1407 c 0,43,44
 1051 1407 1051 1407 1163 1361.5 c 128,-1,45
 1275 1316 1275 1316 1350 1239.5 c 128,-1,46
 1425 1163 1425 1163 1463 1063 c 128,-1,47
 1501 963 1501 963 1501 854 c 0,24,25
EndSplineSet
EndChar

StartChar: P
Encoding: 80 80 51
Width: 1245
Flags: W
LayerCount: 2
Fore
SplineSet
1255 1040 m 0,0,1
 1255 920 1255 920 1208.5 822 c 128,-1,2
 1162 724 1162 724 1075 653.5 c 128,-1,3
 988 583 988 583 864.5 544.5 c 128,-1,4
 741 506 741 506 588 506 c 2,5,-1
 546 506 l 2,6,7
 521 506 521 506 500 508 c 1,8,-1
 426 143 l 2,9,10
 423 125 423 125 432 120 c 128,-1,11
 441 115 441 115 463 113 c 0,12,13
 481 112 481 112 501 110 c 0,14,15
 518 108 518 108 539.5 106 c 128,-1,16
 561 104 561 104 584 102 c 1,17,-1
 584 0 l 1,18,-1
 -35 0 l 1,19,-1
 -35 102 l 1,20,21
 -13 104 -13 104 8 106 c 128,-1,22
 29 108 29 108 46 110 c 0,23,24
 65 112 65 112 84 113 c 0,25,26
 104 115 104 115 116 120 c 128,-1,27
 128 125 128 125 133 145 c 1,28,-1
 348 1231 l 2,29,30
 351 1249 351 1249 339.5 1254.5 c 128,-1,31
 328 1260 328 1260 309 1262 c 0,32,33
 291 1263 291 1263 272 1265 c 0,34,35
 255 1267 255 1267 234 1268.5 c 128,-1,36
 213 1270 213 1270 193 1272 c 1,37,-1
 193 1374 l 1,38,-1
 745 1374 l 2,39,40
 890 1374 890 1374 988 1347.5 c 128,-1,41
 1086 1321 1086 1321 1145.5 1275.5 c 128,-1,42
 1205 1230 1205 1230 1230 1169.5 c 128,-1,43
 1255 1109 1255 1109 1255 1040 c 0,0,1
956 1008 m 0,44,45
 956 1129 956 1129 887 1193 c 128,-1,46
 818 1257 818 1257 682 1257 c 2,47,-1
 647 1257 l 1,48,-1
 522 631 l 1,49,50
 582 629 582 629 649.5 641.5 c 128,-1,51
 717 654 717 654 780 692 c 0,52,53
 817 714 817 714 849 744 c 128,-1,54
 881 774 881 774 905 813 c 128,-1,55
 929 852 929 852 942.5 900.5 c 128,-1,56
 956 949 956 949 956 1008 c 0,44,45
EndSplineSet
EndChar

StartChar: Q
Encoding: 81 81 52
Width: 1540
Flags: W
LayerCount: 2
Fore
SplineSet
1182 852 m 0,0,1
 1182 951 1182 951 1157 1030.5 c 128,-1,2
 1132 1110 1132 1110 1091.5 1166 c 128,-1,3
 1051 1222 1051 1222 999.5 1252 c 128,-1,4
 948 1282 948 1282 895 1282 c 0,5,6
 833 1282 833 1282 773 1252.5 c 128,-1,7
 713 1223 713 1223 659 1170.5 c 128,-1,8
 605 1118 605 1118 559.5 1046 c 128,-1,9
 514 974 514 974 480.5 889.5 c 128,-1,10
 447 805 447 805 428.5 711 c 128,-1,11
 410 617 410 617 410 520 c 0,12,13
 410 422 410 422 435 342.5 c 128,-1,14
 460 263 460 263 501.5 207 c 128,-1,15
 543 151 543 151 597.5 120.5 c 128,-1,16
 652 90 652 90 711 90 c 256,17,18
 770 90 770 90 828 121 c 128,-1,19
 886 152 886 152 938.5 206.5 c 128,-1,20
 991 261 991 261 1035.5 334.5 c 128,-1,21
 1080 408 1080 408 1112.5 493 c 128,-1,22
 1145 578 1145 578 1163.5 669.5 c 128,-1,23
 1182 761 1182 761 1182 852 c 0,0,1
1565 -221 m 1,24,25
 1551 -228 1551 -228 1510 -245.5 c 128,-1,26
 1469 -263 1469 -263 1414 -281.5 c 128,-1,27
 1359 -300 1359 -300 1296 -314 c 128,-1,28
 1233 -328 1233 -328 1176 -328 c 0,29,30
 1081 -328 1081 -328 1013.5 -303.5 c 128,-1,31
 946 -279 946 -279 898 -238.5 c 128,-1,32
 850 -198 850 -198 817.5 -144.5 c 128,-1,33
 785 -91 785 -91 758 -33 c 1,34,35
 744 -35 744 -35 727.5 -36 c 128,-1,36
 711 -37 711 -37 692 -37 c 0,37,38
 559 -37 559 -37 449 2.5 c 128,-1,39
 339 42 339 42 260 116 c 128,-1,40
 181 190 181 190 137.5 294.5 c 128,-1,41
 94 399 94 399 94 530 c 0,42,43
 94 632 94 632 118.5 737 c 128,-1,44
 143 842 143 842 191 939.5 c 128,-1,45
 239 1037 239 1037 308.5 1122 c 128,-1,46
 378 1207 378 1207 468 1270.5 c 128,-1,47
 558 1334 558 1334 667.5 1370.5 c 128,-1,48
 777 1407 777 1407 905 1407 c 0,49,50
 1051 1407 1051 1407 1162 1363 c 128,-1,51
 1273 1319 1273 1319 1348 1243 c 128,-1,52
 1423 1167 1423 1167 1461 1066.5 c 128,-1,53
 1499 966 1499 966 1499 852 c 0,54,55
 1499 798 1499 798 1492.5 732 c 128,-1,56
 1486 666 1486 666 1467.5 594.5 c 128,-1,57
 1449 523 1449 523 1417.5 448.5 c 128,-1,58
 1386 374 1386 374 1336.5 302.5 c 128,-1,59
 1287 231 1287 231 1216.5 165 c 128,-1,60
 1146 99 1146 99 1051 45 c 1,61,62
 1080 -7 1080 -7 1102 -50 c 128,-1,63
 1124 -93 1124 -93 1149 -123.5 c 128,-1,64
 1174 -154 1174 -154 1206 -171 c 128,-1,65
 1238 -188 1238 -188 1286 -188 c 0,66,67
 1313 -188 1313 -188 1341 -181.5 c 128,-1,68
 1369 -175 1369 -175 1402 -163 c 128,-1,69
 1435 -151 1435 -151 1474.5 -133 c 128,-1,70
 1514 -115 1514 -115 1565 -92 c 1,71,-1
 1565 -221 l 1,24,25
EndSplineSet
EndChar

StartChar: R
Encoding: 82 82 53
Width: 1399
Flags: W
LayerCount: 2
Fore
SplineSet
1346 6 m 1,0,1
 1299 -14 1299 -14 1254 -23.5 c 128,-1,2
 1209 -33 1209 -33 1153 -33 c 0,3,4
 1058 -33 1058 -33 997 -11 c 128,-1,5
 936 11 936 11 897 53.5 c 128,-1,6
 858 96 858 96 836 158 c 128,-1,7
 814 220 814 220 797 301 c 0,8,9
 790 331 790 331 782.5 364.5 c 128,-1,10
 775 398 775 398 764.5 431 c 128,-1,11
 754 464 754 464 739.5 494 c 128,-1,12
 725 524 725 524 703.5 547.5 c 128,-1,13
 682 571 682 571 653.5 584.5 c 128,-1,14
 625 598 625 598 586 598 c 0,15,16
 573 598 573 598 555 597 c 128,-1,17
 537 596 537 596 520 596 c 1,18,-1
 434 143 l 2,19,20
 431 126 431 126 439 120.5 c 128,-1,21
 447 115 447 115 467 113 c 0,22,23
 485 111 485 111 506 109 c 0,24,25
 523 107 523 107 546 105.5 c 128,-1,26
 569 104 569 104 592 102 c 1,27,-1
 592 0 l 1,28,-1
 -27 0 l 1,29,-1
 -27 102 l 1,30,31
 -4 104 -4 104 17.5 105 c 128,-1,32
 39 106 39 106 56 108 c 0,33,34
 76 110 76 110 94 111 c 0,35,36
 113 113 113 113 124.5 119 c 128,-1,37
 136 125 136 125 141 145 c 1,38,-1
 350 1231 l 1,39,40
 355 1248 355 1248 345 1254 c 128,-1,41
 335 1260 335 1260 315 1262 c 0,42,43
 296 1263 296 1263 277 1265 c 0,44,45
 260 1267 260 1267 239 1268.5 c 128,-1,46
 218 1270 218 1270 197 1272 c 1,47,-1
 197 1374 l 1,48,-1
 788 1374 l 2,49,50
 891 1374 891 1374 980 1358 c 128,-1,51
 1069 1342 1069 1342 1135 1305.5 c 128,-1,52
 1201 1269 1201 1269 1238.5 1210.5 c 128,-1,53
 1276 1152 1276 1152 1276 1067 c 0,54,55
 1276 986 1276 986 1244.5 920.5 c 128,-1,56
 1213 855 1213 855 1158 803 c 128,-1,57
 1103 751 1103 751 1028 712.5 c 128,-1,58
 953 674 953 674 866 649 c 1,59,60
 925 622 925 622 961 589.5 c 128,-1,61
 997 557 997 557 1019 516.5 c 128,-1,62
 1041 476 1041 476 1054.5 427.5 c 128,-1,63
 1068 379 1068 379 1083 322 c 0,64,65
 1097 268 1097 268 1110.5 227 c 128,-1,66
 1124 186 1124 186 1150.5 158 c 128,-1,67
 1177 130 1177 130 1222.5 116 c 128,-1,68
 1268 102 1268 102 1346 102 c 1,69,-1
 1346 6 l 1,0,1
958 1036 m 0,70,71
 958 1086 958 1086 943 1122 c 128,-1,72
 928 1158 928 1158 904.5 1182.5 c 128,-1,73
 881 1207 881 1207 852 1222 c 128,-1,74
 823 1237 823 1237 794 1244.5 c 128,-1,75
 765 1252 765 1252 739.5 1254 c 128,-1,76
 714 1256 714 1256 698 1255 c 2,77,-1
 647 1251 l 1,78,-1
 547 721 l 1,79,-1
 561 721 l 2,80,81
 570 721 570 721 578 722 c 1,82,83
 588 722 588 722 598 723 c 0,84,85
 637 724 637 724 679 732 c 128,-1,86
 721 740 721 740 761 755 c 128,-1,87
 801 770 801 770 836.5 794 c 128,-1,88
 872 818 872 818 899 852.5 c 128,-1,89
 926 887 926 887 942 932.5 c 128,-1,90
 958 978 958 978 958 1036 c 0,70,71
EndSplineSet
EndChar

StartChar: S
Encoding: 83 83 54
Width: 1153
Flags: W
LayerCount: 2
Fore
SplineSet
1069 1006 m 1,0,-1
 913 1006 l 1,1,-1
 922 1219 l 2,2,3
 922 1224 922 1224 903 1235 c 128,-1,4
 884 1246 884 1246 855 1257.5 c 128,-1,5
 826 1269 826 1269 792.5 1277.5 c 128,-1,6
 759 1286 759 1286 731 1286 c 0,7,8
 691 1286 691 1286 645 1268 c 128,-1,9
 599 1250 599 1250 559.5 1216 c 128,-1,10
 520 1182 520 1182 493.5 1133 c 128,-1,11
 467 1084 467 1084 467 1022 c 0,12,13
 467 968 467 968 496.5 927.5 c 128,-1,14
 526 887 526 887 569.5 856.5 c 128,-1,15
 613 826 613 826 662.5 802.5 c 128,-1,16
 712 779 712 779 752 760 c 1,17,18
 807 732 807 732 859.5 701 c 128,-1,19
 912 670 912 670 952.5 631 c 128,-1,20
 993 592 993 592 1017.5 541.5 c 128,-1,21
 1042 491 1042 491 1042 424 c 0,22,23
 1042 377 1042 377 1029 325.5 c 128,-1,24
 1016 274 1016 274 987 223 c 128,-1,25
 958 172 958 172 911 125.5 c 128,-1,26
 864 79 864 79 795.5 44 c 128,-1,27
 727 9 727 9 635.5 -12 c 128,-1,28
 544 -33 544 -33 426 -33 c 0,29,30
 342 -33 342 -33 268.5 -18.5 c 128,-1,31
 195 -4 195 -4 137.5 15.5 c 128,-1,32
 80 35 80 35 42 54 c 128,-1,33
 4 73 4 73 -10 82 c 1,34,-1
 61 418 l 1,35,-1
 236 418 l 1,36,-1
 213 174 l 2,37,38
 212 168 212 168 240 154.5 c 128,-1,39
 268 141 268 141 307 127.5 c 128,-1,40
 346 114 346 114 387.5 104 c 128,-1,41
 429 94 429 94 455 94 c 0,42,43
 501 94 501 94 552 111.5 c 128,-1,44
 603 129 603 129 645.5 164.5 c 128,-1,45
 688 200 688 200 715.5 253.5 c 128,-1,46
 743 307 743 307 743 379 c 0,47,48
 743 429 743 429 712.5 468 c 128,-1,49
 682 507 682 507 638.5 537.5 c 128,-1,50
 595 568 595 568 545.5 592 c 128,-1,51
 496 616 496 616 459 635 c 0,52,53
 404 663 404 663 352.5 693.5 c 128,-1,54
 301 724 301 724 261 761.5 c 128,-1,55
 221 799 221 799 196.5 846 c 128,-1,56
 172 893 172 893 172 954 c 0,57,58
 172 1053 172 1053 211.5 1136 c 128,-1,59
 251 1219 251 1219 325.5 1279 c 128,-1,60
 400 1339 400 1339 506.5 1373 c 128,-1,61
 613 1407 613 1407 748 1407 c 0,62,63
 817 1407 817 1407 875 1399.5 c 128,-1,64
 933 1392 933 1392 981.5 1380 c 128,-1,65
 1030 1368 1030 1368 1069 1353.5 c 128,-1,66
 1108 1339 1108 1339 1139 1325 c 1,67,-1
 1069 1006 l 1,0,-1
EndSplineSet
EndChar

StartChar: T
Encoding: 84 84 55
Width: 1286
Flags: W
LayerCount: 2
Fore
SplineSet
1343 1016 m 1,0,-1
 1184 1016 l 1,1,-1
 1194 1235 l 2,2,3
 1195 1248 1195 1248 1179.5 1255 c 128,-1,4
 1164 1262 1164 1262 1149 1262 c 2,5,-1
 926 1262 l 1,6,-1
 715 143 l 2,7,8
 712 125 712 125 723.5 120 c 128,-1,9
 735 115 735 115 754 113 c 0,10,11
 772 112 772 112 792 110 c 0,12,13
 809 108 809 108 830 106 c 2,14,-1
 872 102 l 1,15,-1
 872 0 l 1,16,-1
 254 0 l 1,17,-1
 254 102 l 1,18,19
 274 104 274 104 293.5 105 c 128,-1,20
 313 106 313 106 330 108 c 0,21,22
 349 110 349 110 367 111 c 0,23,24
 388 113 388 113 403.5 119 c 128,-1,25
 419 125 419 125 422 145 c 2,26,-1
 633 1262 l 1,27,-1
 422 1262 l 2,28,29
 415 1262 415 1262 406 1260 c 128,-1,30
 397 1258 397 1258 388.5 1254 c 128,-1,31
 380 1250 380 1250 373.5 1245 c 128,-1,32
 367 1240 367 1240 365 1233 c 2,33,-1
 287 1016 l 1,34,-1
 127 1016 l 1,35,-1
 197 1374 l 1,36,-1
 1417 1374 l 1,37,-1
 1343 1016 l 1,0,-1
EndSplineSet
EndChar

StartChar: U
Encoding: 85 85 56
Width: 1534
Flags: W
LayerCount: 2
Fore
SplineSet
1485 1262 m 2,0,1
 1471 1260 1471 1260 1463 1251.5 c 128,-1,2
 1455 1243 1455 1243 1452 1229 c 2,3,-1
 1294 440 l 2,4,5
 1273 333 1273 333 1227.5 246 c 128,-1,6
 1182 159 1182 159 1107.5 97 c 128,-1,7
 1033 35 1033 35 927 1 c 128,-1,8
 821 -33 821 -33 680 -33 c 0,9,10
 566 -33 566 -33 475 -11.5 c 128,-1,11
 384 10 384 10 320.5 54.5 c 128,-1,12
 257 99 257 99 222.5 168 c 128,-1,13
 188 237 188 237 188 332 c 0,14,15
 188 361 188 361 194.5 417.5 c 128,-1,16
 201 474 201 474 215 543 c 2,17,-1
 358 1231 l 2,18,19
 361 1249 361 1249 350 1254.5 c 128,-1,20
 339 1260 339 1260 317 1262 c 0,21,22
 300 1263 300 1263 281 1265 c 0,23,24
 264 1267 264 1267 243.5 1268.5 c 128,-1,25
 223 1270 223 1270 203 1272 c 1,26,-1
 203 1374 l 1,27,-1
 821 1374 l 1,28,-1
 821 1272 l 1,29,30
 797 1270 797 1270 774.5 1268.5 c 128,-1,31
 752 1267 752 1267 734 1265 c 0,32,33
 713 1263 713 1263 694 1262 c 1,34,35
 676 1260 676 1260 665 1253.5 c 128,-1,36
 654 1247 654 1247 651 1229 c 2,37,-1
 510 543 l 2,38,39
 498 484 498 484 492.5 437 c 128,-1,40
 487 390 487 390 487 362 c 0,41,42
 487 297 487 297 508 251 c 128,-1,43
 529 205 529 205 563.5 176 c 128,-1,44
 598 147 598 147 642.5 134 c 128,-1,45
 687 121 687 121 733 121 c 0,46,47
 813 121 813 121 871.5 150.5 c 128,-1,48
 930 180 930 180 971 232 c 128,-1,49
 1012 284 1012 284 1039 356 c 128,-1,50
 1066 428 1066 428 1083 512 c 2,51,-1
 1227 1231 l 2,52,53
 1230 1249 1230 1249 1221.5 1254.5 c 128,-1,54
 1213 1260 1213 1260 1188 1262 c 0,55,56
 1169 1263 1169 1263 1150 1265 c 0,57,58
 1133 1267 1133 1267 1112 1268.5 c 128,-1,59
 1091 1270 1091 1270 1071 1272 c 1,60,-1
 1071 1374 l 1,61,-1
 1620 1374 l 1,62,-1
 1620 1272 l 1,63,-1
 1485 1262 l 2,0,1
EndSplineSet
EndChar

StartChar: V
Encoding: 86 86 57
Width: 1403
Flags: W
LayerCount: 2
Fore
SplineSet
1440 1260 m 1,0,-1
 733 -33 l 1,1,-1
 498 -33 l 1,2,-1
 297 1235 l 2,3,4
 294 1255 294 1255 280.5 1260.5 c 128,-1,5
 267 1266 267 1266 250 1266 c 0,6,7
 237 1266 237 1266 223 1267 c 0,8,9
 211 1268 211 1268 197 1268.5 c 128,-1,10
 183 1269 183 1269 170 1270 c 1,11,-1
 170 1374 l 1,12,-1
 721 1374 l 1,13,-1
 721 1270 l 1,14,15
 704 1269 704 1269 688.5 1268.5 c 128,-1,16
 673 1268 673 1268 659 1268 c 2,17,-1
 629 1268 l 2,18,19
 612 1268 612 1268 600.5 1262 c 128,-1,20
 589 1256 589 1256 592 1237 c 2,21,-1
 725 383 l 1,22,-1
 1180 1237 l 1,23,24
 1184 1247 1184 1247 1182.5 1253 c 128,-1,25
 1181 1259 1181 1259 1176 1262 c 128,-1,26
 1171 1265 1171 1265 1164 1266 c 128,-1,27
 1157 1267 1157 1267 1151 1268 c 1,28,-1
 1118 1268 l 2,29,30
 1103 1268 1103 1268 1084.5 1268.5 c 128,-1,31
 1066 1269 1066 1269 1049 1270 c 1,32,-1
 1049 1374 l 1,33,-1
 1552 1374 l 1,34,-1
 1552 1272 l 1,35,-1
 1440 1260 l 1,0,-1
EndSplineSet
EndChar

StartChar: W
Encoding: 87 87 58
Width: 1985
Flags: W
LayerCount: 2
Fore
SplineSet
2009 1260 m 1,0,-1
 1393 -33 l 1,1,-1
 1184 -33 l 1,2,-1
 1079 907 l 1,3,-1
 633 -33 l 1,4,-1
 410 -33 l 1,5,-1
 305 1235 l 2,6,7
 303 1255 303 1255 292.5 1259.5 c 128,-1,8
 282 1264 282 1264 256 1266 c 0,9,10
 243 1266 243 1266 228 1267 c 0,11,12
 215 1268 215 1268 199.5 1268.5 c 128,-1,13
 184 1269 184 1269 170 1270 c 1,14,-1
 170 1374 l 1,15,-1
 729 1374 l 1,16,-1
 729 1270 l 1,17,18
 711 1269 711 1269 693.5 1268.5 c 128,-1,19
 676 1268 676 1268 662 1267 c 0,20,21
 645 1266 645 1266 631 1266 c 0,22,23
 618 1266 618 1266 607 1261 c 128,-1,24
 596 1256 596 1256 598 1237 c 2,25,-1
 657 514 l 1,26,-1
 1069 1374 l 1,27,-1
 1315 1374 l 1,28,-1
 1405 496 l 1,29,-1
 1751 1237 l 2,30,31
 1755 1247 1755 1247 1754 1253 c 128,-1,32
 1753 1259 1753 1259 1747.5 1262 c 128,-1,33
 1742 1265 1742 1265 1733 1266 c 128,-1,34
 1724 1267 1724 1267 1712 1268 c 1,35,-1
 1681 1268 l 2,36,37
 1667 1268 1667 1268 1651 1268.5 c 128,-1,38
 1635 1269 1635 1269 1620 1270 c 1,39,-1
 1620 1374 l 1,40,-1
 2134 1374 l 1,41,-1
 2134 1272 l 1,42,-1
 2009 1260 l 1,0,-1
EndSplineSet
EndChar

StartChar: X
Encoding: 88 88 59
Width: 1382
Flags: W
LayerCount: 2
Fore
SplineSet
1348 1262 m 2,0,1
 1326 1260 1326 1260 1315.5 1251.5 c 128,-1,2
 1305 1243 1305 1243 1300 1237 c 2,3,-1
 852 735 l 1,4,-1
 1120 135 l 1,5,6
 1128 120 1128 120 1136.5 116.5 c 128,-1,7
 1145 113 1145 113 1157 111 c 1,8,9
 1174 110 1174 110 1192 109 c 0,10,11
 1208 108 1208 108 1228.5 106 c 128,-1,12
 1249 104 1249 104 1272 102 c 1,13,-1
 1272 0 l 1,14,-1
 657 0 l 1,15,-1
 657 102 l 1,16,17
 677 104 677 104 698 105 c 128,-1,18
 719 106 719 106 736 108 c 0,19,20
 755 110 755 110 774 111 c 0,21,22
 786 112 786 112 795.5 113 c 128,-1,23
 805 114 805 114 811.5 117 c 128,-1,24
 818 120 818 120 819.5 125.5 c 128,-1,25
 821 131 821 131 817 141 c 2,26,-1
 659 502 l 1,27,-1
 330 141 l 2,28,29
 322 133 322 133 324.5 123 c 128,-1,30
 327 113 327 113 344 111 c 2,31,-1
 473 102 l 1,32,-1
 473 0 l 1,33,-1
 -90 0 l 1,34,-1
 -90 102 l 1,35,36
 -76 104 -76 104 -60.5 105 c 128,-1,37
 -45 106 -45 106 -33 108 c 0,38,39
 -19 110 -19 110 -6 111 c 256,40,41
 7 112 7 112 16 112.5 c 128,-1,42
 25 113 25 113 32 115.5 c 128,-1,43
 39 118 39 118 45 122.5 c 128,-1,44
 51 127 51 127 59 135 c 2,45,-1
 567 696 l 1,46,-1
 322 1239 l 2,47,48
 314 1256 314 1256 304.5 1259 c 128,-1,49
 295 1262 295 1262 272 1264 c 1,50,51
 256 1264 256 1264 239 1266 c 0,52,53
 225 1267 225 1267 206.5 1268.5 c 128,-1,54
 188 1270 188 1270 170 1272 c 1,55,-1
 170 1374 l 1,56,-1
 788 1374 l 1,57,-1
 788 1272 l 1,58,59
 763 1270 763 1270 739.5 1268.5 c 128,-1,60
 716 1267 716 1267 696 1266 c 0,61,62
 673 1265 673 1265 653 1264 c 0,63,64
 639 1264 639 1264 628 1257.5 c 128,-1,65
 617 1251 617 1251 625 1233 c 2,66,-1
 764 920 l 1,67,-1
 1044 1233 l 2,68,69
 1052 1241 1052 1241 1054 1250.5 c 128,-1,70
 1056 1260 1056 1260 1036 1262 c 2,71,-1
 926 1272 l 1,72,-1
 926 1374 l 1,73,-1
 1475 1374 l 1,74,-1
 1475 1272 l 1,75,-1
 1348 1262 l 2,0,1
EndSplineSet
EndChar

StartChar: Y
Encoding: 89 89 60
Width: 1395
Flags: W
LayerCount: 2
Fore
SplineSet
1411 1262 m 1,0,1
 1400 1260 1400 1260 1389.5 1251.5 c 128,-1,2
 1379 1243 1379 1243 1374 1237 c 2,3,-1
 854 575 l 1,4,-1
 768 143 l 1,5,6
 763 125 763 125 773 120 c 128,-1,7
 783 115 783 115 805 113 c 0,8,9
 823 112 823 112 842 110 c 0,10,11
 859 108 859 108 879.5 106 c 128,-1,12
 900 104 900 104 922 102 c 1,13,-1
 922 0 l 1,14,-1
 303 0 l 1,15,-1
 303 102 l 1,16,17
 323 104 323 104 344 106 c 128,-1,18
 365 108 365 108 382 110 c 0,19,20
 401 112 401 112 420 113 c 0,21,22
 440 115 440 115 453 120 c 128,-1,23
 466 125 466 125 471 145 c 2,24,-1
 555 559 l 1,25,-1
 326 1239 l 2,26,27
 321 1256 321 1256 307 1259 c 128,-1,28
 293 1262 293 1262 274 1264 c 1,29,30
 259 1264 259 1264 241 1266 c 0,31,32
 226 1267 226 1267 207.5 1268.5 c 128,-1,33
 189 1270 189 1270 172 1272 c 1,34,-1
 172 1374 l 1,35,-1
 788 1374 l 1,36,-1
 788 1272 l 1,37,38
 765 1270 765 1270 742.5 1268.5 c 128,-1,39
 720 1267 720 1267 702 1266 c 0,40,41
 681 1264 681 1264 662 1264 c 0,42,43
 645 1264 645 1264 633 1257.5 c 128,-1,44
 621 1251 621 1251 629 1231 c 1,45,-1
 770 786 l 1,46,-1
 1108 1233 l 2,47,48
 1114 1241 1114 1241 1110 1251.5 c 128,-1,49
 1106 1262 1106 1262 1083 1264 c 2,50,-1
 963 1272 l 1,51,-1
 963 1374 l 1,52,-1
 1542 1374 l 1,53,-1
 1542 1272 l 1,54,-1
 1411 1262 l 1,0,1
EndSplineSet
EndChar

StartChar: Z
Encoding: 90 90 61
Width: 1237
Flags: W
LayerCount: 2
Fore
SplineSet
1286 1272 m 1,0,-1
 332 127 l 1,1,-1
 836 127 l 2,2,3
 851 127 851 127 869.5 135.5 c 128,-1,4
 888 144 888 144 893 158 c 1,5,-1
 967 424 l 1,6,-1
 1139 424 l 1,7,-1
 1057 0 l 1,8,-1
 -43 0 l 1,9,-1
 -23 100 l 1,10,-1
 928 1247 l 1,11,-1
 502 1247 l 2,12,13
 486 1247 486 1247 467.5 1240.5 c 128,-1,14
 449 1234 449 1234 444 1219 c 2,15,-1
 379 1001 l 1,16,-1
 207 1001 l 1,17,-1
 281 1374 l 1,18,-1
 1307 1374 l 1,19,-1
 1286 1272 l 1,0,-1
EndSplineSet
EndChar

StartChar: bracketleft
Encoding: 91 91 62
Width: 918
Flags: W
LayerCount: 2
Fore
SplineSet
995 1327 m 1,0,-1
 682 1327 l 1,1,-1
 387 -152 l 1,2,-1
 702 -152 l 1,3,-1
 678 -270 l 1,4,-1
 111 -270 l 1,5,-1
 451 1450 l 1,6,-1
 1020 1450 l 1,7,-1
 995 1327 l 1,0,-1
EndSplineSet
EndChar

StartChar: backslash
Encoding: 92 92 63
Width: 1012
Flags: W
LayerCount: 2
Fore
SplineSet
852 -190 m 1,0,-1
 0 1374 l 1,1,-1
 160 1374 l 1,2,-1
 1012 -190 l 1,3,-1
 852 -190 l 1,0,-1
EndSplineSet
EndChar

StartChar: bracketright
Encoding: 93 93 64
Width: 918
Flags: W
LayerCount: 2
Fore
SplineSet
485 -270 m 1,0,-1
 -84 -270 l 1,1,-1
 -59 -152 l 1,2,-1
 256 -152 l 1,3,-1
 549 1327 l 1,4,-1
 233 1327 l 1,5,-1
 258 1450 l 1,6,-1
 825 1450 l 1,7,-1
 485 -270 l 1,0,-1
EndSplineSet
EndChar

StartChar: asciicircum
Encoding: 94 94 65
Width: 696
Flags: W
LayerCount: 2
Fore
SplineSet
641 1128 m 1,0,-1
 504 1323 l 1,1,-1
 287 1128 l 1,2,-1
 117 1128 l 1,3,-1
 414 1479 l 1,4,-1
 655 1479 l 1,5,-1
 813 1128 l 1,6,-1
 641 1128 l 1,0,-1
EndSplineSet
EndChar

StartChar: underscore
Encoding: 95 95 66
Width: 700
Flags: W
LayerCount: 2
Fore
SplineSet
537 -340 m 1,0,-1
 -163 -340 l 1,1,-1
 -130 -175 l 1,2,-1
 570 -175 l 1,3,-1
 537 -340 l 1,0,-1
EndSplineSet
EndChar

StartChar: grave
Encoding: 96 96 67
Width: 868
Flags: W
LayerCount: 2
Fore
SplineSet
557 1128 m 1,0,-1
 225 1309 l 2,1,2
 214 1315 214 1315 205 1325.5 c 128,-1,3
 196 1336 196 1336 189 1348 c 128,-1,4
 182 1360 182 1360 178 1372.5 c 128,-1,5
 174 1385 174 1385 174 1395 c 0,6,7
 174 1413 174 1413 180 1432.5 c 128,-1,8
 186 1452 186 1452 199.5 1467.5 c 128,-1,9
 213 1483 213 1483 235.5 1493 c 128,-1,10
 258 1503 258 1503 291 1503 c 0,11,12
 312 1503 312 1503 328 1500 c 128,-1,13
 344 1497 344 1497 358.5 1489.5 c 128,-1,14
 373 1482 373 1482 387.5 1469.5 c 128,-1,15
 402 1457 402 1457 420 1438 c 2,16,-1
 700 1128 l 1,17,-1
 557 1128 l 1,0,-1
EndSplineSet
EndChar

StartChar: a
Encoding: 97 97 68
Width: 1163
Flags: W
LayerCount: 2
Fore
SplineSet
768 807 m 0,0,1
 769 811 769 811 767.5 827 c 128,-1,2
 766 843 766 843 761.5 860.5 c 128,-1,3
 757 878 757 878 750.5 891.5 c 128,-1,4
 744 905 744 905 735 905 c 0,5,6
 669 905 669 905 615.5 881 c 128,-1,7
 562 857 562 857 519.5 816 c 128,-1,8
 477 775 477 775 446 721 c 128,-1,9
 415 667 415 667 394.5 606.5 c 128,-1,10
 374 546 374 546 364 483 c 128,-1,11
 354 420 354 420 354 362 c 0,12,13
 354 321 354 321 355.5 280 c 128,-1,14
 357 239 357 239 367.5 205 c 128,-1,15
 378 171 378 171 402.5 150 c 128,-1,16
 427 129 427 129 473 129 c 0,17,18
 506 129 506 129 535.5 144 c 128,-1,19
 565 159 565 159 589.5 178.5 c 128,-1,20
 614 198 614 198 632.5 218 c 128,-1,21
 651 238 651 238 662 248 c 1,22,23
 669 289 669 289 673.5 311.5 c 128,-1,24
 678 334 678 334 681.5 354.5 c 128,-1,25
 685 375 685 375 690 401 c 128,-1,26
 695 427 695 427 704.5 475.5 c 128,-1,27
 714 524 714 524 729 602.5 c 128,-1,28
 744 681 744 681 768 807 c 0,0,1
1157 61 m 1,29,30
 1122 47 1122 47 1083.5 32 c 128,-1,31
 1045 17 1045 17 1005 4.5 c 128,-1,32
 965 -8 965 -8 925 -16.5 c 128,-1,33
 885 -25 885 -25 846 -25 c 0,34,35
 781 -25 781 -25 737.5 -1 c 128,-1,36
 694 23 694 23 674 68 c 1,37,38
 647 50 647 50 616 33 c 128,-1,39
 585 16 585 16 551 3.5 c 128,-1,40
 517 -9 517 -9 481 -17 c 128,-1,41
 445 -25 445 -25 408 -25 c 0,42,43
 345 -25 345 -25 295 -8 c 128,-1,44
 245 9 245 9 207 38 c 128,-1,45
 169 67 169 67 142.5 105 c 128,-1,46
 116 143 116 143 99 184.5 c 128,-1,47
 82 226 82 226 74 269 c 128,-1,48
 66 312 66 312 66 350 c 0,49,50
 66 426 66 426 82.5 505.5 c 128,-1,51
 99 585 99 585 133.5 660 c 128,-1,52
 168 735 168 735 220 801.5 c 128,-1,53
 272 868 272 868 343 917.5 c 128,-1,54
 414 967 414 967 504.5 995.5 c 128,-1,55
 595 1024 595 1024 705 1024 c 0,56,57
 750 1024 750 1024 794.5 1012 c 128,-1,58
 839 1000 839 1000 874 981 c 1,59,-1
 889 999 l 1,60,-1
 1108 999 l 1,61,62
 1103 984 1103 984 1095 965 c 128,-1,63
 1087 946 1087 946 1079 928 c 128,-1,64
 1071 910 1071 910 1064.5 895.5 c 128,-1,65
 1058 881 1058 881 1057 874 c 2,66,-1
 924 199 l 1,67,68
 924 176 924 176 925.5 160 c 128,-1,69
 927 144 927 144 933 134.5 c 128,-1,70
 939 125 939 125 950 121 c 128,-1,71
 961 117 961 117 979 117 c 0,72,73
 983 117 983 117 1008.5 123 c 128,-1,74
 1034 129 1034 129 1064.5 137 c 128,-1,75
 1095 145 1095 145 1122 151.5 c 128,-1,76
 1149 158 1149 158 1157 160 c 1,77,-1
 1157 61 l 1,29,30
EndSplineSet
EndChar

StartChar: b
Encoding: 98 98 69
Width: 1090
Flags: W
LayerCount: 2
Fore
SplineSet
741 629 m 0,0,1
 741 693 741 693 731 738.5 c 128,-1,2
 721 784 721 784 705.5 813 c 128,-1,3
 690 842 690 842 671.5 855 c 128,-1,4
 653 868 653 868 635 868 c 0,5,6
 592 868 592 868 539.5 841 c 128,-1,7
 487 814 487 814 440 774 c 1,8,-1
 326 162 l 1,9,10
 342 136 342 136 372.5 113 c 128,-1,11
 403 90 403 90 451 90 c 0,12,13
 485 90 485 90 519.5 112.5 c 128,-1,14
 554 135 554 135 586 173.5 c 128,-1,15
 618 212 618 212 646.5 264 c 128,-1,16
 675 316 675 316 696 376 c 128,-1,17
 717 436 717 436 729 501 c 128,-1,18
 741 566 741 566 741 629 c 0,0,1
1026 637 m 0,19,20
 1026 576 1026 576 1013 503 c 128,-1,21
 1000 430 1000 430 970 356.5 c 128,-1,22
 940 283 940 283 892.5 214.5 c 128,-1,23
 845 146 845 146 776.5 92.5 c 128,-1,24
 708 39 708 39 616.5 7 c 128,-1,25
 525 -25 525 -25 408 -25 c 0,26,27
 296 -25 296 -25 203.5 2.5 c 128,-1,28
 111 30 111 30 37 78 c 1,29,-1
 276 1354 l 1,30,-1
 96 1370 l 1,31,-1
 96 1444 l 1,32,-1
 442 1509 l 1,33,-1
 582 1509 l 1,34,-1
 475 958 l 1,35,36
 531 987 531 987 589.5 1005.5 c 128,-1,37
 648 1024 648 1024 702 1024 c 0,38,39
 784 1024 784 1024 845 987.5 c 128,-1,40
 906 951 906 951 946.5 895 c 128,-1,41
 987 839 987 839 1006.5 770 c 128,-1,42
 1026 701 1026 701 1026 637 c 0,19,20
EndSplineSet
EndChar

StartChar: c
Encoding: 99 99 70
Width: 985
Flags: W
LayerCount: 2
Fore
SplineSet
922 872 m 0,0,1
 922 854 922 854 913 827 c 128,-1,2
 904 800 904 800 881.5 775 c 128,-1,3
 859 750 859 750 821 732.5 c 128,-1,4
 783 715 783 715 725 715 c 1,5,-1
 612 874 l 1,6,7
 554 861 554 861 512 826 c 128,-1,8
 470 791 470 791 441 744 c 128,-1,9
 412 697 412 697 393.5 643 c 128,-1,10
 375 589 375 589 365 539 c 128,-1,11
 355 489 355 489 351.5 448.5 c 128,-1,12
 348 408 348 408 348 387 c 0,13,14
 348 340 348 340 352 293.5 c 128,-1,15
 356 247 356 247 370.5 210 c 128,-1,16
 385 173 385 173 413.5 150 c 128,-1,17
 442 127 442 127 492 127 c 0,18,19
 530 127 530 127 569 138 c 128,-1,20
 608 149 608 149 653.5 179 c 128,-1,21
 699 209 699 209 753.5 261.5 c 128,-1,22
 808 314 808 314 877 397 c 1,23,-1
 877 193 l 1,24,25
 835 143 835 143 787 103 c 128,-1,26
 739 63 739 63 683.5 34.5 c 128,-1,27
 628 6 628 6 564.5 -9.5 c 128,-1,28
 501 -25 501 -25 428 -25 c 0,29,30
 334 -25 334 -25 266 3 c 128,-1,31
 198 31 198 31 154 82 c 128,-1,32
 110 133 110 133 89 205 c 128,-1,33
 68 277 68 277 68 365 c 0,34,35
 68 498 68 498 109.5 617.5 c 128,-1,36
 151 737 151 737 230.5 827.5 c 128,-1,37
 310 918 310 918 424.5 971 c 128,-1,38
 539 1024 539 1024 686 1024 c 0,39,40
 747 1024 747 1024 791.5 1009.5 c 128,-1,41
 836 995 836 995 865 972.5 c 128,-1,42
 894 950 894 950 908 923.5 c 128,-1,43
 922 897 922 897 922 872 c 0,0,1
EndSplineSet
EndChar

StartChar: d
Encoding: 100 100 71
Width: 1159
Flags: W
LayerCount: 2
Fore
SplineSet
770 807 m 2,0,1
 771 811 771 811 764 827 c 128,-1,2
 757 843 757 843 745 861 c 128,-1,3
 733 879 733 879 716.5 893 c 128,-1,4
 700 907 700 907 682 907 c 0,5,6
 628 907 628 907 569.5 867 c 128,-1,7
 511 827 511 827 461.5 754.5 c 128,-1,8
 412 682 412 682 380 581 c 128,-1,9
 348 480 348 480 348 358 c 0,10,11
 348 234 348 234 378 177.5 c 128,-1,12
 408 121 408 121 465 121 c 0,13,14
 491 121 491 121 517.5 134 c 128,-1,15
 544 147 544 147 570.5 169 c 128,-1,16
 597 191 597 191 623.5 218.5 c 128,-1,17
 650 246 650 246 676 276 c 1,18,-1
 770 807 l 2,0,1
932 184 m 2,19,20
 927 159 927 159 929.5 142.5 c 128,-1,21
 932 126 932 126 937.5 116.5 c 128,-1,22
 943 107 943 107 951 103.5 c 128,-1,23
 959 100 959 100 965 100 c 0,24,25
 986 100 986 100 1012 106.5 c 128,-1,26
 1038 113 1038 113 1064.5 122.5 c 128,-1,27
 1091 132 1091 132 1114.5 142.5 c 128,-1,28
 1138 153 1138 153 1155 162 c 1,29,-1
 1155 61 l 1,30,31
 1129 46 1129 46 1092 30.5 c 128,-1,32
 1055 15 1055 15 1013 2.5 c 128,-1,33
 971 -10 971 -10 927.5 -17.5 c 128,-1,34
 884 -25 884 -25 844 -25 c 0,35,36
 766 -25 766 -25 721 1 c 128,-1,37
 676 27 676 27 659 74 c 1,38,39
 632 53 632 53 600.5 35 c 128,-1,40
 569 17 569 17 535.5 3.5 c 128,-1,41
 502 -10 502 -10 468 -17.5 c 128,-1,42
 434 -25 434 -25 401 -25 c 0,43,44
 312 -25 312 -25 248.5 8 c 128,-1,45
 185 41 185 41 144.5 94.5 c 128,-1,46
 104 148 104 148 85 214 c 128,-1,47
 66 280 66 280 66 346 c 0,48,49
 66 424 66 424 83 505 c 128,-1,50
 100 586 100 586 134.5 661 c 128,-1,51
 169 736 169 736 220.5 802.5 c 128,-1,52
 272 869 272 869 341 918 c 128,-1,53
 410 967 410 967 496.5 995.5 c 128,-1,54
 583 1024 583 1024 686 1024 c 0,55,56
 724 1024 724 1024 754.5 1015 c 128,-1,57
 785 1006 785 1006 805 999 c 1,58,-1
 866 1354 l 1,59,-1
 682 1370 l 1,60,-1
 682 1444 l 1,61,-1
 1028 1509 l 1,62,-1
 1167 1509 l 1,63,-1
 932 184 l 2,19,20
EndSplineSet
EndChar

StartChar: e
Encoding: 101 101 72
Width: 983
Flags: W
LayerCount: 2
Fore
SplineSet
682 811 m 0,0,1
 682 829 682 829 679.5 846.5 c 128,-1,2
 677 864 677 864 669.5 878 c 128,-1,3
 662 892 662 892 647.5 900.5 c 128,-1,4
 633 909 633 909 610 909 c 0,5,6
 562 909 562 909 524.5 875 c 128,-1,7
 487 841 487 841 458 788.5 c 128,-1,8
 429 736 429 736 408 673.5 c 128,-1,9
 387 611 387 611 373 555 c 1,10,11
 426 567 426 567 481 591 c 128,-1,12
 536 615 536 615 580.5 648.5 c 128,-1,13
 625 682 625 682 653.5 723 c 128,-1,14
 682 764 682 764 682 811 c 0,0,1
948 809 m 0,15,16
 948 755 948 755 923.5 709 c 128,-1,17
 899 663 899 663 856 625 c 128,-1,18
 813 587 813 587 755.5 556.5 c 128,-1,19
 698 526 698 526 632.5 504 c 128,-1,20
 567 482 567 482 496.5 468.5 c 128,-1,21
 426 455 426 455 358 449 c 1,22,23
 356 430 356 430 354 406 c 128,-1,24
 352 382 352 382 352 365 c 0,25,26
 352 312 352 312 360 267 c 128,-1,27
 368 222 368 222 386 189 c 128,-1,28
 404 156 404 156 433.5 137.5 c 128,-1,29
 463 119 463 119 506 119 c 0,30,31
 539 119 539 119 573 132 c 128,-1,32
 607 145 607 145 652 175.5 c 128,-1,33
 697 206 697 206 757 256 c 128,-1,34
 817 306 817 306 901 379 c 1,35,-1
 901 184 l 1,36,37
 871 155 871 155 823 118.5 c 128,-1,38
 775 82 775 82 714 50 c 128,-1,39
 653 18 653 18 583 -3.5 c 128,-1,40
 513 -25 513 -25 438 -25 c 0,41,42
 371 -25 371 -25 305 -8 c 128,-1,43
 239 9 239 9 186.5 52 c 128,-1,44
 134 95 134 95 101 168.5 c 128,-1,45
 68 242 68 242 68 356 c 0,46,47
 68 434 68 434 87.5 514 c 128,-1,48
 107 594 107 594 143 668 c 128,-1,49
 179 742 179 742 231 807 c 128,-1,50
 283 872 283 872 348.5 920 c 128,-1,51
 414 968 414 968 492 996 c 128,-1,52
 570 1024 570 1024 657 1024 c 0,53,54
 732 1024 732 1024 787 999 c 128,-1,55
 842 974 842 974 878 939.5 c 128,-1,56
 914 905 914 905 931 868.5 c 128,-1,57
 948 832 948 832 948 809 c 0,15,16
EndSplineSet
EndChar

StartChar: f
Encoding: 102 102 73
Width: 741
Flags: W
LayerCount: 2
Fore
SplineSet
987 1372 m 0,0,1
 987 1349 987 1349 980 1326.5 c 128,-1,2
 973 1304 973 1304 953.5 1285 c 128,-1,3
 934 1266 934 1266 899.5 1251 c 128,-1,4
 865 1236 865 1236 811 1229 c 1,5,-1
 684 1350 l 1,6,7
 642 1313 642 1313 616.5 1258 c 128,-1,8
 591 1203 591 1203 576 1144.5 c 128,-1,9
 561 1086 561 1086 554 1031.5 c 128,-1,10
 547 977 547 977 541 940 c 1,11,-1
 791 940 l 1,12,-1
 791 819 l 1,13,-1
 520 819 l 1,14,15
 516 790 516 790 508 732.5 c 128,-1,16
 500 675 500 675 489.5 601.5 c 128,-1,17
 479 528 479 528 466.5 446 c 128,-1,18
 454 364 454 364 442 288 c 128,-1,19
 430 212 430 212 419 148.5 c 128,-1,20
 408 85 408 85 399 49 c 0,21,22
 386 -5 386 -5 362 -64.5 c 128,-1,23
 338 -124 338 -124 304 -181.5 c 128,-1,24
 270 -239 270 -239 227.5 -291 c 128,-1,25
 185 -343 185 -343 134.5 -382.5 c 128,-1,26
 84 -422 84 -422 26 -445.5 c 128,-1,27
 -32 -469 -32 -469 -96 -469 c 0,28,29
 -140 -469 -140 -469 -172 -453.5 c 128,-1,30
 -204 -438 -204 -438 -225 -416 c 128,-1,31
 -246 -394 -246 -394 -256 -369 c 128,-1,32
 -266 -344 -266 -344 -266 -326 c 0,33,34
 -266 -285 -266 -285 -240 -244 c 128,-1,35
 -214 -203 -214 -203 -172 -174 c 1,36,-1
 12 -291 l 1,37,38
 36 -257 36 -257 56 -211.5 c 128,-1,39
 76 -166 76 -166 92.5 -111.5 c 128,-1,40
 109 -57 109 -57 123.5 4.5 c 128,-1,41
 138 66 138 66 150 131 c 0,42,43
 176 273 176 273 196.5 445 c 128,-1,44
 217 617 217 617 246 813 c 1,45,-1
 90 797 l 1,46,-1
 94 893 l 1,47,-1
 270 954 l 1,48,49
 280 1005 280 1005 297 1065.5 c 128,-1,50
 314 1126 314 1126 341 1188 c 128,-1,51
 368 1250 368 1250 405 1307.5 c 128,-1,52
 442 1365 442 1365 493 1410 c 128,-1,53
 544 1455 544 1455 609.5 1482 c 128,-1,54
 675 1509 675 1509 758 1509 c 0,55,56
 815 1509 815 1509 857.5 1495 c 128,-1,57
 900 1481 900 1481 929 1460.5 c 128,-1,58
 958 1440 958 1440 972.5 1416 c 128,-1,59
 987 1392 987 1392 987 1372 c 0,0,1
EndSplineSet
EndChar

StartChar: g
Encoding: 103 103 74
Width: 995
Flags: W
LayerCount: 2
Fore
SplineSet
666 -170 m 0,0,1
 666 -135 666 -135 644 -104 c 128,-1,2
 622 -73 622 -73 565 -47 c 1,3,-1
 336 53 l 1,4,5
 302 40 302 40 279 21 c 128,-1,6
 256 2 256 2 241.5 -21.5 c 128,-1,7
 227 -45 227 -45 221 -72 c 128,-1,8
 215 -99 215 -99 215 -127 c 0,9,10
 215 -160 215 -160 225 -199.5 c 128,-1,11
 235 -239 235 -239 259.5 -273.5 c 128,-1,12
 284 -308 284 -308 325.5 -331 c 128,-1,13
 367 -354 367 -354 430 -354 c 0,14,15
 500 -354 500 -354 545.5 -334 c 128,-1,16
 591 -314 591 -314 618 -285.5 c 128,-1,17
 645 -257 645 -257 655.5 -225.5 c 128,-1,18
 666 -194 666 -194 666 -170 c 0,0,1
643 737 m 0,19,20
 643 773 643 773 642 806 c 128,-1,21
 641 839 641 839 633.5 864 c 128,-1,22
 626 889 626 889 610 903.5 c 128,-1,23
 594 918 594 918 565 918 c 0,24,25
 548 918 548 918 517.5 894 c 128,-1,26
 487 870 487 870 457 826 c 128,-1,27
 427 782 427 782 405 720.5 c 128,-1,28
 383 659 383 659 383 584 c 0,29,30
 383 548 383 548 385.5 518.5 c 128,-1,31
 388 489 388 489 395.5 467.5 c 128,-1,32
 403 446 403 446 418 434 c 128,-1,33
 433 422 433 422 459 422 c 0,34,35
 510 422 510 422 545 453.5 c 128,-1,36
 580 485 580 485 601.5 532.5 c 128,-1,37
 623 580 623 580 633 635 c 128,-1,38
 643 690 643 690 643 737 c 0,19,20
903 854 m 1,39,40
 912 831 912 831 919 797.5 c 128,-1,41
 926 764 926 764 926 727 c 0,42,43
 926 651 926 651 896.5 579 c 128,-1,44
 867 507 867 507 809.5 451 c 128,-1,45
 752 395 752 395 667 361 c 128,-1,46
 582 327 582 327 471 326 c 1,47,48
 460 297 460 297 455 267.5 c 128,-1,49
 450 238 450 238 453 221 c 1,50,-1
 725 98 l 1,51,52
 774 77 774 77 814 55.5 c 128,-1,53
 854 34 854 34 882.5 8 c 128,-1,54
 911 -18 911 -18 926.5 -51 c 128,-1,55
 942 -84 942 -84 942 -129 c 0,56,57
 942 -194 942 -194 897 -255 c 128,-1,58
 852 -316 852 -316 775 -363.5 c 128,-1,59
 698 -411 698 -411 595.5 -440 c 128,-1,60
 493 -469 493 -469 377 -469 c 0,61,62
 255 -469 255 -469 171.5 -441.5 c 128,-1,63
 88 -414 88 -414 35.5 -370.5 c 128,-1,64
 -17 -327 -17 -327 -40 -272 c 128,-1,65
 -63 -217 -63 -217 -63 -162 c 0,66,67
 -63 -110 -63 -110 -42 -66 c 128,-1,68
 -21 -22 -21 -22 16 14 c 128,-1,69
 53 50 53 50 103 77.5 c 128,-1,70
 153 105 153 105 211 125 c 1,71,72
 207 149 207 149 211.5 179.5 c 128,-1,73
 216 210 216 210 226.5 241.5 c 128,-1,74
 237 273 237 273 253 302 c 128,-1,75
 269 331 269 331 289 352 c 1,76,77
 248 371 248 371 213.5 395.5 c 128,-1,78
 179 420 179 420 153.5 451 c 128,-1,79
 128 482 128 482 114 521 c 128,-1,80
 100 560 100 560 100 608 c 256,81,82
 100 656 100 656 112 705.5 c 128,-1,83
 124 755 124 755 149 801 c 128,-1,84
 174 847 174 847 211.5 887.5 c 128,-1,85
 249 928 249 928 300.5 958.5 c 128,-1,86
 352 989 352 989 417 1006.5 c 128,-1,87
 482 1024 482 1024 561 1024 c 0,88,89
 600 1024 600 1024 635.5 1018.5 c 128,-1,90
 671 1013 671 1013 701 1004.5 c 128,-1,91
 731 996 731 996 754.5 987.5 c 128,-1,92
 778 979 778 979 793 973 c 1,93,-1
 1092 973 l 1,94,-1
 1092 854 l 1,95,-1
 903 854 l 1,39,40
EndSplineSet
EndChar

StartChar: h
Encoding: 104 104 75
Width: 1157
Flags: W
LayerCount: 2
Fore
SplineSet
1153 57 m 1,0,1
 1076 20 1076 20 997.5 -2.5 c 128,-1,2
 919 -25 919 -25 838 -25 c 0,3,4
 802 -25 802 -25 764.5 -17.5 c 128,-1,5
 727 -10 727 -10 698 7 c 128,-1,6
 669 24 669 24 654 51.5 c 128,-1,7
 639 79 639 79 647 119 c 2,8,-1
 770 715 l 2,9,10
 778 752 778 752 773.5 780.5 c 128,-1,11
 769 809 769 809 758 828.5 c 128,-1,12
 747 848 747 848 731 858 c 128,-1,13
 715 868 715 868 700 868 c 0,14,15
 677 868 677 868 648 856.5 c 128,-1,16
 619 845 619 845 587 824.5 c 128,-1,17
 555 804 555 804 521.5 776.5 c 128,-1,18
 488 749 488 749 457 717 c 1,19,-1
 307 0 l 1,20,-1
 35 0 l 1,21,-1
 317 1354 l 1,22,-1
 137 1370 l 1,23,-1
 137 1444 l 1,24,-1
 483 1509 l 1,25,-1
 625 1509 l 1,26,-1
 502 930 l 1,27,28
 564 968 564 968 643 996 c 128,-1,29
 722 1024 722 1024 813 1024 c 0,30,31
 890 1024 890 1024 941 1003 c 128,-1,32
 992 982 992 982 1020.5 944 c 128,-1,33
 1049 906 1049 906 1055.5 852.5 c 128,-1,34
 1062 799 1062 799 1049 735 c 2,35,-1
 934 193 l 2,36,37
 929 167 929 167 932.5 150 c 128,-1,38
 936 133 936 133 944 122 c 128,-1,39
 952 111 952 111 962 106.5 c 128,-1,40
 972 102 972 102 981 102 c 0,41,42
 1026 102 1026 102 1065.5 118 c 128,-1,43
 1105 134 1105 134 1151 160 c 1,44,-1
 1153 57 l 1,0,1
EndSplineSet
EndChar

StartChar: i
Encoding: 105 105 76
Width: 635
Flags: W
LayerCount: 2
Fore
SplineSet
631 66 m 1,0,1
 539 16 539 16 456 -4.5 c 128,-1,2
 373 -25 373 -25 285 -25 c 0,3,4
 229 -25 229 -25 190.5 -6 c 128,-1,5
 152 13 152 13 130 43 c 128,-1,6
 108 73 108 73 101 110.5 c 128,-1,7
 94 148 94 148 102 186 c 2,8,-1
 231 866 l 1,9,-1
 55 885 l 1,10,-1
 55 956 l 1,11,-1
 393 1024 l 1,12,-1
 537 1024 l 1,13,-1
 379 203 l 2,14,15
 375 185 375 185 374 168 c 128,-1,16
 373 151 373 151 376.5 138 c 128,-1,17
 380 125 380 125 390 117 c 128,-1,18
 400 109 400 109 418 109 c 0,19,20
 426 109 426 109 449.5 114 c 128,-1,21
 473 119 473 119 504 128 c 128,-1,22
 535 137 535 137 568.5 150 c 128,-1,23
 602 163 602 163 631 178 c 1,24,-1
 631 66 l 1,0,1
604 1358 m 256,25,26
 604 1325 604 1325 591.5 1296 c 128,-1,27
 579 1267 579 1267 557 1245 c 128,-1,28
 535 1223 535 1223 506 1210.5 c 128,-1,29
 477 1198 477 1198 444 1198 c 256,30,31
 411 1198 411 1198 382.5 1210.5 c 128,-1,32
 354 1223 354 1223 332.5 1245 c 128,-1,33
 311 1267 311 1267 299 1296 c 128,-1,34
 287 1325 287 1325 287 1358 c 256,35,36
 287 1391 287 1391 299 1420 c 128,-1,37
 311 1449 311 1449 332.5 1470 c 128,-1,38
 354 1491 354 1491 382.5 1503.5 c 128,-1,39
 411 1516 411 1516 444 1516 c 256,40,41
 477 1516 477 1516 506 1503.5 c 128,-1,42
 535 1491 535 1491 557 1470 c 128,-1,43
 579 1449 579 1449 591.5 1420 c 128,-1,44
 604 1391 604 1391 604 1358 c 256,25,26
EndSplineSet
EndChar

StartChar: j
Encoding: 106 106 77
Width: 651
Flags: W
LayerCount: 2
Fore
SplineSet
418 172 m 2,0,1
 409 120 409 120 387.5 52.5 c 128,-1,2
 366 -15 366 -15 333.5 -86 c 128,-1,3
 301 -157 301 -157 258 -226 c 128,-1,4
 215 -295 215 -295 162 -349 c 128,-1,5
 109 -403 109 -403 47 -436 c 128,-1,6
 -15 -469 -15 -469 -86 -469 c 0,7,8
 -122 -469 -122 -469 -154.5 -460 c 128,-1,9
 -187 -451 -187 -451 -211 -435 c 128,-1,10
 -235 -419 -235 -419 -249.5 -397.5 c 128,-1,11
 -264 -376 -264 -376 -264 -350 c 0,12,13
 -264 -331 -264 -331 -257.5 -315.5 c 128,-1,14
 -251 -300 -251 -300 -239.5 -287 c 128,-1,15
 -228 -274 -228 -274 -213 -262.5 c 128,-1,16
 -198 -251 -198 -251 -180 -240 c 1,17,-1
 14 -291 l 1,18,19
 28 -269 28 -269 42.5 -237 c 128,-1,20
 57 -205 57 -205 70.5 -167.5 c 128,-1,21
 84 -130 84 -130 95 -90 c 128,-1,22
 106 -50 106 -50 113 -12 c 2,23,-1
 264 864 l 1,24,-1
 88 883 l 1,25,-1
 88 956 l 1,26,-1
 428 1024 l 1,27,-1
 563 1024 l 1,28,-1
 418 172 l 2,0,1
637 1358 m 256,29,30
 637 1325 637 1325 624 1296 c 128,-1,31
 611 1267 611 1267 589 1245 c 128,-1,32
 567 1223 567 1223 537.5 1210.5 c 128,-1,33
 508 1198 508 1198 475 1198 c 256,34,35
 442 1198 442 1198 413 1210.5 c 128,-1,36
 384 1223 384 1223 363 1245 c 128,-1,37
 342 1267 342 1267 329.5 1296 c 128,-1,38
 317 1325 317 1325 317 1358 c 256,39,40
 317 1391 317 1391 329.5 1420 c 128,-1,41
 342 1449 342 1449 363 1470 c 128,-1,42
 384 1491 384 1491 413 1503.5 c 128,-1,43
 442 1516 442 1516 475 1516 c 256,44,45
 508 1516 508 1516 537.5 1503.5 c 128,-1,46
 567 1491 567 1491 589 1470 c 128,-1,47
 611 1449 611 1449 624 1420 c 128,-1,48
 637 1391 637 1391 637 1358 c 256,29,30
EndSplineSet
EndChar

StartChar: k
Encoding: 107 107 78
Width: 1126
Flags: W
LayerCount: 2
Fore
SplineSet
1102 53 m 1,0,1
 1076 40 1076 40 1040 26 c 128,-1,2
 1004 12 1004 12 964 1 c 128,-1,3
 924 -10 924 -10 883 -17.5 c 128,-1,4
 842 -25 842 -25 807 -25 c 0,5,6
 779 -25 779 -25 750 -15 c 128,-1,7
 721 -5 721 -5 694 11 c 128,-1,8
 667 27 667 27 644.5 47 c 128,-1,9
 622 67 622 67 608 88 c 0,10,11
 591 114 591 114 567.5 160 c 128,-1,12
 544 206 544 206 519 258.5 c 128,-1,13
 494 311 494 311 469.5 364 c 128,-1,14
 445 417 445 417 426 459 c 1,15,-1
 383 420 l 1,16,-1
 297 0 l 1,17,-1
 25 0 l 1,18,-1
 299 1354 l 1,19,-1
 119 1370 l 1,20,-1
 119 1444 l 1,21,-1
 465 1509 l 1,22,-1
 604 1509 l 1,23,-1
 432 668 l 1,24,-1
 662 903 l 1,25,26
 725 969 725 969 781 996.5 c 128,-1,27
 837 1024 837 1024 897 1024 c 0,28,29
 934 1024 934 1024 966 1013.5 c 128,-1,30
 998 1003 998 1003 1021.5 985.5 c 128,-1,31
 1045 968 1045 968 1058 947 c 128,-1,32
 1071 926 1071 926 1071 905 c 0,33,34
 1071 887 1071 887 1066.5 861 c 128,-1,35
 1062 835 1062 835 1045 807.5 c 128,-1,36
 1028 780 1028 780 994 753.5 c 128,-1,37
 960 727 960 727 901 707 c 1,38,-1
 819 840 l 1,39,40
 795 819 795 819 767 792.5 c 128,-1,41
 739 766 739 766 711.5 739.5 c 128,-1,42
 684 713 684 713 658.5 688.5 c 128,-1,43
 633 664 633 664 614 647 c 1,44,45
 628 621 628 621 644.5 581 c 128,-1,46
 661 541 661 541 679.5 495 c 128,-1,47
 698 449 698 449 718.5 401 c 128,-1,48
 739 353 739 353 762 311 c 0,49,50
 784 271 784 271 804 234 c 128,-1,51
 824 197 824 197 844 168 c 128,-1,52
 864 139 864 139 886 121.5 c 128,-1,53
 908 104 908 104 934 104 c 0,54,55
 936 104 936 104 975.5 115.5 c 128,-1,56
 1015 127 1015 127 1102 162 c 1,57,-1
 1102 53 l 1,0,1
EndSplineSet
EndChar

StartChar: l
Encoding: 108 108 79
Width: 627
Flags: W
LayerCount: 2
Fore
SplineSet
623 59 m 1,0,1
 548 21 548 21 461.5 -2 c 128,-1,2
 375 -25 375 -25 295 -25 c 0,3,4
 193 -25 193 -25 136.5 17.5 c 128,-1,5
 80 60 80 60 80 131 c 0,6,7
 80 148 80 148 81.5 166.5 c 128,-1,8
 83 185 83 185 88 205 c 1,9,-1
 311 1354 l 1,10,-1
 131 1370 l 1,11,-1
 131 1444 l 1,12,-1
 477 1509 l 1,13,-1
 612 1509 l 1,14,-1
 360 209 l 2,15,16
 357 191 357 191 357.5 173.5 c 128,-1,17
 358 156 358 156 364 141.5 c 128,-1,18
 370 127 370 127 382 118 c 128,-1,19
 394 109 394 109 414 109 c 0,20,21
 438 109 438 109 494 123.5 c 128,-1,22
 550 138 550 138 623 170 c 1,23,-1
 623 59 l 1,0,1
EndSplineSet
EndChar

StartChar: m
Encoding: 109 109 80
Width: 1692
Flags: W
LayerCount: 2
Fore
SplineSet
1686 59 m 1,0,1
 1608 19 1608 19 1535.5 -3 c 128,-1,2
 1463 -25 1463 -25 1384 -25 c 0,3,4
 1337 -25 1337 -25 1296.5 -15.5 c 128,-1,5
 1256 -6 1256 -6 1227 13.5 c 128,-1,6
 1198 33 1198 33 1184 61 c 128,-1,7
 1170 89 1170 89 1178 127 c 2,8,-1
 1290 672 l 1,9,10
 1331 864 1331 864 1251 864 c 0,11,12
 1206 864 1206 864 1166.5 844.5 c 128,-1,13
 1127 825 1127 825 1096.5 798 c 128,-1,14
 1066 771 1066 771 1044 743 c 128,-1,15
 1022 715 1022 715 1012 698 c 1,16,-1
 864 0 l 1,17,-1
 594 0 l 1,18,-1
 735 674 l 2,19,20
 741 704 741 704 746.5 737.5 c 128,-1,21
 752 771 752 771 749.5 799 c 128,-1,22
 747 827 747 827 733 845.5 c 128,-1,23
 719 864 719 864 686 864 c 0,24,25
 654 864 654 864 621 846.5 c 128,-1,26
 588 829 588 829 558 803 c 128,-1,27
 528 777 528 777 501.5 747.5 c 128,-1,28
 475 718 475 718 455 694 c 1,29,-1
 309 0 l 1,30,-1
 37 0 l 1,31,-1
 217 870 l 1,32,-1
 45 887 l 1,33,-1
 45 956 l 1,34,-1
 383 1024 l 1,35,-1
 524 1024 l 1,36,-1
 500 907 l 1,37,38
 574 958 574 958 652 991 c 128,-1,39
 730 1024 730 1024 801 1024 c 0,40,41
 843 1024 843 1024 876.5 1012 c 128,-1,42
 910 1000 910 1000 936 980.5 c 128,-1,43
 962 961 962 961 980 936 c 128,-1,44
 998 911 998 911 1010 885 c 1,45,46
 1050 915 1050 915 1095 940.5 c 128,-1,47
 1140 966 1140 966 1186 984.5 c 128,-1,48
 1232 1003 1232 1003 1277 1013.5 c 128,-1,49
 1322 1024 1322 1024 1362 1024 c 0,50,51
 1416 1024 1416 1024 1462 1005 c 128,-1,52
 1508 986 1508 986 1539 951 c 128,-1,53
 1570 916 1570 916 1582 866.5 c 128,-1,54
 1594 817 1594 817 1581 756 c 2,55,-1
 1464 205 l 2,56,57
 1455 161 1455 161 1466 131.5 c 128,-1,58
 1477 102 1477 102 1516 102 c 0,59,60
 1526 102 1526 102 1546 106 c 128,-1,61
 1566 110 1566 110 1590 117 c 128,-1,62
 1614 124 1614 124 1639 133.5 c 128,-1,63
 1664 143 1664 143 1686 154 c 1,64,-1
 1686 59 l 1,0,1
EndSplineSet
EndChar

StartChar: n
Encoding: 110 110 81
Width: 1184
Flags: W
LayerCount: 2
Fore
SplineSet
1176 47 m 1,0,1
 1149 34 1149 34 1109 21 c 128,-1,2
 1069 8 1069 8 1024.5 -2 c 128,-1,3
 980 -12 980 -12 935.5 -18.5 c 128,-1,4
 891 -25 891 -25 856 -25 c 0,5,6
 822 -25 822 -25 782.5 -20 c 128,-1,7
 743 -15 743 -15 710.5 -1 c 128,-1,8
 678 13 678 13 659.5 38 c 128,-1,9
 641 63 641 63 649 104 c 2,10,-1
 774 729 l 2,11,12
 782 766 782 766 781.5 791.5 c 128,-1,13
 781 817 781 817 773.5 833 c 128,-1,14
 766 849 766 849 753.5 855.5 c 128,-1,15
 741 862 741 862 725 862 c 0,16,17
 701 862 701 862 670 848 c 128,-1,18
 639 834 639 834 604.5 811 c 128,-1,19
 570 788 570 788 534.5 757.5 c 128,-1,20
 499 727 499 727 467 694 c 1,21,-1
 322 0 l 1,22,-1
 49 0 l 1,23,-1
 229 870 l 1,24,-1
 57 887 l 1,25,-1
 57 956 l 1,26,-1
 393 1024 l 1,27,-1
 535 1024 l 1,28,-1
 510 905 l 1,29,30
 547 930 547 930 588.5 952 c 128,-1,31
 630 974 630 974 672.5 990 c 128,-1,32
 715 1006 715 1006 757.5 1015 c 128,-1,33
 800 1024 800 1024 840 1024 c 0,34,35
 916 1024 916 1024 965.5 1006.5 c 128,-1,36
 1015 989 1015 989 1040.5 955 c 128,-1,37
 1066 921 1066 921 1070.5 871 c 128,-1,38
 1075 821 1075 821 1063 756 c 2,39,-1
 952 180 l 2,40,41
 947 155 947 155 951.5 139.5 c 128,-1,42
 956 124 956 124 964.5 115 c 128,-1,43
 973 106 973 106 983 103 c 128,-1,44
 993 100 993 100 1001 100 c 0,45,46
 1033 100 1033 100 1079 112.5 c 128,-1,47
 1125 125 1125 125 1171 145 c 1,48,-1
 1176 47 l 1,0,1
EndSplineSet
EndChar

StartChar: o
Encoding: 111 111 82
Width: 1133
Flags: W
LayerCount: 2
Fore
SplineSet
774 629 m 0,0,1
 774 704 774 704 759 758 c 128,-1,2
 744 812 744 812 722.5 847 c 128,-1,3
 701 882 701 882 676.5 898.5 c 128,-1,4
 652 915 652 915 633 915 c 0,5,6
 602 915 602 915 569.5 894.5 c 128,-1,7
 537 874 537 874 506.5 837.5 c 128,-1,8
 476 801 476 801 449 750.5 c 128,-1,9
 422 700 422 700 401.5 640.5 c 128,-1,10
 381 581 381 581 369.5 514.5 c 128,-1,11
 358 448 358 448 358 379 c 0,12,13
 358 300 358 300 373.5 244.5 c 128,-1,14
 389 189 389 189 411.5 154.5 c 128,-1,15
 434 120 434 120 458 104 c 128,-1,16
 482 88 482 88 500 88 c 0,17,18
 554 88 554 88 603.5 137 c 128,-1,19
 653 186 653 186 691 264 c 128,-1,20
 729 342 729 342 751.5 438 c 128,-1,21
 774 534 774 534 774 629 c 0,0,1
1069 621 m 0,22,23
 1069 540 1069 540 1051 461 c 128,-1,24
 1033 382 1033 382 998 310.5 c 128,-1,25
 963 239 963 239 912 177.5 c 128,-1,26
 861 116 861 116 795 71 c 128,-1,27
 729 26 729 26 648.5 0.5 c 128,-1,28
 568 -25 568 -25 475 -25 c 0,29,30
 370 -25 370 -25 293 5 c 128,-1,31
 216 35 216 35 165.5 87.5 c 128,-1,32
 115 140 115 140 90.5 212.5 c 128,-1,33
 66 285 66 285 66 371 c 0,34,35
 66 451 66 451 83.5 530.5 c 128,-1,36
 101 610 101 610 134.5 683 c 128,-1,37
 168 756 168 756 218 818 c 128,-1,38
 268 880 268 880 333.5 926 c 128,-1,39
 399 972 399 972 479.5 998 c 128,-1,40
 560 1024 560 1024 655 1024 c 0,41,42
 749 1024 749 1024 825.5 998.5 c 128,-1,43
 902 973 902 973 956 922.5 c 128,-1,44
 1010 872 1010 872 1039.5 796.5 c 128,-1,45
 1069 721 1069 721 1069 621 c 0,22,23
EndSplineSet
EndChar

StartChar: p
Encoding: 112 112 83
Width: 1108
Flags: W
LayerCount: 2
Fore
SplineSet
756 629 m 0,0,1
 756 672 756 672 752 716.5 c 128,-1,2
 748 761 748 761 735 797.5 c 128,-1,3
 722 834 722 834 697.5 857.5 c 128,-1,4
 673 881 673 881 633 881 c 0,5,6
 611 881 611 881 585.5 869 c 128,-1,7
 560 857 560 857 534.5 839.5 c 128,-1,8
 509 822 509 822 486.5 803 c 128,-1,9
 464 784 464 784 449 770 c 1,10,-1
 324 139 l 1,11,12
 336 131 336 131 352 121.5 c 128,-1,13
 368 112 368 112 385 104 c 128,-1,14
 402 96 402 96 418.5 90 c 128,-1,15
 435 84 435 84 449 84 c 0,16,17
 492 84 492 84 531.5 107.5 c 128,-1,18
 571 131 571 131 605 172 c 128,-1,19
 639 213 639 213 667 266.5 c 128,-1,20
 695 320 695 320 714.5 381 c 128,-1,21
 734 442 734 442 745 505.5 c 128,-1,22
 756 569 756 569 756 629 c 0,0,1
1042 637 m 0,23,24
 1042 555 1042 555 1022 474 c 128,-1,25
 1002 393 1002 393 964.5 319.5 c 128,-1,26
 927 246 927 246 872 183 c 128,-1,27
 817 120 817 120 747 74 c 128,-1,28
 677 28 677 28 592 1.5 c 128,-1,29
 507 -25 507 -25 410 -25 c 0,30,31
 372 -25 372 -25 343.5 -19.5 c 128,-1,32
 315 -14 315 -14 295 -8 c 1,33,-1
 233 -311 l 2,34,35
 230 -325 230 -325 238.5 -334.5 c 128,-1,36
 247 -344 247 -344 264 -344 c 1,37,38
 278 -345 278 -345 299 -347 c 0,39,40
 317 -349 317 -349 343.5 -351 c 128,-1,41
 370 -353 370 -353 406 -356 c 1,42,-1
 406 -449 l 1,43,-1
 -197 -449 l 1,44,-1
 -197 -356 l 1,45,46
 -181 -354 -181 -354 -159.5 -353 c 128,-1,47
 -138 -352 -138 -352 -119 -350 c 0,48,49
 -97 -348 -97 -348 -74 -346 c 0,50,51
 -58 -344 -58 -344 -50 -334.5 c 128,-1,52
 -42 -325 -42 -325 -39 -311 c 2,53,-1
 193 868 l 1,54,-1
 23 887 l 1,55,-1
 23 956 l 1,56,-1
 360 1024 l 1,57,-1
 498 1024 l 1,58,-1
 483 948 l 1,59,60
 499 957 499 957 524.5 970 c 128,-1,61
 550 983 550 983 582 995 c 128,-1,62
 614 1007 614 1007 651 1015.5 c 128,-1,63
 688 1024 688 1024 729 1024 c 0,64,65
 810 1024 810 1024 869 989.5 c 128,-1,66
 928 955 928 955 966.5 900 c 128,-1,67
 1005 845 1005 845 1023.5 776 c 128,-1,68
 1042 707 1042 707 1042 637 c 0,23,24
EndSplineSet
EndChar

StartChar: q
Encoding: 113 113 84
Width: 1167
Flags: W
LayerCount: 2
Fore
SplineSet
784 799 m 2,0,1
 787 809 787 809 781 828 c 128,-1,2
 775 847 775 847 765 865.5 c 128,-1,3
 755 884 755 884 742.5 897.5 c 128,-1,4
 730 911 730 911 719 911 c 0,5,6
 654 911 654 911 588 870.5 c 128,-1,7
 522 830 522 830 469 757.5 c 128,-1,8
 416 685 416 685 383 583 c 128,-1,9
 350 481 350 481 350 358 c 0,10,11
 350 303 350 303 356 258 c 128,-1,12
 362 213 362 213 376 181.5 c 128,-1,13
 390 150 390 150 414.5 132.5 c 128,-1,14
 439 115 439 115 477 115 c 0,15,16
 508 115 508 115 534.5 127 c 128,-1,17
 561 139 561 139 584.5 157 c 128,-1,18
 608 175 608 175 629.5 196 c 128,-1,19
 651 217 651 217 672 236 c 1,20,-1
 784 799 l 2,0,1
836 -311 m 1,21,22
 832 -325 832 -325 836.5 -334.5 c 128,-1,23
 841 -344 841 -344 858 -344 c 0,24,25
 875 -345 875 -345 897 -347 c 0,26,27
 916 -349 916 -349 943.5 -351 c 128,-1,28
 971 -353 971 -353 1006 -356 c 1,29,-1
 1006 -449 l 1,30,-1
 403 -449 l 1,31,-1
 403 -356 l 1,32,33
 417 -355 417 -355 438 -353 c 128,-1,34
 459 -351 459 -351 479 -349 c 0,35,36
 503 -346 503 -346 528 -344 c 0,37,38
 557 -341 557 -341 563 -311 c 2,39,-1
 635 45 l 1,40,41
 573 10 573 10 512 -9.5 c 128,-1,42
 451 -29 451 -29 395 -29 c 0,43,44
 313 -29 313 -29 252 -3 c 128,-1,45
 191 23 191 23 150.5 72 c 128,-1,46
 110 121 110 121 90 191.5 c 128,-1,47
 70 262 70 262 70 350 c 0,48,49
 70 427 70 427 88 506.5 c 128,-1,50
 106 586 106 586 142 661 c 128,-1,51
 178 736 178 736 230.5 802 c 128,-1,52
 283 868 283 868 352.5 917.5 c 128,-1,53
 422 967 422 967 507 995.5 c 128,-1,54
 592 1024 592 1024 692 1024 c 0,55,56
 743 1024 743 1024 789 1013.5 c 128,-1,57
 835 1003 835 1003 870 987 c 1,58,-1
 903 1024 l 1,59,-1
 1102 1024 l 1,60,-1
 836 -311 l 1,21,22
EndSplineSet
EndChar

StartChar: r
Encoding: 114 114 85
Width: 858
Flags: W
LayerCount: 2
Fore
SplineSet
934 879 m 0,0,1
 934 808 934 808 889 772.5 c 128,-1,2
 844 737 844 737 739 737 c 1,3,-1
 684 848 l 1,4,5
 636 824 636 824 592.5 790.5 c 128,-1,6
 549 757 549 757 515 717 c 128,-1,7
 481 677 481 677 457 632 c 128,-1,8
 433 587 433 587 424 541 c 2,9,-1
 309 0 l 1,10,-1
 37 0 l 1,11,-1
 217 866 l 1,12,-1
 45 885 l 1,13,-1
 45 956 l 1,14,-1
 385 1024 l 1,15,-1
 526 1024 l 1,16,-1
 500 887 l 1,17,18
 527 915 527 915 559.5 940 c 128,-1,19
 592 965 592 965 628 984 c 128,-1,20
 664 1003 664 1003 702 1013.5 c 128,-1,21
 740 1024 740 1024 778 1024 c 0,22,23
 818 1024 818 1024 847.5 1009.5 c 128,-1,24
 877 995 877 995 896 973.5 c 128,-1,25
 915 952 915 952 924.5 926.5 c 128,-1,26
 934 901 934 901 934 879 c 0,0,1
EndSplineSet
EndChar

StartChar: s
Encoding: 115 115 86
Width: 850
Flags: W
LayerCount: 2
Fore
SplineSet
807 866 m 0,0,1
 807 797 807 797 768 764 c 128,-1,2
 729 731 729 731 635 725 c 1,3,-1
 530 903 l 1,4,5
 523 905 523 905 515 907 c 0,6,7
 508 909 508 909 498 910 c 128,-1,8
 488 911 488 911 477 911 c 0,9,10
 446 911 446 911 429 898.5 c 128,-1,11
 412 886 412 886 403.5 867 c 128,-1,12
 395 848 395 848 393 825.5 c 128,-1,13
 391 803 391 803 391 784 c 0,14,15
 391 752 391 752 407 722 c 128,-1,16
 423 692 423 692 449 663.5 c 128,-1,17
 475 635 475 635 507.5 607.5 c 128,-1,18
 540 580 540 580 573 555 c 0,19,20
 608 528 608 528 640.5 499.5 c 128,-1,21
 673 471 673 471 698.5 439.5 c 128,-1,22
 724 408 724 408 739 374 c 128,-1,23
 754 340 754 340 754 303 c 0,24,25
 754 244 754 244 726 185 c 128,-1,26
 698 126 698 126 641 79.5 c 128,-1,27
 584 33 584 33 498 4 c 128,-1,28
 412 -25 412 -25 297 -25 c 0,29,30
 216 -25 216 -25 157.5 -8.5 c 128,-1,31
 99 8 99 8 61 35.5 c 128,-1,32
 23 63 23 63 4.5 98 c 128,-1,33
 -14 133 -14 133 -14 170 c 0,34,35
 -14 197 -14 197 -4 222 c 128,-1,36
 6 247 6 247 22.5 266.5 c 128,-1,37
 39 286 39 286 59 297.5 c 128,-1,38
 79 309 79 309 100 309 c 0,39,40
 145 309 145 309 176 295.5 c 128,-1,41
 207 282 207 282 227 260 c 1,42,-1
 190 139 l 1,43,44
 201 124 201 124 221 112 c 128,-1,45
 241 100 241 100 264.5 92 c 128,-1,46
 288 84 288 84 312.5 80 c 128,-1,47
 337 76 337 76 358 76 c 0,48,49
 420 76 420 76 450.5 118.5 c 128,-1,50
 481 161 481 161 481 233 c 0,51,52
 481 264 481 264 469 291.5 c 128,-1,53
 457 319 457 319 435 345 c 128,-1,54
 413 371 413 371 382 396.5 c 128,-1,55
 351 422 351 422 313 451 c 0,56,57
 281 475 281 475 250.5 504 c 128,-1,58
 220 533 220 533 196 565.5 c 128,-1,59
 172 598 172 598 157.5 634 c 128,-1,60
 143 670 143 670 143 709 c 0,61,62
 143 781 143 781 177 839 c 128,-1,63
 211 897 211 897 268 938.5 c 128,-1,64
 325 980 325 980 400 1002 c 128,-1,65
 475 1024 475 1024 557 1024 c 0,66,67
 621 1024 621 1024 668 1006.5 c 128,-1,68
 715 989 715 989 746 964.5 c 128,-1,69
 777 940 777 940 792 912.5 c 128,-1,70
 807 885 807 885 807 866 c 0,0,1
EndSplineSet
EndChar

StartChar: t
Encoding: 116 116 87
Width: 705
Flags: W
LayerCount: 2
Fore
SplineSet
500 856 m 1,0,-1
 371 223 l 1,1,2
 360 175 360 175 381.5 146 c 128,-1,3
 403 117 403 117 451 117 c 0,4,5
 475 117 475 117 508.5 125 c 128,-1,6
 542 133 542 133 578 144 c 128,-1,7
 614 155 614 155 648 167.5 c 128,-1,8
 682 180 682 180 707 188 c 1,9,-1
 707 76 l 1,10,11
 690 68 690 68 647 51.5 c 128,-1,12
 604 35 604 35 549 18 c 128,-1,13
 494 1 494 1 435 -12 c 128,-1,14
 376 -25 376 -25 328 -25 c 0,15,16
 269 -25 269 -25 225 -11 c 128,-1,17
 181 3 181 3 152 27.5 c 128,-1,18
 123 52 123 52 108.5 86 c 128,-1,19
 94 120 94 120 94 160 c 0,20,21
 94 180 94 180 95.5 200 c 128,-1,22
 97 220 97 220 102 242 c 2,23,-1
 227 852 l 1,24,-1
 80 836 l 1,25,-1
 80 920 l 1,26,-1
 254 989 l 1,27,-1
 358 1200 l 1,28,-1
 563 1200 l 1,29,-1
 520 969 l 1,30,-1
 805 969 l 1,31,-1
 805 856 l 1,32,-1
 500 856 l 1,0,-1
EndSplineSet
EndChar

StartChar: u
Encoding: 117 117 88
Width: 1176
Flags: W
LayerCount: 2
Fore
SplineSet
1171 57 m 1,0,1
 1150 46 1150 46 1113.5 31.5 c 128,-1,2
 1077 17 1077 17 1032.5 4.5 c 128,-1,3
 988 -8 988 -8 940 -16.5 c 128,-1,4
 892 -25 892 -25 848 -25 c 0,5,6
 795 -25 795 -25 762 -14 c 128,-1,7
 729 -3 729 -3 710.5 12.5 c 128,-1,8
 692 28 692 28 684 44.5 c 128,-1,9
 676 61 676 61 674 72 c 1,10,11
 606 25 606 25 527 0 c 128,-1,12
 448 -25 448 -25 348 -25 c 0,13,14
 272 -25 272 -25 219.5 1 c 128,-1,15
 167 27 167 27 136.5 66 c 128,-1,16
 106 105 106 105 96.5 151.5 c 128,-1,17
 87 198 87 198 96 240 c 2,18,-1
 229 868 l 1,19,-1
 57 887 l 1,20,-1
 57 956 l 1,21,-1
 395 1024 l 1,22,-1
 537 1024 l 1,23,-1
 369 240 l 2,24,25
 364 216 364 216 366.5 194 c 128,-1,26
 369 172 369 172 378 155.5 c 128,-1,27
 387 139 387 139 402 129 c 128,-1,28
 417 119 417 119 436 119 c 0,29,30
 470 119 470 119 502.5 128.5 c 128,-1,31
 535 138 535 138 565.5 155 c 128,-1,32
 596 172 596 172 625 194 c 128,-1,33
 654 216 654 216 682 242 c 1,34,-1
 842 999 l 1,35,-1
 1114 999 l 1,36,-1
 946 205 l 2,37,38
 934 148 934 148 950.5 123 c 128,-1,39
 967 98 967 98 999 98 c 0,40,41
 1007 98 1007 98 1017.5 100.5 c 128,-1,42
 1028 103 1028 103 1046.5 110.5 c 128,-1,43
 1065 118 1065 118 1094.5 132.5 c 128,-1,44
 1124 147 1124 147 1171 172 c 1,45,-1
 1171 57 l 1,0,1
EndSplineSet
EndChar

StartChar: v
Encoding: 118 118 89
Width: 1042
Flags: W
LayerCount: 2
Fore
SplineSet
1053 893 m 0,0,1
 1053 867 1053 867 1048 843 c 128,-1,2
 1043 819 1043 819 1036 799 c 128,-1,3
 1029 779 1029 779 1021 763.5 c 128,-1,4
 1013 748 1013 748 1008 739 c 0,5,6
 939 613 939 613 860 498.5 c 128,-1,7
 781 384 781 384 703.5 286 c 128,-1,8
 626 188 626 188 557 109 c 128,-1,9
 488 30 488 30 438 -25 c 1,10,-1
 238 -25 l 1,11,12
 264 28 264 28 275.5 67.5 c 128,-1,13
 287 107 287 107 285 141 c 0,14,15
 285 144 285 144 283 171.5 c 128,-1,16
 281 199 281 199 277.5 242 c 128,-1,17
 274 285 274 285 269 340.5 c 128,-1,18
 264 396 264 396 258 455 c 128,-1,19
 252 514 252 514 245 574 c 128,-1,20
 238 634 238 634 230.5 685.5 c 128,-1,21
 223 737 223 737 215 777.5 c 128,-1,22
 207 818 207 818 199 838 c 0,23,24
 194 849 194 849 190.5 856 c 128,-1,25
 187 863 187 863 182 866.5 c 128,-1,26
 177 870 177 870 169 871 c 128,-1,27
 161 872 161 872 147 872 c 0,28,29
 126 873 126 873 103 875 c 0,30,31
 83 876 83 876 57.5 877 c 128,-1,32
 32 878 32 878 6 879 c 1,33,-1
 6 952 l 1,34,-1
 250 1024 l 1,35,36
 356 1022 356 1022 413.5 985 c 128,-1,37
 471 948 471 948 479 870 c 2,38,-1
 535 342 l 1,39,40
 572 393 572 393 607.5 438.5 c 128,-1,41
 643 484 643 484 674 528.5 c 128,-1,42
 705 573 705 573 731.5 618 c 128,-1,43
 758 663 758 663 778 711 c 1,44,-1
 721 971 l 1,45,46
 747 996 747 996 791 1010 c 128,-1,47
 835 1024 835 1024 883 1024 c 0,48,49
 919 1024 919 1024 950 1015 c 128,-1,50
 981 1006 981 1006 1004 988.5 c 128,-1,51
 1027 971 1027 971 1040 947 c 128,-1,52
 1053 923 1053 923 1053 893 c 0,0,1
EndSplineSet
EndChar

StartChar: w
Encoding: 119 119 90
Width: 1538
Flags: W
LayerCount: 2
Fore
SplineSet
1546 895 m 0,0,1
 1546 852 1546 852 1524 792.5 c 128,-1,2
 1502 733 1502 733 1465.5 664 c 128,-1,3
 1429 595 1429 595 1382 520.5 c 128,-1,4
 1335 446 1335 446 1284.5 373 c 128,-1,5
 1234 300 1234 300 1184.5 233.5 c 128,-1,6
 1135 167 1135 167 1094 113 c 128,-1,7
 1053 59 1053 59 1024 23 c 128,-1,8
 995 -13 995 -13 985 -25 c 1,9,-1
 782 -25 l 1,10,-1
 741 561 l 1,11,12
 701 482 701 482 658 401.5 c 128,-1,13
 615 321 615 321 571.5 245 c 128,-1,14
 528 169 528 169 486.5 100 c 128,-1,15
 445 31 445 31 408 -25 c 1,16,-1
 197 -25 l 1,17,-1
 219 31 l 1,18,-1
 164 868 l 1,19,-1
 8 885 l 1,20,-1
 8 950 l 1,21,-1
 283 1024 l 1,22,-1
 430 999 l 1,23,-1
 469 381 l 1,24,25
 504 449 504 449 540 523 c 128,-1,26
 576 597 576 597 611.5 672.5 c 128,-1,27
 647 748 647 748 681.5 824.5 c 128,-1,28
 716 901 716 901 748 975 c 1,29,-1
 981 999 l 1,30,-1
 1030 279 l 1,31,32
 1065 330 1065 330 1105.5 388.5 c 128,-1,33
 1146 447 1146 447 1185.5 507.5 c 128,-1,34
 1225 568 1225 568 1260 629 c 128,-1,35
 1295 690 1295 690 1321 745 c 1,36,-1
 1243 963 l 1,37,38
 1247 969 1247 969 1257.5 979.5 c 128,-1,39
 1268 990 1268 990 1284.5 999.5 c 128,-1,40
 1301 1009 1301 1009 1324.5 1016.5 c 128,-1,41
 1348 1024 1348 1024 1380 1024 c 0,42,43
 1422 1024 1422 1024 1453 1009 c 128,-1,44
 1484 994 1484 994 1504.5 973 c 128,-1,45
 1525 952 1525 952 1535.5 930 c 128,-1,46
 1546 908 1546 908 1546 895 c 0,0,1
EndSplineSet
EndChar

StartChar: x
Encoding: 120 120 91
Width: 1180
Flags: W
LayerCount: 2
Fore
SplineSet
1200 895 m 0,0,1
 1200 875 1200 875 1197 848 c 128,-1,2
 1194 821 1194 821 1180.5 797 c 128,-1,3
 1167 773 1167 773 1138 756 c 128,-1,4
 1109 739 1109 739 1057 739 c 1,5,-1
 967 846 l 1,6,7
 942 828 942 828 909 797 c 128,-1,8
 876 766 876 766 841.5 724.5 c 128,-1,9
 807 683 807 683 775 632.5 c 128,-1,10
 743 582 743 582 719 524 c 1,11,12
 724 506 724 506 735 473.5 c 128,-1,13
 746 441 746 441 759.5 403 c 128,-1,14
 773 365 773 365 788 326 c 128,-1,15
 803 287 803 287 817 256 c 256,16,17
 831 225 831 225 841.5 197.5 c 128,-1,18
 852 170 852 170 863 149 c 128,-1,19
 874 128 874 128 887 116 c 128,-1,20
 900 104 900 104 918 104 c 0,21,22
 926 104 926 104 939.5 105 c 128,-1,23
 953 106 953 106 972 112 c 128,-1,24
 991 118 991 118 1017 130.5 c 128,-1,25
 1043 143 1043 143 1077 166 c 1,26,-1
 1077 47 l 1,27,28
 1042 26 1042 26 1008 12.5 c 128,-1,29
 974 -1 974 -1 939 -9.5 c 128,-1,30
 904 -18 904 -18 865.5 -21.5 c 128,-1,31
 827 -25 827 -25 782 -25 c 0,32,33
 732 -25 732 -25 690 8.5 c 128,-1,34
 648 42 648 42 614 93 c 128,-1,35
 580 144 580 144 555 204 c 128,-1,36
 530 264 530 264 514 317 c 1,37,38
 506 304 506 304 489 274 c 128,-1,39
 472 244 472 244 446.5 206 c 128,-1,40
 421 168 421 168 389 127 c 128,-1,41
 357 86 357 86 319 52.5 c 128,-1,42
 281 19 281 19 239 -3 c 128,-1,43
 197 -25 197 -25 152 -25 c 0,44,45
 116 -25 116 -25 82 -17 c 128,-1,46
 48 -9 48 -9 21.5 6.5 c 128,-1,47
 -5 22 -5 22 -21 45 c 128,-1,48
 -37 68 -37 68 -37 98 c 0,49,50
 -37 122 -37 122 -31 150 c 128,-1,51
 -25 178 -25 178 -6.5 202 c 128,-1,52
 12 226 12 226 47 242 c 128,-1,53
 82 258 82 258 139 258 c 1,54,-1
 217 137 l 1,55,56
 244 160 244 160 276 194 c 128,-1,57
 308 228 308 228 341 271.5 c 128,-1,58
 374 315 374 315 404.5 367 c 128,-1,59
 435 419 435 419 459 479 c 1,60,61
 454 499 454 499 443.5 534.5 c 128,-1,62
 433 570 433 570 419 611 c 128,-1,63
 405 652 405 652 389.5 695 c 128,-1,64
 374 738 374 738 359 773 c 128,-1,65
 344 808 344 808 331.5 830.5 c 128,-1,66
 319 853 319 853 311 854 c 2,67,-1
 109 879 l 1,68,-1
 109 942 l 1,69,70
 121 947 121 947 145.5 955 c 128,-1,71
 170 963 170 963 200 972 c 128,-1,72
 230 981 230 981 262 990 c 128,-1,73
 294 999 294 999 322 1006.5 c 128,-1,74
 350 1014 350 1014 371 1019 c 128,-1,75
 392 1024 392 1024 399 1024 c 0,76,77
 447 1024 447 1024 484.5 1001 c 128,-1,78
 522 978 522 978 552.5 935.5 c 128,-1,79
 583 893 583 893 608 833 c 128,-1,80
 633 773 633 773 655 698 c 1,81,82
 691 752 691 752 734 809.5 c 128,-1,83
 777 867 777 867 825.5 915 c 128,-1,84
 874 963 874 963 926 993.5 c 128,-1,85
 978 1024 978 1024 1032 1024 c 0,86,87
 1063 1024 1063 1024 1093.5 1014.5 c 128,-1,88
 1124 1005 1124 1005 1147.5 988 c 128,-1,89
 1171 971 1171 971 1185.5 947 c 128,-1,90
 1200 923 1200 923 1200 895 c 0,0,1
EndSplineSet
EndChar

StartChar: y
Encoding: 121 121 92
Width: 1112
Flags: W
LayerCount: 2
Fore
SplineSet
1065 844 m 1,0,1
 1053 832 1053 832 1030 800.5 c 128,-1,2
 1007 769 1007 769 982.5 729.5 c 128,-1,3
 958 690 958 690 934.5 648 c 128,-1,4
 911 606 911 606 897 575 c 0,5,6
 875 526 875 526 844.5 456.5 c 128,-1,7
 814 387 814 387 776.5 307 c 128,-1,8
 739 227 739 227 695.5 140.5 c 128,-1,9
 652 54 652 54 604 -29 c 0,10,11
 553 -118 553 -118 494.5 -198 c 128,-1,12
 436 -278 436 -278 368 -338 c 128,-1,13
 300 -398 300 -398 221 -433.5 c 128,-1,14
 142 -469 142 -469 49 -469 c 0,15,16
 -13 -469 -13 -469 -54.5 -453 c 128,-1,17
 -96 -437 -96 -437 -121 -413 c 128,-1,18
 -146 -389 -146 -389 -156 -362 c 128,-1,19
 -166 -335 -166 -335 -166 -313 c 0,20,21
 -166 -288 -166 -288 -158 -259 c 128,-1,22
 -150 -230 -150 -230 -130.5 -204.5 c 128,-1,23
 -111 -179 -111 -179 -79.5 -162 c 128,-1,24
 -48 -145 -48 -145 0 -143 c 1,25,-1
 88 -299 l 1,26,27
 227 -269 227 -269 397 43 c 1,28,29
 395 55 395 55 387 96 c 128,-1,30
 379 137 379 137 367.5 196 c 128,-1,31
 356 255 356 255 341.5 326.5 c 128,-1,32
 327 398 327 398 311 471 c 0,33,34
 296 541 296 541 283 612 c 128,-1,35
 270 683 270 683 259 740 c 128,-1,36
 248 797 248 797 239 832.5 c 128,-1,37
 230 868 230 868 223 868 c 2,38,-1
 6 885 l 1,39,-1
 6 948 l 1,40,41
 18 952 18 952 41 959.5 c 128,-1,42
 64 967 64 967 93 975.5 c 128,-1,43
 122 984 122 984 153 992.5 c 128,-1,44
 184 1001 184 1001 212.5 1008 c 128,-1,45
 241 1015 241 1015 263.5 1019.5 c 128,-1,46
 286 1024 286 1024 297 1024 c 0,47,48
 331 1024 331 1024 359.5 1019.5 c 128,-1,49
 388 1015 388 1015 412.5 995.5 c 128,-1,50
 437 976 437 976 458.5 935.5 c 128,-1,51
 480 895 480 895 502 823 c 0,52,53
 512 788 512 788 524 740.5 c 128,-1,54
 536 693 536 693 548 638.5 c 128,-1,55
 560 584 560 584 573 525 c 128,-1,56
 586 466 586 466 598 406 c 1,57,-1
 879 1024 l 1,58,-1
 977 1024 l 1,59,-1
 1171 963 l 1,60,-1
 1171 909 l 1,61,-1
 1065 844 l 1,0,1
EndSplineSet
EndChar

StartChar: z
Encoding: 122 122 93
Width: 1006
Flags: W
LayerCount: 2
Fore
SplineSet
344 188 m 1,0,-1
 473 215 l 1,1,2
 528 186 528 186 564 168 c 128,-1,3
 600 150 600 150 635 150 c 0,4,5
 646 150 646 150 665 155 c 128,-1,6
 684 160 684 160 704.5 168 c 128,-1,7
 725 176 725 176 742 186.5 c 128,-1,8
 759 197 759 197 766 209 c 1,9,-1
 643 340 l 1,10,11
 648 347 648 347 664 360.5 c 128,-1,12
 680 374 680 374 702 386.5 c 128,-1,13
 724 399 724 399 749.5 408.5 c 128,-1,14
 775 418 775 418 801 418 c 0,15,16
 834 418 834 418 858 402 c 128,-1,17
 882 386 882 386 897.5 363 c 128,-1,18
 913 340 913 340 920.5 313.5 c 128,-1,19
 928 287 928 287 928 266 c 0,20,21
 928 217 928 217 899.5 165.5 c 128,-1,22
 871 114 871 114 822 72 c 128,-1,23
 773 30 773 30 709 3.5 c 128,-1,24
 645 -23 645 -23 573 -23 c 0,25,26
 521 -23 521 -23 474.5 -9.5 c 128,-1,27
 428 4 428 4 391 20 c 128,-1,28
 354 36 354 36 328.5 49.5 c 128,-1,29
 303 63 303 63 293 63 c 0,30,31
 279 63 279 63 267.5 61.5 c 128,-1,32
 256 60 256 60 250 51 c 2,33,-1
 174 -80 l 1,34,-1
 -33 33 l 1,35,-1
 643 811 l 1,36,-1
 514 784 l 1,37,38
 460 813 460 813 424.5 831.5 c 128,-1,39
 389 850 389 850 354 850 c 0,40,41
 343 850 343 850 324 845 c 128,-1,42
 305 840 305 840 285 831.5 c 128,-1,43
 265 823 265 823 247.5 812.5 c 128,-1,44
 230 802 230 802 223 791 c 1,45,-1
 344 662 l 1,46,47
 339 653 339 653 324 639.5 c 128,-1,48
 309 626 309 626 287 613.5 c 128,-1,49
 265 601 265 601 239 591.5 c 128,-1,50
 213 582 213 582 188 582 c 0,51,52
 155 582 155 582 131 598 c 128,-1,53
 107 614 107 614 91.5 637 c 128,-1,54
 76 660 76 660 68.5 686 c 128,-1,55
 61 712 61 712 61 733 c 0,56,57
 61 782 61 782 89.5 833.5 c 128,-1,58
 118 885 118 885 167 927.5 c 128,-1,59
 216 970 216 970 280 997 c 128,-1,60
 344 1024 344 1024 416 1024 c 0,61,62
 468 1024 468 1024 514.5 1010 c 128,-1,63
 561 996 561 996 598 979.5 c 128,-1,64
 635 963 635 963 660.5 949.5 c 128,-1,65
 686 936 686 936 696 936 c 0,66,67
 710 936 710 936 720.5 938 c 128,-1,68
 731 940 731 940 739 948 c 1,69,-1
 795 1077 l 1,70,-1
 1020 963 l 1,71,-1
 344 188 l 1,0,-1
EndSplineSet
EndChar

StartChar: braceleft
Encoding: 123 123 94
Width: 1014
Flags: W
LayerCount: 2
Fore
SplineSet
1022 1333 m 1,0,1
 984 1333 984 1333 947 1328 c 0,2,3
 915 1323 915 1323 879.5 1312 c 128,-1,4
 844 1301 844 1301 815 1278 c 0,5,6
 779 1248 779 1248 759 1203.5 c 128,-1,7
 739 1159 739 1159 726.5 1106.5 c 128,-1,8
 714 1054 714 1054 704 997 c 128,-1,9
 694 940 694 940 677 884.5 c 128,-1,10
 660 829 660 829 631.5 778 c 128,-1,11
 603 727 603 727 553 688 c 0,12,13
 514 657 514 657 475.5 639 c 128,-1,14
 437 621 437 621 405 612 c 128,-1,15
 373 603 373 603 349 600 c 0,16,17
 332 598 332 598 323 598 c 1,18,19
 332 597 332 597 348 595 c 0,20,21
 370 592 370 592 398.5 582.5 c 128,-1,22
 427 573 427 573 458.5 555 c 128,-1,23
 490 537 490 537 516 506 c 0,24,25
 550 466 550 466 558.5 415.5 c 128,-1,26
 567 365 567 365 562.5 309.5 c 128,-1,27
 558 254 558 254 545 197.5 c 128,-1,28
 532 141 532 141 524.5 89 c 128,-1,29
 517 37 517 37 519.5 -7.5 c 128,-1,30
 522 -52 522 -52 547 -82 c 0,31,32
 566 -105 566 -105 597 -116 c 128,-1,33
 628 -127 628 -127 657 -132 c 0,34,35
 691 -137 691 -137 729 -137 c 1,36,-1
 707 -250 l 1,37,-1
 667 -250 l 2,38,39
 640 -250 640 -250 604 -248.5 c 128,-1,40
 568 -247 568 -247 526.5 -242.5 c 128,-1,41
 485 -238 485 -238 446 -228.5 c 128,-1,42
 407 -219 407 -219 373.5 -204 c 128,-1,43
 340 -189 340 -189 319 -166 c 0,44,45
 281 -125 281 -125 271 -69 c 128,-1,46
 261 -13 261 -13 266.5 48.5 c 128,-1,47
 272 110 272 110 286.5 173.5 c 128,-1,48
 301 237 301 237 311.5 295 c 128,-1,49
 322 353 322 353 321.5 401 c 128,-1,50
 321 449 321 449 297 479 c 256,51,52
 273 509 273 509 236.5 521.5 c 128,-1,53
 200 534 200 534 166 538 c 0,54,55
 126 542 126 542 84 537 c 1,56,-1
 106 659 l 1,57,58
 148 653 148 653 189 657 c 0,59,60
 224 660 224 660 265.5 672.5 c 128,-1,61
 307 685 307 685 342 715 c 0,62,63
 378 745 378 745 397.5 793.5 c 128,-1,64
 417 842 417 842 429.5 900 c 128,-1,65
 442 958 442 958 453.5 1022 c 128,-1,66
 465 1086 465 1086 484 1147.5 c 128,-1,67
 503 1209 503 1209 535.5 1265 c 128,-1,68
 568 1321 568 1321 623 1362 c 0,69,70
 653 1385 653 1385 692.5 1400 c 128,-1,71
 732 1415 732 1415 774.5 1424.5 c 128,-1,72
 817 1434 817 1434 860 1438.5 c 128,-1,73
 903 1443 903 1443 939.5 1444.5 c 128,-1,74
 976 1446 976 1446 1003 1446 c 2,75,-1
 1042 1446 l 1,76,-1
 1022 1333 l 1,0,1
EndSplineSet
EndChar

StartChar: bar
Encoding: 124 124 95
Width: 815
Flags: W
LayerCount: 2
Fore
SplineSet
320 -528 m 1,0,-1
 320 1630 l 1,1,-1
 495 1630 l 1,2,-1
 495 -528 l 1,3,-1
 320 -528 l 1,0,-1
EndSplineSet
EndChar

StartChar: braceright
Encoding: 125 125 96
Width: 1014
Flags: W
LayerCount: 2
Fore
SplineSet
930 537 m 1,0,1
 888 542 888 542 847 538 c 0,2,3
 811 534 811 534 769.5 521.5 c 128,-1,4
 728 509 728 509 692 479 c 0,5,6
 656 448 656 448 637 400 c 128,-1,7
 618 352 618 352 605.5 294 c 128,-1,8
 593 236 593 236 582 172.5 c 128,-1,9
 571 109 571 109 552 47.5 c 128,-1,10
 533 -14 533 -14 501.5 -69.5 c 128,-1,11
 470 -125 470 -125 416 -166 c 0,12,13
 386 -189 386 -189 346 -204 c 128,-1,14
 306 -219 306 -219 263 -228.5 c 128,-1,15
 220 -238 220 -238 177 -242.5 c 128,-1,16
 134 -247 134 -247 97.5 -248.5 c 128,-1,17
 61 -250 61 -250 33 -250 c 2,18,-1
 -6 -250 l 1,19,-1
 16 -137 l 1,20,21
 53 -137 53 -137 90 -132 c 0,22,23
 122 -127 122 -127 157 -116 c 128,-1,24
 192 -105 192 -105 221 -82 c 0,25,26
 257 -52 257 -52 277 -8 c 128,-1,27
 297 36 297 36 309.5 88 c 128,-1,28
 322 140 322 140 331.5 196.5 c 128,-1,29
 341 253 341 253 358 308.5 c 128,-1,30
 375 364 375 364 403 415 c 128,-1,31
 431 466 431 466 481 506 c 0,32,33
 518 536 518 536 556 554 c 128,-1,34
 594 572 594 572 626.5 581.5 c 128,-1,35
 659 591 659 591 683 594 c 128,-1,36
 707 597 707 597 717 598 c 1,37,38
 710 598 710 598 688 600 c 128,-1,39
 666 602 666 602 637 611 c 128,-1,40
 608 620 608 620 576.5 638 c 128,-1,41
 545 656 545 656 518 688 c 0,42,43
 484 728 484 728 475.5 779 c 128,-1,44
 467 830 467 830 472 885.5 c 128,-1,45
 477 941 477 941 489.5 998 c 128,-1,46
 502 1055 502 1055 510 1107.5 c 128,-1,47
 518 1160 518 1160 516 1204 c 128,-1,48
 514 1248 514 1248 489 1278 c 0,49,50
 470 1301 470 1301 439.5 1312 c 128,-1,51
 409 1323 409 1323 380 1328 c 0,52,53
 346 1333 346 1333 307 1333 c 1,54,-1
 330 1446 l 1,55,-1
 369 1446 l 2,56,57
 397 1446 397 1446 433 1444.5 c 128,-1,58
 469 1443 469 1443 510 1438.5 c 128,-1,59
 551 1434 551 1434 590.5 1424.5 c 128,-1,60
 630 1415 630 1415 663.5 1400 c 128,-1,61
 697 1385 697 1385 719 1362 c 0,62,63
 757 1320 757 1320 766.5 1264.5 c 128,-1,64
 776 1209 776 1209 770 1147.5 c 128,-1,65
 764 1086 764 1086 749.5 1022 c 128,-1,66
 735 958 735 958 724.5 900 c 128,-1,67
 714 842 714 842 714.5 793.5 c 128,-1,68
 715 745 715 745 739 715 c 256,69,70
 763 685 763 685 799 672.5 c 128,-1,71
 835 660 835 660 869 657 c 0,72,73
 909 653 909 653 952 659 c 1,74,-1
 930 537 l 1,0,1
EndSplineSet
EndChar

StartChar: asciitilde
Encoding: 126 126 97
Width: 1706
Flags: W
LayerCount: 2
Fore
SplineSet
1530 614 m 1,0,1
 1468 570 1468 570 1414.5 540 c 128,-1,2
 1361 510 1361 510 1313.5 492 c 128,-1,3
 1266 474 1266 474 1222 466.5 c 128,-1,4
 1178 459 1178 459 1135 459 c 0,5,6
 1060 459 1060 459 989.5 480.5 c 128,-1,7
 919 502 919 502 849.5 527.5 c 128,-1,8
 780 553 780 553 709 574.5 c 128,-1,9
 638 596 638 596 563 596 c 0,10,11
 492 596 492 596 398 552.5 c 128,-1,12
 304 509 304 509 176 412 c 1,13,-1
 176 606 l 1,14,15
 292 694 292 694 392 729 c 128,-1,16
 492 764 492 764 575 764 c 0,17,18
 633 764 633 764 688 751.5 c 128,-1,19
 743 739 743 739 796.5 721 c 128,-1,20
 850 703 850 703 903 682.5 c 128,-1,21
 956 662 956 662 1010 647 c 0,22,23
 1042 638 1042 638 1074 632.5 c 128,-1,24
 1106 627 1106 627 1137 627 c 0,25,26
 1170 627 1170 627 1208 635 c 128,-1,27
 1246 643 1246 643 1293.5 663.5 c 128,-1,28
 1341 684 1341 684 1399 719.5 c 128,-1,29
 1457 755 1457 755 1530 809 c 1,30,-1
 1530 614 l 1,0,1
EndSplineSet
EndChar

StartChar: quoteleft
Encoding: 8216 8216 98
Width: 565
Flags: W
LayerCount: 2
Fore
SplineSet
625 1444 m 1,0,1
 518 1409 518 1409 450.5 1329.5 c 128,-1,2
 383 1250 383 1250 365 1141 c 1,3,-1
 487 1141 l 1,4,5
 498 1122 498 1122 504 1100.5 c 128,-1,6
 510 1079 510 1079 510 1059 c 0,7,8
 510 1022 510 1022 494.5 989.5 c 128,-1,9
 479 957 479 957 453.5 933 c 128,-1,10
 428 909 428 909 394.5 895 c 128,-1,11
 361 881 361 881 326 881 c 0,12,13
 289 881 289 881 261.5 893.5 c 128,-1,14
 234 906 234 906 216 928 c 128,-1,15
 198 950 198 950 189 979.5 c 128,-1,16
 180 1009 180 1009 180 1044 c 0,17,18
 180 1128 180 1128 217.5 1205 c 128,-1,19
 255 1282 255 1282 315 1345 c 128,-1,20
 375 1408 375 1408 450.5 1453.5 c 128,-1,21
 526 1499 526 1499 602 1520 c 1,22,-1
 625 1444 l 1,0,1
EndSplineSet
EndChar

StartChar: quoteright
Encoding: 8217 8217 99
Width: 565
Flags: W
LayerCount: 2
Fore
SplineSet
645 1358 m 0,0,1
 645 1274 645 1274 608 1196.5 c 128,-1,2
 571 1119 571 1119 511 1056 c 128,-1,3
 451 993 451 993 375.5 947.5 c 128,-1,4
 300 902 300 902 223 881 c 1,5,-1
 203 958 l 1,6,7
 308 994 308 994 375.5 1072.5 c 128,-1,8
 443 1151 443 1151 463 1260 c 1,9,-1
 340 1260 l 1,10,11
 329 1278 329 1278 323 1300 c 128,-1,12
 317 1322 317 1322 317 1343 c 0,13,14
 317 1379 317 1379 332.5 1411.5 c 128,-1,15
 348 1444 348 1444 374 1468 c 128,-1,16
 400 1492 400 1492 433.5 1506 c 128,-1,17
 467 1520 467 1520 502 1520 c 0,18,19
 539 1520 539 1520 566 1507.5 c 128,-1,20
 593 1495 593 1495 610.5 1473.5 c 128,-1,21
 628 1452 628 1452 636.5 1422 c 128,-1,22
 645 1392 645 1392 645 1358 c 0,0,1
EndSplineSet
EndChar

StartChar: quotedblleft
Encoding: 8220 8220 100
Width: 1030
Flags: W
LayerCount: 2
Fore
SplineSet
625 1444 m 1,0,1
 518 1409 518 1409 450.5 1329.5 c 128,-1,2
 383 1250 383 1250 365 1141 c 1,3,-1
 487 1141 l 1,4,5
 498 1122 498 1122 504 1100.5 c 128,-1,6
 510 1079 510 1079 510 1059 c 0,7,8
 510 1022 510 1022 494.5 989.5 c 128,-1,9
 479 957 479 957 453.5 933 c 128,-1,10
 428 909 428 909 394.5 895 c 128,-1,11
 361 881 361 881 326 881 c 0,12,13
 289 881 289 881 261.5 893.5 c 128,-1,14
 234 906 234 906 216 928 c 128,-1,15
 198 950 198 950 189 979.5 c 128,-1,16
 180 1009 180 1009 180 1044 c 0,17,18
 180 1128 180 1128 217.5 1205 c 128,-1,19
 255 1282 255 1282 315 1345 c 128,-1,20
 375 1408 375 1408 450.5 1453.5 c 128,-1,21
 526 1499 526 1499 602 1520 c 1,22,-1
 625 1444 l 1,0,1
1090 1444 m 1,23,24
 983 1409 983 1409 916 1329.5 c 128,-1,25
 849 1250 849 1250 829 1141 c 1,26,-1
 952 1141 l 1,27,28
 963 1122 963 1122 969 1100.5 c 128,-1,29
 975 1079 975 1079 975 1059 c 0,30,31
 975 1022 975 1022 959.5 989.5 c 128,-1,32
 944 957 944 957 918.5 933 c 128,-1,33
 893 909 893 909 859.5 895 c 128,-1,34
 826 881 826 881 791 881 c 0,35,36
 754 881 754 881 726.5 893.5 c 128,-1,37
 699 906 699 906 681 928 c 128,-1,38
 663 950 663 950 654 979.5 c 128,-1,39
 645 1009 645 1009 645 1044 c 0,40,41
 645 1128 645 1128 682.5 1205 c 128,-1,42
 720 1282 720 1282 780 1345 c 128,-1,43
 840 1408 840 1408 915.5 1453.5 c 128,-1,44
 991 1499 991 1499 1067 1520 c 1,45,-1
 1090 1444 l 1,23,24
EndSplineSet
EndChar

StartChar: quotedblright
Encoding: 8221 8221 101
Width: 1030
Flags: W
LayerCount: 2
Fore
SplineSet
645 1358 m 0,0,1
 645 1274 645 1274 608 1196.5 c 128,-1,2
 571 1119 571 1119 511 1056 c 128,-1,3
 451 993 451 993 375.5 947.5 c 128,-1,4
 300 902 300 902 223 881 c 1,5,-1
 203 958 l 1,6,7
 308 994 308 994 375.5 1072.5 c 128,-1,8
 443 1151 443 1151 463 1260 c 1,9,-1
 340 1260 l 1,10,11
 329 1278 329 1278 323 1300 c 128,-1,12
 317 1322 317 1322 317 1343 c 0,13,14
 317 1379 317 1379 332.5 1411.5 c 128,-1,15
 348 1444 348 1444 374 1468 c 128,-1,16
 400 1492 400 1492 433.5 1506 c 128,-1,17
 467 1520 467 1520 502 1520 c 0,18,19
 539 1520 539 1520 566 1507.5 c 128,-1,20
 593 1495 593 1495 610.5 1473.5 c 128,-1,21
 628 1452 628 1452 636.5 1422 c 128,-1,22
 645 1392 645 1392 645 1358 c 0,0,1
1110 1358 m 0,23,24
 1110 1274 1110 1274 1073 1196.5 c 128,-1,25
 1036 1119 1036 1119 976 1056 c 128,-1,26
 916 993 916 993 840.5 947.5 c 128,-1,27
 765 902 765 902 688 881 c 1,28,-1
 668 958 l 1,29,30
 773 994 773 994 840.5 1072.5 c 128,-1,31
 908 1151 908 1151 928 1260 c 1,32,-1
 805 1260 l 1,33,34
 794 1278 794 1278 788 1300 c 128,-1,35
 782 1322 782 1322 782 1343 c 0,36,37
 782 1379 782 1379 797.5 1411.5 c 128,-1,38
 813 1444 813 1444 839 1468 c 128,-1,39
 865 1492 865 1492 898 1506 c 128,-1,40
 931 1520 931 1520 967 1520 c 0,41,42
 1004 1520 1004 1520 1031 1507.5 c 128,-1,43
 1058 1495 1058 1495 1075.5 1473.5 c 128,-1,44
 1093 1452 1093 1452 1101.5 1422 c 128,-1,45
 1110 1392 1110 1392 1110 1358 c 0,23,24
EndSplineSet
EndChar

StartChar: u0950
Encoding: 2384 2384 102
Width: 2136
Flags: W
LayerCount: 2
Fore
SplineSet
1618 1395 m 0,0,1
 1622 1384 1622 1384 1622 1373 c 0,2,3
 1621 1362 1621 1362 1621 1357 c 0,4,5
 1617 1336 1617 1336 1603 1317 c 1,6,-1
 1585 1295 l 1,7,-1
 1328 1225 l 1,8,-1
 1310 1282 l 1,9,-1
 1539 1437 l 1,10,-1
 1562 1441 l 1,11,12
 1578 1441 1578 1441 1593 1433 c 128,-1,13
 1608 1425 1608 1425 1618 1395 c 0,0,1
1920 1298 m 1,14,15
 1801 1150 1801 1150 1664.5 1079.5 c 128,-1,16
 1528 1009 1528 1009 1359 1009 c 0,17,18
 1201 1009 1201 1009 1099 1112 c 1,19,20
 1023 1187 1023 1187 983 1320 c 1,21,-1
 1097 1374 l 1,22,23
 1127 1271 1127 1271 1184 1210 c 0,24,25
 1263 1126 1263 1126 1383 1126 c 0,26,27
 1517 1126 1517 1126 1622.5 1180.5 c 128,-1,28
 1728 1235 1728 1235 1823 1352 c 1,29,-1
 1920 1298 l 1,14,15
2132 500 m 1,30,31
 2106 384 2106 384 2023 286 c 0,32,33
 1899 139 1899 139 1719 139 c 0,34,35
 1537 139 1537 139 1456 251 c 1,36,37
 1409 312 1409 312 1395 404 c 1,38,-1
 1516 437 l 1,39,40
 1518 409 1518 409 1528.5 384 c 128,-1,41
 1539 359 1539 359 1555 336 c 0,42,43
 1613 257 1613 257 1741 257 c 0,44,45
 1860 257 1860 257 1938 356 c 1,46,47
 1994 424 1994 424 2010 499 c 0,48,49
 2021 552 2021 552 2021 595 c 0,50,51
 2021 672 2021 672 1986 737 c 0,52,53
 1940 825 1940 825 1827 825 c 0,54,55
 1755 825 1755 825 1690 786.5 c 128,-1,56
 1625 748 1625 748 1532 629 c 128,-1,57
 1439 510 1439 510 1407 477 c 1,58,59
 1371 435 1371 435 1342.5 408 c 128,-1,60
 1314 381 1314 381 1285 362 c 0,61,62
 1215 316 1215 316 1145 316 c 0,63,64
 1096 316 1096 316 1060 331 c 1,65,-1
 1052 294 l 2,66,67
 1020 143 1020 143 908 68 c 1,68,69
 809 3 809 3 669 3 c 0,70,71
 511 3 511 3 398 98 c 0,72,73
 313 170 313 170 256 297 c 0,74,75
 219 379 219 379 204 465 c 1,76,-1
 325 511 l 1,77,78
 354 324 354 324 456 218 c 0,79,80
 551 119 551 119 695 119 c 0,81,82
 781 119 781 119 842 158 c 1,83,84
 910 204 910 204 931 293 c 0,85,86
 939 329 939 329 939 361 c 0,87,88
 939 419 939 419 909 472 c 1,89,90
 886 509 886 509 825 553 c 1,91,92
 790 539 790 539 749 527.5 c 128,-1,93
 708 516 708 516 651 505 c 1,94,-1
 567 494 l 1,95,-1
 583 608 l 1,96,97
 697 617 697 617 760 636 c 0,98,99
 943 690 943 690 972 821 c 0,100,101
 977 842 977 842 977 864 c 0,102,103
 977 908 977 908 954 947 c 1,104,105
 910 1017 910 1017 801 1017 c 0,106,107
 720 1017 720 1017 625 978 c 0,108,109
 592 964 592 964 535 942 c 0,110,111
 499 928 499 928 495 927 c 1,112,-1
 486 1037 l 1,113,-1
 633 1094 l 2,114,115
 687 1115 687 1115 732.5 1124.5 c 128,-1,116
 778 1134 778 1134 828 1134 c 0,117,118
 1001 1134 1001 1134 1066 1022 c 0,119,120
 1102 961 1102 961 1102 890 c 0,121,122
 1102 857 1102 857 1094 821 c 0,123,124
 1082 760 1082 760 1046 706 c 0,125,126
 1031 684 1031 684 1009.5 662.5 c 128,-1,127
 988 641 988 641 956 616 c 1,128,129
 988 597 988 597 1006 572 c 1,130,131
 1031 543 1031 543 1047 500 c 1,132,133
 1063 472 1063 472 1095 450 c 1,134,135
 1103 446 1103 446 1125 439 c 128,-1,136
 1147 432 1147 432 1170 432 c 0,137,138
 1224 432 1224 432 1277 479 c 1,139,-1
 1438 680 l 1,140,141
 1531 800 1531 800 1616 863 c 1,142,143
 1726 941 1726 941 1852 941 c 0,144,145
 1987 941 1987 941 2065 845 c 1,146,147
 2118 773 2118 773 2133 652 c 0,148,149
 2135 636 2135 636 2135 621 c 128,-1,150
 2135 606 2135 606 2135 591 c 0,151,152
 2135 562 2135 562 2134 547 c 128,-1,153
 2133 532 2133 532 2132 500 c 1,30,31
EndSplineSet
EndChar

StartChar: u0C01
Encoding: 3073 3073 103
Width: 949
Flags: W
LayerCount: 2
Fore
SplineSet
905 364 m 1,0,1
 826 184 826 184 726 98 c 0,2,3
 614 2 614 2 463 2 c 0,4,5
 304 2 304 2 240 142 c 1,6,7
 210 213 210 213 210 309 c 0,8,9
 210 362 210 362 212.5 387.5 c 128,-1,10
 215 413 215 413 224 456 c 0,11,12
 265 652 265 652 382 790 c 1,13,14
 527 959 527 959 742 959 c 1,15,-1
 714 831 l 1,16,17
 560 831 560 831 455 705 c 1,18,19
 378 610 378 610 342 456 c 1,20,21
 330 399 330 399 330 350 c 0,22,23
 330 289 330 289 349 235 c 1,24,25
 389 130 389 130 488 130 c 0,26,27
 591 130 591 130 668 202 c 1,28,29
 728 262 728 262 798 410 c 1,30,-1
 905 364 l 1,0,1
EndSplineSet
AnchorPoint: "BR" -69 188 mark 0
EndChar

StartChar: u0C03
Encoding: 3075 3075 105
Width: 676
Flags: W
LayerCount: 2
Fore
SplineSet
658 653 m 1,0,1
 644 583 644 583 577 526.5 c 128,-1,2
 510 470 510 470 436 470 c 256,3,4
 362 470 362 470 319 523 c 1,5,6
 293 562 293 562 293 615 c 0,7,8
 293 638 293 638 295 652 c 0,9,10
 311 729 311 729 374.5 780.5 c 128,-1,11
 438 832 438 832 513 832 c 0,12,13
 587 832 587 832 630 779 c 1,14,15
 660 744 660 744 660 694 c 0,16,17
 660 676 660 676 658 653 c 1,0,1
558 191 m 0,18,19
 544 122 544 122 477 65.5 c 128,-1,20
 410 9 410 9 336 9 c 0,21,22
 264 9 264 9 223 63 c 0,23,24
 193 102 193 102 193 153 c 0,25,26
 193 171 193 171 197 190 c 0,27,28
 213 265 213 265 276.5 317.5 c 128,-1,29
 340 370 340 370 415 370 c 256,30,31
 490 370 490 370 530 317 c 1,32,33
 562 281 562 281 562 230 c 0,34,35
 562 212 562 212 558 191 c 0,18,19
550 653 m 0,36,37
 551 658 551 658 551 670 c 0,38,39
 551 688 551 688 539 704 c 0,40,41
 523 725 523 725 491 725 c 256,42,43
 459 725 459 725 433.5 705.5 c 128,-1,44
 408 686 408 686 400 651 c 0,45,46
 399 644 399 644 399 633 c 0,47,48
 399 615 399 615 410 597 c 1,49,50
 428 575 428 575 460 575 c 256,51,52
 492 575 492 575 517.5 596.5 c 128,-1,53
 543 618 543 618 550 653 c 0,36,37
454 190 m 0,54,55
 455 195 455 195 455 207 c 0,56,57
 455 225 455 225 443 241 c 0,58,59
 427 262 427 262 394 262 c 0,60,61
 364 262 364 262 338.5 242.5 c 128,-1,62
 313 223 313 223 305 188 c 0,63,64
 304 181 304 181 304 170 c 0,65,66
 304 152 304 152 315 134 c 1,67,68
 333 112 333 112 363 112 c 0,69,70
 395 112 395 112 421.5 133.5 c 128,-1,71
 448 155 448 155 454 190 c 0,54,55
EndSplineSet
AnchorPoint: "BR" -69 188 mark 0
EndChar

StartChar: u0C05
Encoding: 3077 3077 106
Width: 1519
Flags: W
LayerCount: 2
Fore
SplineSet
1500 506 m 1,0,1
 1474 383 1474 383 1401.5 286.5 c 128,-1,2
 1329 190 1329 190 1206 119 c 0,3,4
 1001 1 1001 1 768 1 c 0,5,6
 521 1 521 1 366 114 c 1,7,8
 227 218 227 218 227 395 c 0,9,10
 227 435 227 435 229 453.5 c 128,-1,11
 231 472 231 472 238 504 c 0,12,13
 291 750 291 750 446 870 c 0,14,15
 556 956 556 956 675 956 c 0,16,17
 752 956 752 956 794 896 c 0,18,19
 823 854 823 854 823 801 c 0,20,21
 823 790 823 790 821 775 c 128,-1,22
 819 760 819 760 818 752 c 0,23,24
 800 666 800 666 731 604.5 c 128,-1,25
 662 543 662 543 585 543 c 0,26,27
 507 543 507 543 464 603 c 0,28,29
 435 645 435 645 435 699 c 0,30,31
 435 721 435 721 442 751 c 2,32,-1
 431 702 l 1,33,34
 426 698 426 698 398 633 c 1,35,36
 391 614 391 614 378 568 c 128,-1,37
 365 522 365 522 361 506 c 1,38,39
 352 457 352 457 352 425 c 0,40,41
 352 288 352 288 473.5 208.5 c 128,-1,42
 595 129 595 129 800 129 c 0,43,44
 989 129 989 129 1148 213 c 1,45,46
 1344 315 1344 315 1386 506 c 0,47,48
 1391 532 1391 532 1395 565.5 c 128,-1,49
 1399 599 1399 599 1399 621 c 0,50,51
 1399 706 1399 706 1360 757 c 1,52,53
 1311 828 1311 828 1216 828 c 0,54,55
 1160 828 1160 828 1109 778.5 c 128,-1,56
 1058 729 1058 729 1044 659 c 0,57,58
 1039 636 1039 636 1039 607 c 0,59,60
 1039 579 1039 579 1047 550 c 0,61,62
 1062 497 1062 497 1109 458 c 1,63,-1
 1226 458 l 1,64,-1
 1200 332 l 1,65,-1
 475 332 l 1,66,-1
 501 458 l 1,67,-1
 944 458 l 1,68,69
 925 497 925 497 917 558 c 1,70,71
 917 584 917 584 917.5 612 c 128,-1,72
 918 640 918 640 922 665 c 1,73,74
 950 786 950 786 1038.5 871 c 128,-1,75
 1127 956 1127 956 1241 956 c 0,76,77
 1381 956 1381 956 1458 863 c 1,78,79
 1521 785 1521 785 1521 657 c 0,80,81
 1521 624 1521 624 1517 586.5 c 128,-1,82
 1513 549 1513 549 1500 506 c 1,0,1
697 753 m 0,83,84
 698 758 698 758 698 770 c 0,85,86
 698 789 698 789 689 804 c 0,87,88
 674 827 674 827 645 827 c 256,89,90
 616 827 616 827 593 805 c 128,-1,91
 570 783 570 783 562 751 c 0,92,93
 560 742 560 742 560 726 c 256,94,95
 560 710 560 710 568 695 c 1,96,97
 583 673 583 673 612 673 c 0,98,99
 640 673 640 673 663.5 694 c 128,-1,100
 687 715 687 715 697 753 c 0,83,84
EndSplineSet
EndChar

StartChar: u0C06
Encoding: 3078 3078 107
Width: 1479
Flags: W
LayerCount: 2
Fore
SplineSet
1505 714 m 1,0,1
 1491 640 1491 640 1452 569 c 1,2,3
 1419 505 1419 505 1366 461 c 1,4,5
 1391 421 1391 421 1391 370 c 0,6,7
 1391 358 1391 358 1391 346 c 1,8,9
 1387 327 1387 327 1386 318 c 0,10,11
 1351 146 1351 146 1130 67 c 0,12,13
 1046 38 1046 38 943.5 23 c 128,-1,14
 841 8 841 8 714 8 c 0,15,16
 472 8 472 8 327 125 c 0,17,18
 200 227 200 227 200 399 c 0,19,20
 200 452 200 452 212 513 c 0,21,22
 262 751 262 751 409 872 c 0,23,24
 522 965 522 965 645 965 c 0,25,26
 724 965 724 965 766 905 c 0,27,28
 795 863 795 863 795 807 c 0,29,30
 795 785 795 785 791 760 c 1,31,32
 773 675 773 675 704 613 c 128,-1,33
 635 551 635 551 557 551 c 256,34,35
 479 551 479 551 436 611 c 0,36,37
 407 653 407 653 407 707 c 0,38,39
 407 729 407 729 414 759 c 1,40,-1
 405 713 l 1,41,42
 375 688 375 688 335 512 c 1,43,44
 327 470 327 470 327 434 c 0,45,46
 327 306 327 306 434 224 c 1,47,48
 551 136 551 136 744 136 c 0,49,50
 938 136 938 136 1071 169 c 1,51,52
 1246 215 1246 215 1268 318 c 0,53,54
 1270 326 1270 326 1270 340 c 0,55,56
 1270 352 1270 352 1266.5 360 c 128,-1,57
 1263 368 1263 368 1259 373.5 c 128,-1,58
 1255 379 1255 379 1246 387 c 1,59,-1
 1158 372 l 1,60,-1
 1105 365 l 1,61,-1
 455 365 l 1,62,-1
 483 496 l 1,63,-1
 1022 496 l 1,64,65
 978 529 978 529 959 579 c 1,66,67
 947 615 947 615 947 659 c 0,68,69
 947 688 947 688 952 714 c 0,70,71
 981 848 981 848 1095 912 c 1,72,73
 1181 959 1181 959 1281 959 c 0,74,75
 1376 959 1376 959 1445 905.5 c 128,-1,76
 1514 852 1514 852 1514 768 c 0,77,78
 1514 752 1514 752 1514 737 c 1,79,80
 1510 722 1510 722 1505 714 c 1,0,1
1389 715 m 1,81,82
 1391 731 1391 731 1391 736 c 0,83,84
 1391 775 1391 775 1348.5 803 c 128,-1,85
 1306 831 1306 831 1253 831 c 0,86,87
 1196 831 1196 831 1150 810 c 0,88,89
 1086 781 1086 781 1071 714 c 1,90,91
 1069 695 1069 695 1069 687 c 0,92,93
 1069 633 1069 633 1117 594 c 128,-1,94
 1165 555 1165 555 1261 530 c 1,95,96
 1304 552 1304 552 1343 605 c 1,97,98
 1373 651 1373 651 1389 715 c 1,81,82
672 756 m 0,99,100
 673 761 673 761 673 773 c 0,101,102
 673 792 673 792 662 811.5 c 128,-1,103
 651 831 651 831 619 831 c 0,104,105
 591 831 591 831 567.5 809 c 128,-1,106
 544 787 544 787 536 755 c 1,107,108
 534 739 534 739 534 732 c 0,109,110
 534 713 534 713 543 699 c 0,111,112
 558 676 558 676 586 676 c 256,113,114
 614 676 614 676 640 698 c 1,115,116
 661 719 661 719 672 756 c 0,99,100
EndSplineSet
EndChar

StartChar: u0C07
Encoding: 3079 3079 108
Width: 1230
Flags: W
LayerCount: 2
Fore
SplineSet
1223 564 m 1,0,1
 1211 509 1211 509 1178 435 c 0,2,3
 1162 398 1162 398 1143.5 366.5 c 128,-1,4
 1125 335 1125 335 1097 300 c 1,5,6
 1118 246 1118 246 1118 175 c 0,7,8
 1118 143 1118 143 1115.5 117.5 c 128,-1,9
 1113 92 1113 92 1105 53 c 0,10,11
 1083 -64 1083 -64 1005 -135 c 0,12,13
 935 -198 935 -198 845 -210 c 1,14,-1
 859 -83 l 1,15,16
 907 -75 907 -75 938.5 -42.5 c 128,-1,17
 970 -10 970 -10 985 53 c 0,18,19
 993 86 993 86 993 118 c 0,20,21
 993 133 993 133 993 149.5 c 128,-1,22
 993 166 993 166 994 185 c 1,23,24
 902 103 902 103 783 51.5 c 128,-1,25
 664 0 664 0 534 0 c 0,26,27
 366 0 366 0 288 78 c 1,28,29
 232 138 232 138 232 223 c 0,30,31
 232 248 232 248 239 283 c 0,32,33
 260 383 260 383 377 471 c 0,34,35
 511 571 511 571 666 571 c 0,36,37
 765 571 765 571 867 532 c 128,-1,38
 969 493 969 493 1037 408 c 1,39,40
 1058 441 1058 441 1077 489 c 0,41,42
 1085 507 1085 507 1092.5 530 c 128,-1,43
 1100 553 1100 553 1102 562 c 0,44,45
 1110 608 1110 608 1110 647 c 0,46,47
 1110 707 1110 707 1088 751 c 0,48,49
 1051 825 1051 825 973 825 c 0,50,51
 910 825 910 825 862.5 786.5 c 128,-1,52
 815 748 815 748 790 688 c 1,53,-1
 676 688 l 1,54,55
 677 695 677 695 677 709 c 0,56,57
 677 755 677 755 651 785 c 0,58,59
 616 824 616 824 542 824 c 0,60,61
 493 824 493 824 451 799 c 1,62,63
 416 776 416 776 405 733 c 0,64,65
 401 714 401 714 401 695 c 256,66,67
 401 676 401 676 408 646 c 0,68,69
 409 638 409 638 412.5 627.5 c 128,-1,70
 416 617 416 617 423 605 c 1,71,-1
 311 526 l 1,72,-1
 290 594 l 1,73,74
 281 641 281 641 281 685 c 0,75,76
 281 711 281 711 285 734 c 0,77,78
 304 822 304 822 383 889.5 c 128,-1,79
 462 957 462 957 569 957 c 0,80,81
 643 957 643 957 692.5 930 c 128,-1,82
 742 903 742 903 770 854 c 1,83,84
 813 897 813 897 873.5 927 c 128,-1,85
 934 957 934 957 999 957 c 0,86,87
 1120 957 1120 957 1188 851 c 1,88,89
 1232 777 1232 777 1232 674 c 0,90,91
 1232 624 1232 624 1223 564 c 1,0,1
943 297 m 1,92,93
 897 371 897 371 801 410 c 0,94,95
 724 442 724 442 633 442 c 0,96,97
 533 442 533 442 450 392 c 128,-1,98
 367 342 367 342 355 281 c 0,99,100
 351 265 351 265 351 252 c 0,101,102
 351 203 351 203 393 168 c 1,103,104
 449 128 449 128 556 128 c 0,105,106
 669 128 669 128 776 178 c 0,107,108
 864 220 864 220 943 297 c 1,92,93
EndSplineSet
EndChar

StartChar: u0C08
Encoding: 3080 3080 109
Width: 2015
Flags: W
LayerCount: 2
Fore
SplineSet
1955 306 m 1,0,1
 1929 183 1929 183 1825.5 91.5 c 128,-1,2
 1722 0 1722 0 1609 0 c 0,3,4
 1493 0 1493 0 1432 91 c 1,5,6
 1386 154 1386 154 1386 235 c 0,7,8
 1386 268 1386 268 1394 305 c 0,9,10
 1415 408 1415 408 1489 499 c 1,11,-1
 1229 499 l 1,12,13
 1185 288 1185 288 1034 143.5 c 128,-1,14
 883 -1 883 -1 708 -1 c 0,15,16
 534 -1 534 -1 442 139 c 0,17,18
 385 227 385 227 385 357 c 0,19,20
 385 420 385 420 400 499 c 1,21,-1
 242 499 l 1,22,-1
 270 629 l 1,23,-1
 445 629 l 1,24,25
 502 738 502 738 593.5 822 c 128,-1,26
 685 906 685 906 790 946 c 1,27,28
 754 968 754 968 724 1011 c 1,29,30
 701 1047 701 1047 692 1087 c 1,31,-1
 811 1155 l 1,32,33
 822 1134 822 1134 833 1116.5 c 128,-1,34
 844 1099 844 1099 856 1084 c 1,35,36
 893 1043 893 1043 932 1043 c 0,37,38
 1009 1043 1009 1043 1104 1129 c 1,39,-1
 1274 1290 l 1,40,41
 1384 1376 1384 1376 1503 1376 c 2,42,-1
 1678 1376 l 1,43,-1
 1648 1234 l 1,44,-1
 1471 1234 l 2,45,46
 1400 1234 1400 1234 1322 1176 c 1,47,-1
 1192 1053 l 1,48,49
 1111 972 1111 972 1043 940 c 1,50,51
 1124 900 1124 900 1175 815 c 1,52,53
 1226 737 1226 737 1238 630 c 1,54,-1
 1746 630 l 2,55,56
 1792 630 1792 630 1836 656 c 1,57,58
 1889 691 1889 691 1901 747 c 0,59,60
 1902 752 1902 752 1902 757.5 c 128,-1,61
 1902 763 1902 763 1902 765 c 0,62,63
 1902 795 1902 795 1877 823 c 1,64,65
 1842 858 1842 858 1796 858 c 0,66,67
 1722 858 1722 858 1680 826 c 1,68,69
 1640 798 1640 798 1628 745 c 1,70,-1
 1509 753 l 1,71,72
 1527 845 1527 845 1602 909 c 1,73,74
 1691 987 1691 987 1824 987 c 0,75,76
 1915 987 1915 987 1978 910 c 0,77,78
 2025 853 2025 853 2025 785 c 0,79,80
 2025 766 2025 766 2021 745 c 0,81,82
 2010 691 2010 691 1979.5 641.5 c 128,-1,83
 1949 592 1949 592 1905 559 c 1,84,85
 1966 494 1966 494 1966 389 c 0,86,87
 1966 350 1966 350 1955 306 c 1,0,1
1838 306 m 1,88,89
 1842 329 1842 329 1842 351 c 0,90,91
 1842 398 1842 398 1817 438 c 1,92,93
 1782 498 1782 498 1718 498 c 256,94,95
 1654 498 1654 498 1594 439.5 c 128,-1,96
 1534 381 1534 381 1518 304 c 0,97,98
 1513 283 1513 283 1513 261 c 0,99,100
 1513 218 1513 218 1538 181 c 1,101,102
 1574 131 1574 131 1641 131 c 256,103,104
 1708 131 1708 131 1764.5 180.5 c 128,-1,105
 1821 230 1821 230 1838 306 c 1,88,89
1107 630 m 1,106,107
 1091 716 1091 716 1033 776.5 c 128,-1,108
 975 837 975 837 890 837 c 256,109,110
 805 837 805 837 717 776 c 0,111,112
 640 722 640 722 579 630 c 1,113,-1
 1107 630 l 1,106,107
1113 500 m 1,114,-1
 523 500 l 1,115,116
 511 439 511 439 511 386 c 0,117,118
 511 300 511 300 548 235 c 1,119,120
 609 133 609 133 739 133 c 0,121,122
 865 133 865 133 972 237 c 128,-1,123
 1079 341 1079 341 1113 500 c 1,114,-1
EndSplineSet
EndChar

StartChar: u0C09
Encoding: 3081 3081 110
Width: 1671
Flags: W
LayerCount: 2
Fore
SplineSet
1673 602 m 1,0,-1
 590 602 l 1,1,2
 565 569 565 569 546 527 c 0,3,4
 539 512 539 512 528 477 c 0,5,6
 523 461 523 461 518 446 c 1,7,8
 500 360 500 360 500 293 c 0,9,10
 500 243 500 243 512 210 c 0,11,12
 541 136 541 136 626 136 c 256,13,14
 711 136 711 136 790 225 c 1,15,16
 861 332 861 332 876 350 c 1,17,-1
 968 350 l 1,18,19
 976 303 976 303 978 288 c 1,20,21
 989 245 989 245 993 224 c 1,22,23
 1026 136 1026 136 1122 136 c 0,24,25
 1206 136 1206 136 1267 196 c 0,26,27
 1320 247 1320 247 1332 307 c 1,28,-1
 1339 336 l 1,29,30
 1310 278 1310 278 1254 241 c 128,-1,31
 1198 204 1198 204 1141 204 c 0,32,33
 1071 204 1071 204 1030 258 c 0,34,35
 1002 295 1002 295 1002 348 c 0,36,37
 1002 369 1002 369 1006 392 c 1,38,39
 1025 476 1025 476 1088.5 535 c 128,-1,40
 1152 594 1152 594 1224 594 c 0,41,42
 1375 594 1375 594 1432 481 c 0,43,44
 1458 428 1458 428 1458 368 c 0,45,46
 1458 340 1458 340 1451 305 c 0,47,48
 1429 198 1429 198 1352 113 c 1,49,50
 1249 3 1249 3 1093 3 c 0,51,52
 1002 3 1002 3 944 53 c 0,53,54
 898 93 898 93 877 165 c 1,55,56
 820 96 820 96 760 56 c 0,57,58
 682 3 682 3 594 3 c 0,59,60
 456 3 456 3 403 98 c 1,61,62
 371 159 371 159 371 258 c 0,63,64
 371 342 371 342 393 445 c 0,65,66
 409 524 409 524 448 602 c 1,67,-1
 254 602 l 1,68,-1
 277 714 l 1,69,-1
 526 714 l 1,70,71
 614 816 614 816 735.5 879.5 c 128,-1,72
 857 943 857 943 988 959 c 1,73,-1
 1030 1159 l 1,74,-1
 1150 1159 l 1,75,-1
 1108 962 l 1,76,77
 1194 954 1194 954 1272 921 c 0,78,79
 1301 909 1301 909 1331.5 891.5 c 128,-1,80
 1362 874 1362 874 1391 852 c 1,81,-1
 1313 738 l 1,82,83
 1249 780 1249 780 1188 805 c 1,84,85
 1104 835 1104 835 1021 835 c 0,86,87
 929 835 929 835 844 806 c 128,-1,88
 759 777 759 777 684 716 c 1,89,-1
 1693 716 l 1,90,-1
 1673 602 l 1,0,-1
1241 399 m 0,91,92
 1242 404 1242 404 1242 415 c 0,93,94
 1242 431 1242 431 1232.5 447 c 128,-1,95
 1223 463 1223 463 1198 463 c 0,96,97
 1172 463 1172 463 1152.5 446 c 128,-1,98
 1133 429 1133 429 1129.5 407 c 128,-1,99
 1126 385 1126 385 1126 380 c 0,100,101
 1126 365 1126 365 1134 353 c 1,102,103
 1148 335 1148 335 1170 335 c 0,104,105
 1193 335 1193 335 1213 353.5 c 128,-1,106
 1233 372 1233 372 1241 399 c 0,91,92
EndSplineSet
EndChar

StartChar: u0C0A
Encoding: 3082 3082 111
Width: 2251
Flags: W
LayerCount: 2
Fore
SplineSet
2210 399 m 1,0,1
 2184 276 2184 276 2080.5 184.5 c 128,-1,2
 1977 93 1977 93 1864 93 c 0,3,4
 1748 93 1748 93 1687 183 c 1,5,6
 1641 246 1641 246 1641 327 c 0,7,8
 1641 360 1641 360 1650 404 c 128,-1,9
 1659 448 1659 448 1687 500.5 c 128,-1,10
 1715 553 1715 553 1757 595 c 1,11,-1
 580 595 l 1,12,-1
 541 520 l 2,13,14
 537 511 537 511 530 489 c 128,-1,15
 523 467 523 467 518 445 c 0,16,17
 500 354 500 354 500 300 c 0,18,19
 500 243 500 243 516 206 c 0,20,21
 545 135 545 135 626 135 c 0,22,23
 711 135 711 135 790 224 c 1,24,25
 861 331 861 331 876 349 c 1,26,-1
 968 349 l 1,27,-1
 994 221 l 1,28,29
 1030 132 1030 132 1123 132 c 0,30,31
 1204 132 1204 132 1267 189 c 0,32,33
 1318 235 1318 235 1330 295 c 1,34,35
 1335 313 1335 313 1335 328 c 1,36,37
 1303 271 1303 271 1251.5 237 c 128,-1,38
 1200 203 1200 203 1142 203 c 0,39,40
 1072 203 1072 203 1031 257 c 0,41,42
 1003 294 1003 294 1003 347 c 0,43,44
 1003 368 1003 368 1007 391 c 1,45,46
 1026 475 1026 475 1089.5 534 c 128,-1,47
 1153 593 1153 593 1225 593 c 0,48,49
 1370 593 1370 593 1427 486 c 1,50,51
 1456 429 1456 429 1456 362 c 0,52,53
 1456 333 1456 333 1449 294 c 1,54,55
 1428 192 1428 192 1342 109 c 1,56,57
 1236 3 1236 3 1094 3 c 0,58,59
 1003 3 1003 3 945 53 c 0,60,61
 899 93 899 93 878 165 c 1,62,63
 821 96 821 96 761 56 c 0,64,65
 683 3 683 3 595 3 c 0,66,67
 471 3 471 3 414 98 c 0,68,69
 375 162 375 162 375 271 c 0,70,71
 375 343 375 343 394 445 c 0,72,73
 403 488 403 488 415.5 522 c 128,-1,74
 428 556 428 556 449 596 c 1,75,-1
 261 596 l 1,76,-1
 284 710 l 1,77,-1
 527 710 l 1,78,79
 592 788 592 788 676.5 844 c 128,-1,80
 761 900 761 900 863 933 c 1,81,-1
 910 1158 l 1,82,-1
 1030 1158 l 1,83,-1
 988 958 l 1,84,-1
 1126 958 l 1,85,-1
 1168 1158 l 1,86,-1
 1288 1158 l 1,87,-1
 1241 930 l 1,88,89
 1274 921 1274 921 1311 902 c 1,90,91
 1325 896 1325 896 1414 840 c 1,92,-1
 1329 726 l 1,93,94
 1245 789 1245 789 1168 812 c 128,-1,95
 1091 835 1091 835 1020 835 c 0,96,97
 925 835 925 835 840 805 c 128,-1,98
 755 775 755 775 680 712 c 1,99,-1
 1990 712 l 2,100,101
 2039 712 2039 712 2081 735 c 0,102,103
 2132 764 2132 764 2144 822 c 0,104,105
 2146 836 2146 836 2146 843 c 0,106,107
 2146 873 2146 873 2120 903 c 0,108,109
 2087 940 2087 940 2041 940 c 0,110,111
 1970 940 1970 940 1926 910 c 128,-1,112
 1882 880 1882 880 1873 831 c 1,113,-1
 1753 831 l 1,114,115
 1771 922 1771 922 1846 989 c 0,116,117
 1934 1068 1934 1068 2069 1068 c 0,118,119
 2161 1068 2161 1068 2222 990 c 0,120,121
 2268 932 2268 932 2268 864 c 0,122,123
 2268 842 2268 842 2264 821 c 0,124,125
 2252 761 2252 761 2222 721.5 c 128,-1,126
 2192 682 2192 682 2143 650 c 1,127,128
 2182 611 2182 611 2201 540 c 1,129,130
 2209 504 2209 504 2209 467 c 0,131,132
 2209 432 2209 432 2210 399 c 1,0,1
2083 400 m 1,133,134
 2087 421 2087 421 2087 440 c 0,135,136
 2087 487 2087 487 2062 527 c 0,137,138
 2029 581 2029 581 1961 581 c 0,139,140
 1898 581 1898 581 1837 527 c 1,141,142
 1780 471 1780 471 1764 399 c 0,143,144
 1759 378 1759 378 1759 355 c 0,145,146
 1759 311 1759 311 1782 275 c 1,147,148
 1818 224 1818 224 1886 224 c 0,149,150
 1951 224 1951 224 2007.5 273.5 c 128,-1,151
 2064 323 2064 323 2083 400 c 1,133,134
1238 398 m 0,152,153
 1239 403 1239 403 1239 414 c 0,154,155
 1239 430 1239 430 1229.5 446 c 128,-1,156
 1220 462 1220 462 1195 462 c 0,157,158
 1169 462 1169 462 1149.5 445 c 128,-1,159
 1130 428 1130 428 1126.5 406 c 128,-1,160
 1123 384 1123 384 1123 379 c 0,161,162
 1123 364 1123 364 1131 352 c 1,163,164
 1145 334 1145 334 1167 334 c 0,165,166
 1190 334 1190 334 1210 352.5 c 128,-1,167
 1230 371 1230 371 1238 398 c 0,152,153
EndSplineSet
EndChar

StartChar: u0C0C
Encoding: 3084 3084 113
Width: 1537
Flags: W
LayerCount: 2
Fore
SplineSet
1484 344 m 1,0,1
 1419 34 1419 34 1251 -170 c 1,2,3
 1054 -412 1054 -412 773 -412 c 0,4,5
 542 -412 542 -412 454 -278 c 1,6,7
 407 -209 407 -209 407 -113 c 0,8,9
 407 -66 407 -66 416 -19 c 1,10,11
 445 112 445 112 575 212 c 0,12,13
 610 238 610 238 731 319 c 1,14,-1
 876 407 l 1,15,16
 948 447 948 447 1015 528 c 0,17,18
 1037 554 1037 554 1052 610 c 1,19,20
 1056 635 1056 635 1056 657 c 0,21,22
 1056 687 1056 687 1045 709 c 0,23,24
 1022 758 1022 758 955 758 c 0,25,26
 885 758 885 758 822 686 c 1,27,-1
 751 576 l 1,28,-1
 662 576 l 1,29,-1
 633 685 l 1,30,31
 597 759 597 759 505 759 c 0,32,33
 466 759 466 759 437 746 c 128,-1,34
 408 733 408 733 400 708 c 1,35,36
 398 689 398 689 398 675 c 0,37,38
 398 663 398 663 398 650 c 128,-1,39
 398 637 398 637 399 623 c 0,40,41
 401 595 401 595 406 579 c 1,42,-1
 290 519 l 1,43,-1
 279 583 l 1,44,45
 275 620 275 620 275 652 c 256,46,47
 275 684 275 684 279 709 c 1,48,49
 295 780 295 780 365.5 836 c 128,-1,50
 436 892 436 892 532 892 c 0,51,52
 621 892 621 892 677 845 c 0,53,54
 709 819 709 819 739 754 c 1,55,56
 781 810 781 810 834 847 c 1,57,58
 904 893 904 893 982 893 c 0,59,60
 1112 893 1112 893 1158 794 c 0,61,62
 1181 743 1181 743 1181 683 c 0,63,64
 1181 658 1181 658 1180 645.5 c 128,-1,65
 1179 633 1179 633 1172 605 c 1,66,67
 1161 552 1161 552 1140 517 c 0,68,69
 1089 435 1089 435 1022 377 c 1,70,-1
 762 205 l 1,71,-1
 618 115 l 1,72,73
 555 65 555 65 534 -16 c 1,74,75
 529 -42 529 -42 529 -72 c 0,76,77
 529 -139 529 -139 568 -190 c 1,78,79
 633 -278 633 -278 798 -278 c 0,80,81
 1020 -278 1020 -278 1176 -78 c 1,82,83
 1304 88 1304 88 1360 347 c 0,84,85
 1385 467 1385 467 1385 570 c 0,86,87
 1385 610 1385 610 1381 650 c 0,88,89
 1360 829 1360 829 1248 829 c 1,90,-1
 1280 980 l 1,91,92
 1439 980 1439 980 1488 750 c 1,93,94
 1504 666 1504 666 1504 578 c 0,95,96
 1504 468 1504 468 1484 344 c 1,0,1
EndSplineSet
EndChar

StartChar: u0C0E
Encoding: 3086 3086 114
Width: 1192
Flags: W
LayerCount: 2
Fore
SplineSet
1366 639 m 1,0,1
 1336 497 1336 497 1299 397 c 0,2,3
 1236 224 1236 224 1147 129 c 1,4,5
 1033 2 1033 2 878 2 c 0,6,7
 696 2 696 2 645 120 c 1,8,-1
 609 342 l 1,9,10
 588 462 588 462 475 462 c 0,11,12
 421 462 421 462 370 412 c 128,-1,13
 319 362 319 362 305 294 c 0,14,15
 301 271 301 271 301 253 c 0,16,17
 301 210 301 210 323 178 c 0,18,19
 355 132 355 132 416 132 c 0,20,21
 486 132 486 132 569 221 c 1,22,-1
 595 91 l 1,23,24
 546 51 546 51 491 26 c 1,25,26
 463 15 463 15 440 9.5 c 128,-1,27
 417 4 417 4 388 4 c 0,28,29
 282 4 282 4 219 89 c 1,30,31
 177 150 177 150 177 228 c 0,32,33
 177 247 177 247 178 257.5 c 128,-1,34
 179 268 179 268 183 294 c 1,35,36
 209 418 209 418 301 506 c 128,-1,37
 393 594 393 594 500 594 c 0,38,39
 654 594 654 594 693 476 c 1,40,-1
 730 254 l 1,41,42
 763 134 763 134 902 134 c 0,43,44
 1014 134 1014 134 1100.5 259.5 c 128,-1,45
 1187 385 1187 385 1244 641 c 1,46,47
 1263 739 1263 739 1263 835 c 0,48,49
 1263 895 1263 895 1255 958 c 0,50,51
 1230 1168 1230 1168 1120 1295 c 1,52,53
 981 1451 981 1451 734 1451 c 1,54,-1
 638 1447 l 1,55,56
 601 1443 601 1443 536 1431 c 1,57,-1
 544 1562 l 1,58,59
 667 1585 667 1585 772 1585 c 0,60,61
 1061 1585 1061 1585 1220 1403 c 0,62,63
 1350 1255 1350 1255 1380 1012 c 1,64,65
 1388 938 1388 938 1388 870 c 0,66,67
 1388 751 1388 751 1366 639 c 1,0,1
EndSplineSet
EndChar

StartChar: u0C0F
Encoding: 3087 3087 115
Width: 1365
Flags: W
LayerCount: 2
Fore
SplineSet
1010 1537 m 1,0,1
 917 1537 917 1537 846 1508 c 1,2,3
 751 1471 751 1471 693 1375 c 0,4,5
 688 1367 688 1367 675 1343.5 c 128,-1,6
 662 1320 662 1320 648 1288 c 0,7,8
 644 1277 644 1277 636 1247 c 128,-1,9
 628 1217 628 1217 621 1185.5 c 128,-1,10
 614 1154 614 1154 609.5 1127.5 c 128,-1,11
 605 1101 605 1101 605 1079 c 1,12,13
 604 1074 604 1074 604 1044 c 2,14,-1
 604 1004 l 1,15,-1
 484 1004 l 1,16,-1
 492 1117 l 2,17,18
 494 1140 494 1140 496 1156.5 c 128,-1,19
 498 1173 498 1173 505 1202 c 0,20,21
 517 1259 517 1259 518 1263 c 0,22,23
 525 1291 525 1291 536 1319 c 0,24,25
 554 1368 554 1368 589 1428 c 1,26,27
 674 1562 674 1562 808 1622 c 0,28,29
 911 1668 911 1668 1039 1668 c 1,30,-1
 1010 1537 l 1,0,1
1369 702 m 1,31,32
 1369 603 1369 603 1348 503 c 0,33,34
 1302 288 1302 288 1183 151 c 0,35,36
 1055 4 1055 4 890 4 c 0,37,38
 711 4 711 4 657 122 c 1,39,-1
 617 344 l 1,40,41
 594 464 594 464 482 464 c 0,42,43
 428 464 428 464 377 414 c 128,-1,44
 326 364 326 364 312 296 c 0,45,46
 308 275 308 275 308 257 c 0,47,48
 308 218 308 218 330 181 c 1,49,50
 362 134 362 134 425 134 c 0,51,52
 493 134 493 134 577 223 c 1,53,-1
 603 93 l 1,54,55
 554 53 554 53 499.5 29.5 c 128,-1,56
 445 6 445 6 396 6 c 0,57,58
 286 6 286 6 226 91 c 0,59,60
 184 152 184 152 184 230 c 0,61,62
 184 249 184 249 185 259.5 c 128,-1,63
 186 270 186 270 190 296 c 1,64,65
 216 420 216 420 308 508 c 128,-1,66
 400 596 400 596 507 596 c 0,67,68
 661 596 661 596 703 478 c 1,69,-1
 742 256 l 1,70,71
 775 136 775 136 916 136 c 0,72,73
 1033 136 1033 136 1114 235 c 0,74,75
 1186 324 1186 324 1219 476 c 0,76,77
 1240 575 1240 575 1240 675 c 0,78,79
 1240 799 1240 799 1217 891 c 128,-1,80
 1194 983 1194 983 1140 1060 c 0,81,82
 1024 1228 1024 1228 809 1228 c 1,83,-1
 828 1356 l 1,84,85
 1085 1356 1085 1356 1230 1160 c 1,86,87
 1365 981 1365 981 1369 702 c 1,31,32
EndSplineSet
EndChar

StartChar: u0C10
Encoding: 3088 3088 116
Width: 1359
Flags: W
LayerCount: 2
Fore
SplineSet
1327 438 m 0,0,1
 1281 230 1281 230 1161 110 c 0,2,3
 1052 1 1052 1 924 1 c 0,4,5
 755 1 755 1 697 118 c 1,6,-1
 647 336 l 1,7,8
 622 453 622 453 522 453 c 0,9,10
 465 453 465 453 417 405 c 128,-1,11
 369 357 369 357 354 287 c 0,12,13
 350 264 350 264 350 246 c 0,14,15
 350 206 350 206 371 174 c 1,16,17
 403 128 403 128 464 128 c 0,18,19
 535 128 535 128 618 217 c 1,20,-1
 643 90 l 1,21,22
 594 50 594 50 539.5 26.5 c 128,-1,23
 485 3 485 3 436 3 c 0,24,25
 330 3 330 3 267 87 c 1,26,27
 225 145 225 145 225 220 c 0,28,29
 225 259 225 259 232 288 c 0,30,31
 257 408 257 408 348.5 496.5 c 128,-1,32
 440 585 440 585 549 585 c 0,33,34
 701 585 701 585 741 468 c 1,35,-1
 778 249 l 1,36,37
 811 130 811 130 951 130 c 0,38,39
 1032 130 1032 130 1102 211.5 c 128,-1,40
 1172 293 1172 293 1207 438 c 1,41,42
 1225 520 1225 520 1225 594 c 0,43,44
 1225 669 1225 669 1204 723 c 1,45,46
 1167 829 1167 829 1058 829 c 0,47,48
 987 829 987 829 936 786 c 0,49,50
 904 760 904 760 858 690 c 1,51,-1
 760 690 l 1,52,53
 738 762 738 762 720 783 c 0,54,55
 680 829 680 829 582 829 c 0,56,57
 511 829 511 829 457 776 c 0,58,59
 435 754 435 754 419 728.5 c 128,-1,60
 403 703 403 703 398.5 679.5 c 128,-1,61
 394 656 394 656 396 640 c 1,62,-1
 276 640 l 1,63,-1
 280 680 l 1,64,65
 301 778 301 778 375 856 c 0,66,67
 471 959 471 959 610 959 c 0,68,69
 709 959 709 959 765 927 c 1,70,71
 807 905 807 905 837 851 c 1,72,73
 883 901 883 901 939 927 c 0,74,75
 1006 959 1006 959 1087 959 c 0,76,77
 1239 959 1239 959 1307 818 c 1,78,79
 1349 736 1349 736 1349 620 c 0,80,81
 1349 539 1349 539 1327 438 c 0,0,1
EndSplineSet
EndChar

StartChar: u0C12
Encoding: 3090 3090 117
Width: 1299
Flags: W
LayerCount: 2
Fore
SplineSet
1190 501 m 1,0,1
 1237 422 1237 422 1237 338 c 0,2,3
 1237 306 1237 306 1229 270 c 0,4,5
 1204 157 1204 157 1112.5 79.5 c 128,-1,6
 1021 2 1021 2 890 2 c 0,7,8
 783 2 783 2 723 41 c 1,9,10
 674 71 674 71 649 135 c 1,11,12
 593 75 593 75 517 38 c 128,-1,13
 441 1 441 1 353 1 c 0,14,15
 262 1 262 1 211 73 c 1,16,17
 178 122 178 122 178 186 c 0,18,19
 178 219 178 219 186 259 c 0,20,21
 208 373 208 373 301 451 c 1,22,23
 361 500 361 500 498 565 c 1,24,25
 595 605 595 605 624 627 c 1,26,27
 678 664 678 664 692 725 c 1,28,29
 694 741 694 741 694 746 c 0,30,31
 694 776 694 776 671 797 c 0,32,33
 642 823 642 823 579 823 c 0,34,35
 498 823 498 823 450 765 c 0,36,37
 438 749 438 749 420 707 c 1,38,-1
 300 707 l 1,39,40
 330 792 330 792 358 829 c 0,41,42
 447 952 447 952 607 952 c 0,43,44
 727 952 727 952 780 889 c 1,45,46
 819 846 819 846 819 779 c 0,47,48
 819 756 819 756 812 724 c 0,49,50
 789 618 789 618 714 553 c 0,51,52
 653 500 653 500 522 446 c 0,53,54
 443 413 443 413 387 370 c 0,55,56
 322 320 322 320 307 257 c 0,57,58
 303 236 303 236 303 218 c 0,59,60
 303 189 303 189 315 164 c 1,61,62
 336 127 336 127 382 127 c 0,63,64
 464 127 464 127 538 180 c 0,65,66
 601 226 601 226 643 307 c 1,67,-1
 750 307 l 1,68,69
 758 219 758 219 777 184 c 1,70,71
 814 127 814 127 917 127 c 0,72,73
 989 127 989 127 1038 171 c 1,74,75
 1088 213 1088 213 1103 280 c 0,76,77
 1107 299 1107 299 1107 317 c 0,78,79
 1107 363 1107 363 1081 406 c 1,80,-1
 1190 501 l 1,0,1
EndSplineSet
EndChar

StartChar: u0C13
Encoding: 3091 3091 118
Width: 1299
Flags: W
LayerCount: 2
Fore
SplineSet
1190 501 m 1,0,1
 1222 451 1222 451 1230 395 c 0,2,3
 1232 383 1232 383 1232 370.5 c 128,-1,4
 1232 358 1232 358 1232 346 c 0,5,6
 1232 327 1232 327 1232 308 c 1,7,8
 1228 292 1228 292 1227 284 c 0,9,10
 1202 170 1202 170 1113 91 c 1,11,12
 1015 6 1015 6 890 6 c 0,13,14
 783 6 783 6 723 45 c 1,15,16
 674 75 674 75 649 139 c 1,17,18
 593 79 593 79 517 42 c 128,-1,19
 441 5 441 5 353 5 c 0,20,21
 260 5 260 5 211 72 c 1,22,23
 176 116 176 116 176 187 c 0,24,25
 176 202 176 202 178 220 c 128,-1,26
 180 238 180 238 185 263 c 0,27,28
 206 366 206 366 298 444 c 1,29,30
 355 490 355 490 495 557 c 1,31,32
 579 590 579 590 623 626 c 1,33,34
 679 670 679 670 693 733 c 1,35,36
 695 749 695 749 695 754 c 0,37,38
 695 784 695 784 670 803 c 1,39,40
 641 828 641 828 577 828 c 0,41,42
 496 828 496 828 449 767 c 1,43,44
 435 746 435 746 420 706 c 1,45,-1
 301 717 l 1,46,47
 322 778 322 778 343 814 c 1,48,49
 408 919 408 919 520 948 c 1,50,51
 516 970 516 970 513.5 989.5 c 128,-1,52
 511 1009 511 1009 511 1028 c 1,53,-1
 520 1109 l 1,54,55
 536 1186 536 1186 585 1258 c 0,56,57
 617 1305 617 1305 675 1363 c 1,58,-1
 745 1268 l 1,59,60
 710 1239 710 1239 681 1196 c 0,61,62
 667 1175 667 1175 658 1154 c 128,-1,63
 649 1133 649 1133 643.5 1111 c 128,-1,64
 638 1089 638 1089 637 1072.5 c 128,-1,65
 636 1056 636 1056 636 1034 c 0,66,67
 636 999 636 999 650 959 c 1,68,69
 748 947 748 947 791 886 c 0,70,71
 819 846 819 846 819 789 c 0,72,73
 819 759 819 759 814 733 c 0,74,75
 793 627 793 627 712 553 c 1,76,77
 644 489 644 489 526.5 436.5 c 128,-1,78
 409 384 409 384 356 340 c 1,79,80
 316 303 316 303 307 263 c 1,81,82
 303 240 303 240 303 224 c 0,83,84
 303 194 303 194 315 171 c 1,85,86
 336 135 336 135 382 135 c 0,87,88
 461 135 461 135 531 185 c 128,-1,89
 601 235 601 235 643 314 c 1,90,-1
 750 314 l 1,91,92
 758 226 758 226 777 191 c 1,93,94
 814 134 814 134 917 134 c 0,95,96
 989 134 989 134 1038.5 178 c 128,-1,97
 1088 222 1088 222 1103 289 c 0,98,99
 1107 308 1107 308 1107 326 c 0,100,101
 1107 370 1107 370 1081 413 c 1,102,-1
 1190 501 l 1,0,1
EndSplineSet
EndChar

StartChar: u0C14
Encoding: 3092 3092 119
Width: 1299
Flags: W
LayerCount: 2
Fore
SplineSet
1453 1009 m 1,0,1
 1437 928 1437 928 1368 866.5 c 128,-1,2
 1299 805 1299 805 1225 805 c 0,3,4
 1150 805 1150 805 1107 865 c 1,5,6
 1078 909 1078 909 1078 966 c 0,7,8
 1078 984 1078 984 1081.5 1003.5 c 128,-1,9
 1085 1023 1085 1023 1087 1029 c 128,-1,10
 1089 1035 1089 1035 1093 1044 c 2,11,-1
 1114 1083 l 1,12,-1
 904 1083 l 1,13,14
 905 1076 905 1076 905 1062 c 0,15,16
 905 1044 905 1044 901 1021 c 1,17,18
 890 972 890 972 866.5 937 c 128,-1,19
 843 902 843 902 806 876 c 1,20,21
 824 846 824 846 824 800 c 0,22,23
 824 784 824 784 821.5 767.5 c 128,-1,24
 819 751 819 751 818 740 c 1,25,26
 796 626 796 626 715 552 c 1,27,28
 657 501 657 501 532 444.5 c 128,-1,29
 407 388 407 388 392 377 c 1,30,31
 324 335 324 335 310 267 c 0,32,33
 306 248 306 248 306 232 c 0,34,35
 306 203 306 203 320 175 c 1,36,37
 341 138 341 138 385 138 c 0,38,39
 464 138 464 138 536 191 c 128,-1,40
 608 244 608 244 647 321 c 1,41,-1
 754 321 l 1,42,43
 754 278 754 278 761.5 248 c 128,-1,44
 769 218 769 218 781 197 c 0,45,46
 817 139 817 139 920 139 c 0,47,48
 990 139 990 139 1041.5 184.5 c 128,-1,49
 1093 230 1093 230 1108 298 c 0,50,51
 1112 317 1112 317 1112 336 c 0,52,53
 1112 379 1112 379 1089 418 c 1,54,-1
 1189 515 l 1,55,56
 1221 469 1221 469 1230 412 c 0,57,58
 1232 400 1232 400 1232 387.5 c 128,-1,59
 1232 375 1232 375 1232 363 c 0,60,61
 1232 326 1232 326 1227 297 c 1,62,63
 1202 179 1202 179 1111 97 c 1,64,65
 1016 9 1016 9 891 9 c 0,66,67
 782 9 782 9 724 49 c 0,68,69
 674 84 674 84 652 148 c 1,70,71
 595 87 595 87 519 48 c 128,-1,72
 443 9 443 9 355 9 c 0,73,74
 264 9 264 9 213 83 c 1,75,76
 181 132 181 132 181 203 c 0,77,78
 181 232 181 232 188 271 c 1,79,80
 224 434 224 434 350 498 c 1,81,-1
 498 562 l 2,82,83
 582 598 582 598 625 635 c 0,84,85
 678 681 678 681 692 744 c 1,86,87
 694 760 694 760 694 767 c 0,88,89
 694 797 694 797 672 815 c 1,90,91
 644 840 644 840 581 840 c 0,92,93
 510 840 510 840 457 779 c 0,94,95
 443 764 443 764 420 718 c 1,96,-1
 303 718 l 1,97,-1
 315 757 l 1,98,99
 329 790 329 790 336 803 c 128,-1,100
 343 816 343 816 361 839 c 1,101,-1
 332 839 l 1,102,-1
 360 967 l 1,103,-1
 722 967 l 2,104,105
 740 967 740 967 757.5 979.5 c 128,-1,106
 775 992 775 992 783 1024 c 0,107,108
 784 1028 784 1028 784 1032.5 c 128,-1,109
 784 1037 784 1037 784 1038 c 0,110,111
 784 1053 784 1053 774.5 1066.5 c 128,-1,112
 765 1080 765 1080 747 1084 c 1,113,-1
 389 1084 l 1,114,-1
 415 1212 l 1,115,-1
 1315 1212 l 2,116,117
 1392 1212 1392 1212 1432 1151 c 1,118,119
 1461 1109 1461 1109 1461 1053 c 0,120,121
 1461 1032 1461 1032 1453 1009 c 1,0,1
1337 1007 m 1,122,123
 1339 1021 1339 1021 1339 1027 c 0,124,125
 1339 1046 1339 1046 1330 1060 c 0,126,127
 1316 1082 1316 1082 1288 1082 c 256,128,129
 1260 1082 1260 1082 1237 1060 c 1,130,131
 1226 1051 1226 1051 1219 1038 c 128,-1,132
 1212 1025 1212 1025 1208.5 1013.5 c 128,-1,133
 1205 1002 1205 1002 1205 996.5 c 128,-1,134
 1205 991 1205 991 1205 989 c 0,135,136
 1205 971 1205 971 1215.5 953 c 128,-1,137
 1226 935 1226 935 1256 935 c 0,138,139
 1281 935 1281 935 1304.5 956 c 128,-1,140
 1328 977 1328 977 1337 1007 c 1,122,123
EndSplineSet
EndChar

StartChar: u0C15.base
Encoding: 65539 -1 121
Width: 1233
Flags: W
LayerCount: 2
Fore
SplineSet
1174 317 m 0,0,1
 1137 141 1137 141 958 60 c 1,2,3
 821 0 821 0 614 0 c 0,4,5
 391 0 391 0 279 138 c 1,6,7
 207 230 207 230 207 335 c 0,8,9
 207 371 207 371 215 408 c 1,10,-1
 335 408 l 1,11,12
 331 385 331 385 331 364 c 0,13,14
 331 285 331 285 394 218 c 0,15,16
 482 126 482 126 641 126 c 0,17,18
 793 126 793 126 893 161 c 0,19,20
 1028 207 1028 207 1053 317 c 0,21,22
 1057 338 1057 338 1057 354 c 0,23,24
 1057 432 1057 432 971 458 c 1,25,26
 907 476 907 476 731 476 c 2,27,-1
 692 476 l 1,28,-1
 662 476 l 1,29,-1
 637 476 l 1,30,-1
 618 476 l 1,31,-1
 602 476 l 2,32,33
 579 476 579 476 560.5 476.5 c 128,-1,34
 542 477 542 477 523 481 c 1,35,36
 420 493 420 493 377 536 c 1,37,38
 344 572 344 572 344 633 c 0,39,40
 344 662 344 662 352 702 c 0,41,42
 374 812 374 812 455 872 c 1,43,44
 572 953 572 953 814 953 c 0,45,46
 1028 953 1028 953 1113 860 c 1,47,48
 1159 807 1159 807 1159 742 c 0,49,50
 1159 721 1159 721 1155 700 c 1,51,-1
 1035 700 l 1,52,53
 1036 705 1036 705 1036 714 c 0,54,55
 1036 750 1036 750 993 780 c 1,56,57
 926 823 926 823 786 823 c 0,58,59
 621 823 621 823 543 784 c 0,60,61
 483 755 483 755 472 701 c 0,62,63
 468 685 468 685 468 671 c 0,64,65
 468 635 468 635 498 616 c 1,66,67
 531 598 531 598 610 598 c 2,68,-1
 696 599 l 1,69,-1
 721 599 l 2,70,71
 730 599 730 599 739 599 c 1,72,73
 753 601 753 601 758 601 c 0,74,75
 919 601 919 601 990 586 c 1,76,77
 1097 565 1097 565 1147 505 c 0,78,79
 1182 462 1182 462 1182 390 c 0,80,81
 1182 355 1182 355 1174 317 c 0,0,1
EndSplineSet
AnchorPoint: "BLW" 203 0 basechar 0
AnchorPoint: "BR" 368 188 basechar 0
AnchorPoint: "V" 200 446 basechar 0
Ligature2: "'blws' Below Base Substitutions in Telugu lookup 3 subtable" u0C15.base u0C30.sub
MultipleSubs2: "Multiple Substitution lookup 13 subtable" u0C30.sub.alt u0C15.base
LCarets2: 1 0 
GlyphClass: 2

EndChar

StartChar: u0C15.sub
Encoding: 65540 -1 122
Width: 1124
Flags: W
LayerCount: 2
Fore
SplineSet
1097 -14 m 1,0,-1
 665 -14 l 1,1,2
 679 -78 679 -78 679 -161 c 0,3,4
 679 -196 679 -196 675 -238 c 128,-1,5
 671 -280 671 -280 664 -319 c 1,6,7
 628 -488 628 -488 529 -587 c 1,8,9
 408 -706 408 -706 215 -706 c 0,10,11
 71 -706 71 -706 -20 -601 c 1,12,13
 -87 -519 -87 -519 -87 -396 c 0,14,15
 -87 -377 -87 -377 -86.5 -354 c 128,-1,16
 -86 -331 -86 -331 -77 -287 c 0,17,18
 -40 -118 -40 -118 44 8 c 1,19,20
 101 89 101 89 229 215 c 1,21,-1
 370 352 l 1,22,23
 431 429 431 429 456 543 c 0,24,25
 460 565 460 565 463.5 594 c 128,-1,26
 467 623 467 623 467 644 c 0,27,28
 467 732 467 732 423 778 c 128,-1,29
 379 824 379 824 295 824 c 1,30,-1
 266 823 l 1,31,-1
 251 821 l 1,32,-1
 279 952 l 1,33,-1
 297 954 l 1,34,-1
 348 958 l 1,35,36
 469 958 469 958 531 889.5 c 128,-1,37
 593 821 593 821 593 695 c 0,38,39
 593 660 593 660 589 624 c 128,-1,40
 585 588 585 588 576 542 c 1,41,42
 557 456 557 456 522.5 384 c 128,-1,43
 488 312 488 312 438 258 c 1,44,-1
 303 125 l 1,45,46
 194 21 194 21 148 -42 c 1,47,48
 78 -141 78 -141 43 -286 c 1,49,50
 35 -326 35 -326 35 -361 c 0,51,52
 35 -443 35 -443 81 -501 c 1,53,54
 142 -573 142 -573 241 -573 c 0,55,56
 368 -573 368 -573 449 -491 c 1,57,58
 514 -423 514 -423 542 -303 c 1,59,60
 554 -240 554 -240 554 -179 c 2,61,-1
 554 -158 l 2,62,63
 554 -146 554 -146 552 -124 c 0,64,65
 544 -35 544 -35 514 14 c 1,66,-1
 572 120 l 1,67,-1
 1125 120 l 1,68,-1
 1097 -14 l 1,0,-1
EndSplineSet
AnchorPoint: "BR" 0 188 mark 0
Ligature2: "'blwf' Below Base Form (sub)" u0C15 u0C4D
LCarets2: 1 0 

EndChar

StartChar: u0C15_u0C4D_u0C37.base
Encoding: 65542 -1 124
Width: 1233
Flags: W
LayerCount: 2
Fore
SplineSet
1173 309 m 1,0,1
 1136 134 1136 134 957 51 c 1,2,3
 817 -10 817 -10 612 -10 c 0,4,5
 384 -10 384 -10 278 129 c 1,6,7
 206 221 206 221 206 328 c 0,8,9
 206 363 206 363 214 403 c 1,10,-1
 334 403 l 1,11,12
 330 380 330 380 330 359 c 0,13,14
 330 277 330 277 393 213 c 0,15,16
 484 121 484 121 640 121 c 0,17,18
 847 121 847 121 950 176 c 0,19,20
 1035 222 1035 222 1053 308 c 0,21,22
 1057 329 1057 329 1057 345 c 0,23,24
 1057 423 1057 423 971 452 c 1,25,26
 907 470 907 470 731 470 c 2,27,-1
 692 470 l 1,28,-1
 662 470 l 1,29,-1
 637 470 l 1,30,-1
 618 470 l 1,31,-1
 602 470 l 2,32,33
 579 470 579 470 560.5 470.5 c 128,-1,34
 542 471 542 471 523 475 c 1,35,36
 421 487 421 487 377 531 c 1,37,38
 345 567 345 567 345 632 c 0,39,40
 345 660 345 660 352 699 c 1,41,42
 377 813 377 813 456 870 c 0,43,44
 572 952 572 952 815 952 c 0,45,46
 1030 952 1030 952 1112 857 c 0,47,48
 1159 804 1159 804 1159 736 c 0,49,50
 1159 717 1159 717 1155 696 c 1,51,-1
 1035 696 l 1,52,53
 1043 740 1043 740 992 777 c 1,54,55
 925 820 925 820 787 820 c 0,56,57
 624 820 624 820 545 783 c 0,58,59
 485 754 485 754 473 698 c 0,60,61
 471 687 471 687 471 668 c 0,62,63
 471 631 471 631 500 612.5 c 128,-1,64
 529 594 529 594 603 594 c 1,65,-1
 692 596 l 1,66,-1
 764 598 l 1,67,68
 912 598 912 598 994 582 c 0,69,70
 1105 560 1105 560 1151 502 c 0,71,72
 1186 458 1186 458 1186 384 c 0,73,74
 1186 348 1186 348 1173 309 c 1,0,1
1037 -465 m 1,75,76
 948 -465 948 -465 905 -439 c 1,77,78
 861 -416 861 -416 843 -349 c 1,79,80
 811 -365 811 -365 774 -374 c 0,81,82
 756 -378 756 -378 736.5 -380.5 c 128,-1,83
 717 -383 717 -383 694 -383 c 0,84,85
 636 -383 636 -383 596 -361 c 1,86,87
 553 -340 553 -340 530 -304 c 1,88,89
 495 -337 495 -337 437 -360 c 128,-1,90
 379 -383 379 -383 307 -383 c 0,91,92
 156 -383 156 -383 119 -258 c 1,93,94
 111 -225 111 -225 111 -185 c 0,95,96
 111 -135 111 -135 123 -68 c 1,97,-1
 243 -68 l 1,98,99
 231 -126 231 -126 231 -162 c 0,100,101
 231 -171 231 -171 233 -187 c 0,102,103
 245 -265 245 -265 331 -265 c 0,104,105
 415 -265 415 -265 462 -204 c 1,106,107
 474 -186 474 -186 492 -143 c 1,108,-1
 612 -129 l 1,109,110
 612 -152 612 -152 614.5 -166 c 128,-1,111
 617 -180 617 -180 622 -196 c 1,112,113
 650 -264 650 -264 718 -264 c 0,114,115
 820 -264 820 -264 867 -171 c 0,116,117
 883 -141 883 -141 894 -95 c 1,118,-1
 896 -80 l 1,119,-1
 896 -75 l 1,120,-1
 1019 -62 l 1,121,-1
 1015 -88 l 1,122,123
 1008 -124 1008 -124 1006 -130.5 c 128,-1,124
 1004 -137 1004 -137 995 -162.5 c 128,-1,125
 986 -188 986 -188 978 -204 c 128,-1,126
 970 -220 970 -220 954 -242 c 1,127,128
 954 -295 954 -295 979 -320 c 1,129,130
 1000 -345 1000 -345 1064 -345 c 1,131,-1
 1037 -465 l 1,75,76
EndSplineSet
AnchorPoint: "BR" 365 188 basechar 0
AnchorPoint: "V" 196 446 basechar 0
Ligature2: "'blws' Below Base Substitutions in Telugu lookup 3 subtable" u0C15_u0C4D_u0C37.base u0C30.sub
MultipleSubs2: "Multiple Substitution lookup 13 subtable" u0C30.sub.alt u0C15_u0C4D_u0C37.base
LCarets2: 1 0 
GlyphClass: 2

EndChar

StartChar: u0C16
Encoding: 3094 3094 125
Width: 1433
Flags: W
LayerCount: 2
Fore
SplineSet
1400 432 m 1,0,1
 1358 241 1358 241 1251 116.5 c 128,-1,2
 1144 -8 1144 -8 1000 -8 c 0,3,4
 954 -8 954 -8 916.5 3 c 128,-1,5
 879 14 879 14 840 40 c 0,6,7
 784 77 784 77 740 151 c 1,8,9
 670 76 670 76 588.5 33.5 c 128,-1,10
 507 -9 507 -9 412 -9 c 0,11,12
 292 -9 292 -9 221 66 c 1,13,14
 175 119 175 119 175 186 c 0,15,16
 175 207 175 207 179 228 c 0,17,18
 197 317 197 317 280 384 c 128,-1,19
 363 451 363 451 480 451 c 0,20,21
 571 451 571 451 642 418 c 0,22,23
 696 393 696 393 745 340 c 1,24,25
 761 368 761 368 779 415 c 0,26,27
 783 423 783 423 790 448 c 128,-1,28
 797 473 797 473 804.5 505 c 128,-1,29
 812 537 812 537 812 581 c 0,30,31
 812 624 812 624 800 661 c 0,32,33
 778 728 778 728 700 760 c 1,34,-1
 700 745 l 2,35,36
 700 722 700 722 696 701 c 0,37,38
 680 622 680 622 616 567.5 c 128,-1,39
 552 513 552 513 480 513 c 0,40,41
 409 513 409 513 369 566 c 0,42,43
 355 585 355 585 348 606 c 128,-1,44
 341 627 341 627 341 655 c 0,45,46
 341 664 341 664 343 678 c 128,-1,47
 345 692 345 692 346 700 c 0,48,49
 367 800 367 800 444.5 852.5 c 128,-1,50
 522 905 522 905 632 905 c 0,51,52
 815 905 815 905 894 784 c 1,53,54
 938 712 938 712 938 612 c 0,55,56
 938 579 938 579 936 561 c 128,-1,57
 934 543 934 543 925 493 c 1,58,59
 900 372 900 372 823 256 c 1,60,61
 883 182 883 182 905 163 c 1,62,63
 933 142 933 142 963 131 c 128,-1,64
 993 120 993 120 1028 120 c 0,65,66
 1120 120 1120 120 1183 202.5 c 128,-1,67
 1246 285 1246 285 1281 432 c 1,68,69
 1299 514 1299 514 1299 588 c 0,70,71
 1299 653 1299 653 1280 707 c 1,72,73
 1236 820 1236 820 1110 820 c 1,74,-1
 1128 948 l 1,75,76
 1291 948 1291 948 1361 828 c 0,77,78
 1387 785 1387 785 1401.5 725 c 128,-1,79
 1416 665 1416 665 1416 594 c 0,80,81
 1416 550 1416 550 1412.5 515.5 c 128,-1,82
 1409 481 1409 481 1400 432 c 1,0,1
575 704 m 0,83,84
 576 709 576 709 576 720 c 0,85,86
 576 734 576 734 568 749 c 1,87,88
 556 768 556 768 533 768 c 256,89,90
 510 768 510 768 491 749 c 0,91,92
 482 740 482 740 476.5 729.5 c 128,-1,93
 471 719 471 719 468.5 708.5 c 128,-1,94
 466 698 466 698 466 689 c 0,95,96
 466 675 466 675 475.5 660 c 128,-1,97
 485 645 485 645 508 645 c 0,98,99
 530 645 530 645 551.5 663.5 c 128,-1,100
 573 682 573 682 575 704 c 0,83,84
669 235 m 1,101,102
 629 278 629 278 583 297 c 1,103,104
 529 322 529 322 454 322 c 0,105,106
 396 322 396 322 353 295.5 c 128,-1,107
 310 269 310 269 302 229 c 0,108,109
 300 215 300 215 300 211 c 0,110,111
 300 179 300 179 332 151 c 1,112,113
 374 121 374 121 442 121 c 0,114,115
 507 121 507 121 562.5 150 c 128,-1,116
 618 179 618 179 669 235 c 1,101,102
734 -266 m 1,117,-1
 551 -266 l 1,118,-1
 656 -3 l 1,119,-1
 741 -3 l 1,120,-1
 734 -266 l 1,117,-1
EndSplineSet
AnchorPoint: "BR" 578 188 basechar 0
AnchorPoint: "BLW" 298 0 basechar 0
Ligature2: "'blws' Below Base Substitutions in Telugu lookup 3 subtable" u0C16 u0C30.sub
AlternateSubs2: "Alternate Substitution lookup 14 subtable" u0C16.base
MultipleSubs2: "Multiple Substitution lookup 13 subtable" u0C30.sub.alt u0C16

EndChar

StartChar: u0C16.base
Encoding: 65543 -1 126
Width: 1433
Flags: W
LayerCount: 2
Fore
SplineSet
1401 443 m 0,0,1
 1364 262 1364 262 1244 118 c 1,2,3
 1137 -8 1137 -8 1002 -8 c 0,4,5
 917 -8 917 -8 850 42 c 0,6,7
 813 70 813 70 749 155 c 1,8,9
 679 81 679 81 592.5 36.5 c 128,-1,10
 506 -8 506 -8 414 -8 c 0,11,12
 294 -8 294 -8 223 67 c 1,13,14
 177 120 177 120 177 187 c 0,15,16
 177 208 177 208 181 229 c 0,17,18
 199 321 199 321 280 384 c 0,19,20
 368 452 368 452 482 452 c 0,21,22
 573 452 573 452 644 419 c 0,23,24
 698 394 698 394 747 341 c 1,25,26
 763 369 763 369 781 416 c 0,27,28
 785 424 785 424 792 449 c 128,-1,29
 799 474 799 474 806.5 506 c 128,-1,30
 814 538 814 538 814 582 c 0,31,32
 814 625 814 625 802 662 c 0,33,34
 780 729 780 729 702 761 c 1,35,-1
 702 746 l 2,36,37
 702 723 702 723 698 702 c 0,38,39
 682 623 682 623 618 568.5 c 128,-1,40
 554 514 554 514 482 514 c 0,41,42
 411 514 411 514 371 567 c 0,43,44
 357 586 357 586 350 607 c 128,-1,45
 343 628 343 628 343 656 c 0,46,47
 343 665 343 665 345 679 c 128,-1,48
 347 693 347 693 348 701 c 0,49,50
 359 754 359 754 382.5 791 c 128,-1,51
 406 828 406 828 443.5 853 c 128,-1,52
 481 878 481 878 529 892 c 128,-1,53
 577 906 577 906 633 906 c 0,54,55
 816 906 816 906 895 785 c 1,56,57
 939 713 939 713 939 613 c 0,58,59
 939 580 939 580 937 562 c 128,-1,60
 935 544 935 544 926 494 c 0,61,62
 901 368 901 368 829 259 c 1,63,64
 886 187 886 187 908 166 c 1,65,66
 962 123 962 123 1030 123 c 0,67,68
 1115 123 1115 123 1182.5 210.5 c 128,-1,69
 1250 298 1250 298 1282 443 c 0,70,71
 1294 501 1294 501 1294 552 c 0,72,73
 1294 633 1294 633 1265 696 c 1,74,75
 1202 826 1202 826 1018 826 c 1,76,-1
 1045 957 l 1,77,78
 1291 957 1291 957 1377 787 c 0,79,80
 1417 706 1417 706 1417 593 c 0,81,82
 1417 525 1417 525 1401 443 c 0,0,1
573 704 m 0,83,84
 574 709 574 709 574 720 c 0,85,86
 574 734 574 734 566 749 c 1,87,88
 554 768 554 768 531 768 c 256,89,90
 508 768 508 768 489 749 c 0,91,92
 480 740 480 740 474.5 729.5 c 128,-1,93
 469 719 469 719 466.5 708.5 c 128,-1,94
 464 698 464 698 464 689 c 0,95,96
 464 675 464 675 473.5 660 c 128,-1,97
 483 645 483 645 506 645 c 0,98,99
 528 645 528 645 549.5 663.5 c 128,-1,100
 571 682 571 682 573 704 c 0,83,84
667 235 m 1,101,102
 627 278 627 278 581 297 c 1,103,104
 527 322 527 322 452 322 c 0,105,106
 394 322 394 322 351 295.5 c 128,-1,107
 308 269 308 269 300 229 c 0,108,109
 298 215 298 215 298 211 c 0,110,111
 298 178 298 178 334 151 c 128,-1,112
 370 124 370 124 441 124 c 0,113,114
 504 124 504 124 561 153 c 128,-1,115
 618 182 618 182 667 235 c 1,101,102
732 -266 m 1,116,-1
 549 -266 l 1,117,-1
 654 -3 l 1,118,-1
 739 -3 l 1,119,-1
 732 -266 l 1,116,-1
EndSplineSet
AnchorPoint: "BLW" 306 0 basechar 0
AnchorPoint: "BR" 580 188 basechar 0
AnchorPoint: "V" 391 457.5 basechar 0
Ligature2: "'blws' Below Base Substitutions in Telugu lookup 3 subtable" u0C16.base u0C30.sub
MultipleSubs2: "Multiple Substitution lookup 13 subtable" u0C30.sub.alt u0C16.base
LCarets2: 1 0 
GlyphClass: 2

EndChar

StartChar: u0C16.sub
Encoding: 65544 -1 127
Width: 28
Flags: W
LayerCount: 2
Fore
SplineSet
-358 -681 m 1,0,1
 -384 -814 -384 -814 -463 -904 c 128,-1,2
 -542 -994 -542 -994 -648 -994 c 0,3,4
 -709 -994 -709 -994 -746 -966 c 0,5,6
 -772 -947 -772 -947 -807 -900 c 1,7,8
 -863 -946 -863 -946 -918 -971.5 c 128,-1,9
 -973 -997 -973 -997 -1031 -997 c 0,10,11
 -1117 -997 -1117 -997 -1163 -943 c 1,12,13
 -1198 -904 -1198 -904 -1198 -854 c 0,14,15
 -1198 -843 -1198 -843 -1196 -824 c 1,16,17
 -1182 -757 -1182 -757 -1123 -709 c 128,-1,18
 -1064 -661 -1064 -661 -979 -661 c 0,19,20
 -922 -661 -922 -661 -877.5 -677.5 c 128,-1,21
 -833 -694 -833 -694 -796 -731 c 1,22,-1
 -780 -688 l 1,23,-1
 -768 -648 l 1,24,-1
 -763 -626 l 2,25,26
 -758 -604 -758 -604 -758 -578 c 0,27,28
 -758 -557 -758 -557 -765 -532 c 1,29,30
 -779 -492 -779 -492 -821 -463 c 1,31,32
 -821 -470 -821 -470 -820 -472 c 1,33,-1
 -822 -484 l 1,34,35
 -834 -541 -834 -541 -881.5 -582 c 128,-1,36
 -929 -623 -929 -623 -982 -623 c 0,37,38
 -1036 -623 -1036 -623 -1065 -584 c 1,39,40
 -1083 -562 -1083 -562 -1083 -520 c 0,41,42
 -1083 -497 -1083 -497 -1081 -485 c 0,43,44
 -1066 -418 -1066 -418 -1012.5 -376 c 128,-1,45
 -959 -334 -959 -334 -873 -334 c 0,46,47
 -740 -334 -740 -334 -687 -429 c 0,48,49
 -655 -485 -655 -485 -655 -556 c 0,50,51
 -655 -596 -655 -596 -666 -647 c 0,52,53
 -685 -736 -685 -736 -731 -810 c 1,54,55
 -722 -824 -722 -824 -708 -840 c 128,-1,56
 -694 -856 -694 -856 -689 -861 c 0,57,58
 -660 -883 -660 -883 -628 -883 c 0,59,60
 -570 -883 -570 -883 -526 -829.5 c 128,-1,61
 -482 -776 -482 -776 -461 -683 c 0,62,63
 -457 -668 -457 -668 -456 -651.5 c 128,-1,64
 -455 -635 -455 -635 -455 -616 c 0,65,66
 -455 -562 -455 -562 -478 -511 c 1,67,68
 -518 -437 -518 -437 -602 -437 c 1,69,-1
 -588 -328 l 1,70,71
 -463 -328 -463 -328 -402 -420 c 0,72,73
 -381 -452 -381 -452 -369.5 -496 c 128,-1,74
 -358 -540 -358 -540 -358 -591 c 2,75,-1
 -358 -681 l 1,0,1
-811 -1184 m 1,76,-1
 -937 -1184 l 1,77,-1
 -859 -969 l 1,78,-1
 -802 -969 l 1,79,-1
 -811 -1184 l 1,76,-1
-928 -485 m 1,80,81
 -921 -450 -921 -450 -951 -450 c 0,82,83
 -963 -450 -963 -450 -974 -461 c 128,-1,84
 -985 -472 -985 -472 -986 -484 c 0,85,86
 -987 -495 -987 -495 -983 -506 c 1,87,88
 -978 -514 -978 -514 -964 -515 c 1,89,90
 -936 -515 -936 -515 -928 -485 c 1,80,81
-868 -824 m 1,91,92
 -891 -798 -891 -798 -924.5 -784 c 128,-1,93
 -958 -770 -958 -770 -1009 -770 c 0,94,95
 -1045 -770 -1045 -770 -1070 -784 c 128,-1,96
 -1095 -798 -1095 -798 -1103 -824 c 1,97,98
 -1110 -852 -1110 -852 -1083 -870.5 c 128,-1,99
 -1056 -889 -1056 -889 -1014 -889 c 0,100,101
 -978 -889 -978 -889 -938 -873 c 1,102,103
 -922 -865 -922 -865 -904.5 -853.5 c 128,-1,104
 -887 -842 -887 -842 -868 -824 c 1,91,92
EndSplineSet
AnchorPoint: "BLW" -312 0 mark 0
Ligature2: "'blwf' Below Base Form (sub)" u0C16 u0C4D
LCarets2: 1 0 

EndChar

StartChar: u0C16_u0C3F
Encoding: 65545 -1 128
Width: 1218
Flags: W
LayerCount: 2
Fore
SplineSet
1411 550 m 1,0,1
 1382 420 1382 420 1345 318 c 1,2,3
 1292 176 1292 176 1217 95 c 0,4,5
 1125 -4 1125 -4 999 -4 c 0,6,7
 917 -4 917 -4 850 46 c 0,8,9
 810 76 810 76 752 158 c 1,10,11
 687 84 687 84 596 39.5 c 128,-1,12
 505 -5 505 -5 414 -5 c 0,13,14
 291 -5 291 -5 223 67 c 0,15,16
 176 118 176 118 176 185 c 0,17,18
 176 204 176 204 180 225 c 0,19,20
 201 315 201 315 280 380 c 0,21,22
 366 450 366 450 482 450 c 0,23,24
 581 450 581 450 646 422 c 1,25,26
 703 400 703 400 750 347 c 1,27,28
 766 376 766 376 781 420 c 1,29,-1
 804 497 l 1,30,31
 813 541 813 541 813 587 c 0,32,33
 813 630 813 630 801 667 c 0,34,35
 779 735 779 735 701 764 c 1,36,37
 702 757 702 757 702 745 c 0,38,39
 702 726 702 726 697 708 c 1,40,41
 681 627 681 627 617.5 572 c 128,-1,42
 554 517 554 517 480 517 c 0,43,44
 410 517 410 517 370 571 c 0,45,46
 342 608 342 608 342 661 c 0,47,48
 342 682 342 682 346 707 c 1,49,50
 369 809 369 809 444.5 860.5 c 128,-1,51
 520 912 520 912 633 912 c 0,52,53
 816 912 816 912 894 791 c 1,54,55
 938 717 938 717 938 617 c 0,56,57
 938 568 938 568 925.5 503 c 128,-1,58
 913 438 913 438 887.5 373 c 128,-1,59
 862 308 862 308 825 252 c 1,60,61
 882 174 882 174 927.5 147.5 c 128,-1,62
 973 121 973 121 1026 121 c 0,63,64
 1139 121 1139 121 1213 276 c 1,65,66
 1249 358 1249 358 1289 538 c 0,67,68
 1310 637 1310 637 1310 733 c 0,69,70
 1310 881 1310 881 1259 1022 c 0,71,72
 1163 1293 1163 1293 925 1315 c 1,73,74
 940 1285 940 1285 942.5 1263.5 c 128,-1,75
 945 1242 945 1242 945 1235 c 128,-1,76
 945 1228 945 1228 945 1221 c 0,77,78
 945 1193 945 1193 940 1171 c 0,79,80
 921 1079 921 1079 844 1009.5 c 128,-1,81
 767 940 767 940 685 940 c 256,82,83
 603 940 603 940 554 1010 c 0,84,85
 521 1058 521 1058 521 1119 c 0,86,87
 521 1134 521 1134 521 1149 c 1,88,89
 525 1164 525 1164 526 1169 c 0,90,91
 553 1299 553 1299 655 1372.5 c 128,-1,92
 757 1446 757 1446 912 1446 c 0,93,94
 1130 1446 1130 1446 1265 1292 c 1,95,96
 1379 1159 1379 1159 1416 935 c 0,97,98
 1431 840 1431 840 1431 756 c 0,99,100
 1431 656 1431 656 1411 550 c 1,0,1
811 1175 m 0,101,102
 813 1186 813 1186 813 1205 c 0,103,104
 813 1231 813 1231 804 1249 c 0,105,106
 789 1279 789 1279 752 1279 c 0,107,108
 713 1279 713 1279 686 1248.5 c 128,-1,109
 659 1218 659 1218 653 1185.5 c 128,-1,110
 647 1153 647 1153 647 1135 c 0,111,112
 647 1114 647 1114 654 1093 c 1,113,114
 672 1063 672 1063 707 1063 c 0,115,116
 743 1063 743 1063 773 1095 c 1,117,118
 799 1125 799 1125 811 1175 c 0,101,102
574 704 m 0,119,120
 575 709 575 709 575 720 c 0,121,122
 575 735 575 735 565.5 750 c 128,-1,123
 556 765 556 765 531 765 c 0,124,125
 508 765 508 765 490 747.5 c 128,-1,126
 472 730 472 730 464 702 c 0,127,128
 463 698 463 698 463 693.5 c 128,-1,129
 463 689 463 689 463 688 c 0,130,131
 463 674 463 674 472.5 657.5 c 128,-1,132
 482 641 482 641 505 641 c 0,133,134
 527 641 527 641 548 658.5 c 128,-1,135
 569 676 569 676 574 704 c 0,119,120
671 228 m 1,136,137
 636 265 636 265 581 287 c 128,-1,138
 526 309 526 309 449 309 c 0,139,140
 389 309 389 309 348 284 c 128,-1,141
 307 259 307 259 295 216 c 0,142,143
 294 211 294 211 294 199 c 0,144,145
 294 166 294 166 324 144 c 1,146,147
 368 118 368 118 436 118 c 0,148,149
 473 118 473 118 499.5 123.5 c 128,-1,150
 526 129 526 129 561 145 c 1,151,152
 619 174 619 174 671 228 c 1,136,137
726 -275 m 1,153,-1
 543 -275 l 1,154,-1
 648 -12 l 1,155,-1
 733 -12 l 1,156,-1
 726 -275 l 1,153,-1
EndSplineSet
AnchorPoint: "BLW" 296 0 basechar 0
AnchorPoint: "BR" 576 188 basechar 0
Ligature2: "'psts' Post Base Sub 0C3F short i" u0C16.base u0C3F
LCarets2: 1 0 
GlyphClass: 2

EndChar

StartChar: u0C17.base
Encoding: 65546 -1 130
Width: 1192
Flags: W
LayerCount: 2
Fore
SplineSet
1169 481 m 0,0,1
 1136 325 1136 325 1082.5 213.5 c 128,-1,2
 1029 102 1029 102 916 -26 c 1,3,-1
 842 53 l 1,4,5
 925 152 925 152 972.5 252 c 128,-1,6
 1020 352 1020 352 1049 482 c 0,7,8
 1057 522 1057 522 1057 558 c 0,9,10
 1057 657 1057 657 992 735 c 1,11,12
 906 830 906 830 772 830 c 0,13,14
 635 830 635 830 510.5 733 c 128,-1,15
 386 636 386 636 351 481 c 1,16,17
 340 425 340 425 334 365 c 128,-1,18
 328 305 328 305 328 259 c 0,19,20
 328 215 328 215 341 165.5 c 128,-1,21
 354 116 354 116 380 53 c 1,22,-1
 270 -26 l 1,23,24
 240 46 240 46 222.5 109.5 c 128,-1,25
 205 173 205 173 205 231 c 0,26,27
 205 287 205 287 211 347 c 128,-1,28
 217 407 217 407 231 481 c 1,29,30
 275 690 275 690 448 828 c 0,31,32
 610 958 610 958 799 958 c 0,33,34
 983 958 983 958 1093 830 c 0,35,36
 1179 731 1179 731 1179 589 c 0,37,38
 1179 549 1179 549 1177 531.5 c 128,-1,39
 1175 514 1175 514 1169 481 c 0,0,1
EndSplineSet
AnchorPoint: "BLW" 224 0 basechar 0
AnchorPoint: "BR" 426 188 basechar 0
AnchorPoint: "TR" 364 384 basechar 0
AnchorPoint: "V" 230 458 basechar 0
Ligature2: "'blws' Below Base Substitutions in Telugu lookup 3 subtable" u0C17.base u0C30.sub
MultipleSubs2: "Multiple Substitution lookup 13 subtable" u0C30.sub.alt u0C17.base
LCarets2: 1 0 
GlyphClass: 2

EndChar

